STARTFONT 2.1
COMMENT
COMMENT Converted from OpenType font "ipaexm.ttf" by "otf2bdf 3.0".
COMMENT
FONT -FreeType-IPAexMincho-Medium-R-Normal--32-320-72-72-P-278-ISO10646-1
SIZE 32 72 72
FONTBOUNDINGBOX 40 38 -8 -9
STARTPROPERTIES 19
FOUNDRY "FreeType"
FAMILY_NAME "IPAexMincho"
WEIGHT_NAME "Medium"
SLANT "R"
SETWIDTH_NAME "Normal"
ADD_STYLE_NAME ""
PIXEL_SIZE 32
POINT_SIZE 320
RESOLUTION_X 72
RESOLUTION_Y 72
SPACING "P"
AVERAGE_WIDTH 278
CHARSET_REGISTRY "ISO10646"
CHARSET_ENCODING "1"
FONT_ASCENT 28
FONT_DESCENT 3
COPYRIGHT "Copyright(c) Information-technology Promotion Agency, Japan (IPA), 2003-2019. You must accept "https://opensource.org/licenses/IPA/" to use this product."
_OTF_FONTFILE "ipaexm.ttf"
_OTF_PSNAME "IPAexMincho"
ENDPROPERTIES
CHARS 11691
STARTCHAR 0020
ENCODING 32
SWIDTH 281 0
DWIDTH 9 0
BBX 0 0 0 0
BITMAP
ENDCHAR
STARTCHAR 0021
ENCODING 33
SWIDTH 281 0
DWIDTH 9 0
BBX 3 23 3 0
BITMAP
40
E0
E0
E0
E0
E0
E0
60
60
60
40
40
40
40
40
40
00
00
00
E0
E0
E0
E0
ENDCHAR
STARTCHAR 0022
ENCODING 34
SWIDTH 343 0
DWIDTH 11 0
BBX 7 8 2 16
BITMAP
C6
E6
E6
E6
C6
C6
46
46
ENDCHAR
STARTCHAR 0023
ENCODING 35
SWIDTH 625 0
DWIDTH 20 0
BBX 16 24 2 -1
BITMAP
030C
0208
0218
0618
0618
0618
FFFF
0410
0C30
0C30
0C30
0C30
0820
FFFF
1860
1860
1860
1860
1040
3040
30C0
30C0
30C0
1040
ENDCHAR
STARTCHAR 0024
ENCODING 36
SWIDTH 625 0
DWIDTH 20 0
BBX 15 25 2 -1
BITMAP
0180
07E0
1DB8
318C
618C
619C
618C
6180
7180
3980
1F80
0FC0
01F0
01F8
019C
018E
0186
6186
F186
E186
618C
3198
1FF0
0180
0180
ENDCHAR
STARTCHAR 0025
ENCODING 37
SWIDTH 781 0
DWIDTH 25 0
BBX 21 23 2 1
BITMAP
3C0020
620040
C300C0
C10180
C18100
C18300
C18600
C18400
C10800
431800
621000
3C21E0
006330
00C618
008418
018408
030C08
020C08
040418
0C0418
080618
100230
3001E0
ENDCHAR
STARTCHAR 0026
ENCODING 38
SWIDTH 718 0
DWIDTH 23 0
BBX 20 23 3 0
BITMAP
07C000
186000
303000
303000
303000
303000
303000
386000
18C000
0F8000
0E0FF0
1F01C0
330180
618100
C1C100
C0E100
C07200
C03E00
C01C00
E00E00
703F00
3FE3C0
1F81F0
ENDCHAR
STARTCHAR 0027
ENCODING 39
SWIDTH 218 0
DWIDTH 7 0
BBX 3 8 2 16
BITMAP
C0
E0
E0
E0
C0
C0
40
40
ENDCHAR
STARTCHAR 0028
ENCODING 40
SWIDTH 375 0
DWIDTH 12 0
BBX 7 31 3 -6
BITMAP
04
0C
18
18
30
30
60
60
60
60
C0
C0
C0
C0
C0
C0
C0
C0
C0
C0
C0
60
60
60
30
30
10
18
08
0C
06
ENDCHAR
STARTCHAR 0029
ENCODING 41
SWIDTH 375 0
DWIDTH 12 0
BBX 7 31 2 -6
BITMAP
C0
60
20
30
30
18
18
0C
0C
0C
0C
0C
0E
06
06
06
06
06
0E
0C
0C
0C
0C
18
18
18
30
30
60
40
80
ENDCHAR
STARTCHAR 002A
ENCODING 42
SWIDTH 250 0
DWIDTH 8 0
BBX 8 8 0 15
BITMAP
18
18
DB
76
3C
76
DB
18
ENDCHAR
STARTCHAR 002B
ENCODING 43
SWIDTH 687 0
DWIDTH 22 0
BBX 17 17 2 2
BITMAP
00C000
00C000
00C000
00C000
00C000
00C000
00C000
00C000
FFFF80
00C000
00C000
00C000
00C000
00C000
00C000
00C000
00C000
ENDCHAR
STARTCHAR 002C
ENCODING 44
SWIDTH 250 0
DWIDTH 8 0
BBX 4 6 2 -4
BITMAP
E0
F0
70
20
60
C0
ENDCHAR
STARTCHAR 002D
ENCODING 45
SWIDTH 281 0
DWIDTH 9 0
BBX 7 2 1 8
BITMAP
FE
FE
ENDCHAR
STARTCHAR 002E
ENCODING 46
SWIDTH 250 0
DWIDTH 8 0
BBX 4 3 2 0
BITMAP
60
F0
60
ENDCHAR
STARTCHAR 002F
ENCODING 47
SWIDTH 500 0
DWIDTH 16 0
BBX 11 29 2 -5
BITMAP
0020
0020
0060
0060
0040
00C0
0080
0080
0180
0100
0300
0300
0200
0600
0400
0400
0C00
0800
1800
1800
1000
3000
2000
6000
6000
4000
C000
C000
8000
ENDCHAR
STARTCHAR 0030
ENCODING 48
SWIDTH 625 0
DWIDTH 20 0
BBX 16 24 2 0
BITMAP
07C0
0C30
1818
300C
700C
600E
6006
6006
E006
E007
E007
E007
E007
E007
E007
E006
6006
6006
600E
300C
300C
1818
0C30
07E0
ENDCHAR
STARTCHAR 0031
ENCODING 49
SWIDTH 625 0
DWIDTH 20 0
BBX 11 24 4 0
BITMAP
0200
0E00
FE00
0600
0600
0600
0600
0600
0600
0600
0600
0600
0600
0600
0600
0600
0600
0600
0600
0600
0600
0600
0F00
7FE0
ENDCHAR
STARTCHAR 0032
ENCODING 50
SWIDTH 625 0
DWIDTH 20 0
BBX 14 24 3 0
BITMAP
0FC0
3070
6038
6018
C01C
E01C
F01C
601C
001C
0038
0070
00E0
01C0
0380
0600
0C00
1800
3004
2004
4004
C004
C00C
FFFC
FFFC
ENDCHAR
STARTCHAR 0033
ENCODING 51
SWIDTH 625 0
DWIDTH 20 0
BBX 15 25 2 -1
BITMAP
07E0
1830
3018
600C
700C
700C
700C
000C
001C
0018
0070
0780
07E0
0038
001C
000E
000E
7006
7006
F00E
400E
600C
2018
1870
0FC0
ENDCHAR
STARTCHAR 0034
ENCODING 52
SWIDTH 625 0
DWIDTH 20 0
BBX 18 23 1 0
BITMAP
000800
001800
003800
007800
005800
009800
019800
031800
021800
041800
0C1800
181800
301800
201800
401800
FFFFC0
FFFFC0
001800
001800
001800
001800
001C00
00FF80
ENDCHAR
STARTCHAR 0035
ENCODING 53
SWIDTH 625 0
DWIDTH 20 0
BBX 14 24 3 -1
BITMAP
3FF8
3FF8
6000
6000
6000
6000
6000
6000
47C0
5870
6038
6018
401C
000C
000C
000C
600C
E00C
F00C
E01C
C018
6038
3070
0FC0
ENDCHAR
STARTCHAR 0036
ENCODING 54
SWIDTH 625 0
DWIDTH 20 0
BBX 15 25 3 -1
BITMAP
03E0
0C30
1818
301C
703C
6018
6000
E000
C000
C7C0
CC30
D018
E01C
E00C
E00C
E00E
C00E
C00E
C00E
600E
600C
701C
3018
1870
07C0
ENDCHAR
STARTCHAR 0037
ENCODING 55
SWIDTH 625 0
DWIDTH 20 0
BBX 15 23 3 0
BITMAP
7FFE
7FFE
E004
C00C
C008
8018
8010
0030
0020
0060
0040
00C0
00C0
0080
0180
0180
0380
0300
0300
0700
0700
0700
0700
ENDCHAR
STARTCHAR 0038
ENCODING 56
SWIDTH 625 0
DWIDTH 20 0
BBX 15 25 2 -1
BITMAP
07E0
1C38
300C
300C
6006
6006
6006
700C
300C
3818
1E70
07C0
0FE0
1CF8
383C
701E
600E
C006
C006
C006
C006
6006
300C
1838
07E0
ENDCHAR
STARTCHAR 0039
ENCODING 57
SWIDTH 625 0
DWIDTH 20 0
BBX 15 25 2 -1
BITMAP
07C0
1870
3018
601C
600C
E00C
E00E
E00E
E00E
E00E
600E
600E
3016
1876
0FC6
0006
0006
000C
000C
700C
7018
7018
3030
3860
0F80
ENDCHAR
STARTCHAR 003A
ENCODING 58
SWIDTH 281 0
DWIDTH 9 0
BBX 3 16 3 0
BITMAP
E0
E0
E0
00
00
00
00
00
00
00
00
00
00
E0
E0
E0
ENDCHAR
STARTCHAR 003B
ENCODING 59
SWIDTH 281 0
DWIDTH 9 0
BBX 5 19 2 -4
BITMAP
70
70
70
00
00
00
00
00
00
00
00
00
70
70
78
30
10
30
E0
ENDCHAR
STARTCHAR 003C
ENCODING 60
SWIDTH 687 0
DWIDTH 22 0
BBX 17 17 2 2
BITMAP
000080
000380
000F00
003C00
00E000
038000
0E0000
380000
E00000
F00000
3C0000
0F0000
03C000
007000
001C00
000700
000180
ENDCHAR
STARTCHAR 003D
ENCODING 61
SWIDTH 687 0
DWIDTH 22 0
BBX 17 8 2 6
BITMAP
FFFF80
000000
000000
000000
000000
000000
000000
FFFF80
ENDCHAR
STARTCHAR 003E
ENCODING 62
SWIDTH 687 0
DWIDTH 22 0
BBX 17 16 2 3
BITMAP
E00000
3C0000
0F0000
03C000
00F000
001C00
000700
000180
000380
000E00
003800
00E000
038000
1E0000
780000
E00000
ENDCHAR
STARTCHAR 003F
ENCODING 63
SWIDTH 500 0
DWIDTH 16 0
BBX 12 23 2 0
BITMAP
1F80
70E0
C060
C030
8030
E030
E030
0030
0070
00E0
01C0
0300
0600
0400
0400
0400
0400
0000
0000
0C00
0E00
0E00
0E00
ENDCHAR
STARTCHAR 0040
ENCODING 64
SWIDTH 906 0
DWIDTH 29 0
BBX 24 23 2 0
BITMAP
007F80
01C060
070018
0C000C
180F66
3831C2
3060C3
60E0C1
60C0C1
61C181
E18181
E38181
E38381
E38303
638702
638704
618F0C
30F318
3801E0
1C0000
0E0018
0380E0
00FF00
ENDCHAR
STARTCHAR 0041
ENCODING 65
SWIDTH 718 0
DWIDTH 23 0
BBX 23 23 0 0
BITMAP
001000
001800
003800
003800
006C00
004C00
004600
00C600
008600
018300
010300
010380
030180
020180
07FFC0
0600C0
0400E0
0C0060
080060
180030
180030
380038
FE01FE
ENDCHAR
STARTCHAR 0042
ENCODING 66
SWIDTH 718 0
DWIDTH 23 0
BBX 19 23 2 0
BITMAP
FFF800
3C0F00
180380
180180
1801C0
1801C0
180180
180180
180300
180E00
1FF000
180E00
180180
1800C0
1800E0
1800E0
1800E0
1800E0
1800E0
1800C0
1801C0
3C0F00
FFFC00
ENDCHAR
STARTCHAR 0043
ENCODING 67
SWIDTH 718 0
DWIDTH 23 0
BBX 20 24 2 0
BITMAP
00FC00
070320
0C00A0
180060
300060
700020
600020
600020
E00000
E00000
E00000
E00000
E00000
E00000
E00000
E00000
600010
700010
700030
380060
1C00C0
0F03C0
07FF00
01FC00
ENDCHAR
STARTCHAR 0044
ENCODING 68
SWIDTH 781 0
DWIDTH 25 0
BBX 21 23 2 0
BITMAP
FFFC00
3C0700
1801C0
1800E0
180060
180030
180030
180038
180018
180018
180018
180018
180018
180018
180038
180038
180038
180030
180060
1800E0
1801C0
3C0700
FFFC00
ENDCHAR
STARTCHAR 0045
ENCODING 69
SWIDTH 687 0
DWIDTH 22 0
BBX 18 23 2 0
BITMAP
FFFFC0
3C03C0
1800C0
1800C0
180040
180040
180000
180800
181800
181800
1FF800
183800
181800
180800
180800
180000
180040
180040
180040
180040
1800C0
3C03C0
FFFFC0
ENDCHAR
STARTCHAR 0046
ENCODING 70
SWIDTH 625 0
DWIDTH 20 0
BBX 18 23 2 0
BITMAP
FFFFC0
3C03C0
1800C0
1800C0
180040
180040
180040
180800
180800
181800
181800
1FF800
181800
181800
180800
180000
180000
180000
180000
180000
180000
3C0000
FF8000
ENDCHAR
STARTCHAR 0047
ENCODING 71
SWIDTH 781 0
DWIDTH 25 0
BBX 22 24 2 0
BITMAP
00FC00
070320
0C00A0
180060
300060
700020
600020
600000
E00000
E00000
E00000
E00000
E00000
E003FC
E00070
E00070
600060
600060
700060
380060
180060
0E00E0
0703A0
01FE00
ENDCHAR
STARTCHAR 0048
ENCODING 72
SWIDTH 812 0
DWIDTH 26 0
BBX 23 23 2 0
BITMAP
FF03FE
3C00F0
180060
180060
180060
180060
180060
180060
180060
180060
1FFFE0
180060
180060
180060
180060
180060
180060
180060
180060
180060
180060
3C00F0
FF03FE
ENDCHAR
STARTCHAR 0049
ENCODING 73
SWIDTH 375 0
DWIDTH 12 0
BBX 9 23 2 0
BITMAP
FF80
3C00
1800
1800
1800
1800
1800
1800
1800
1800
1800
1800
1800
1800
1800
1800
1800
1800
1800
1800
1800
3C00
FF80
ENDCHAR
STARTCHAR 004A
ENCODING 74
SWIDTH 468 0
DWIDTH 15 0
BBX 14 23 0 0
BITMAP
07FC
00E0
00E0
00E0
00E0
00E0
00E0
00E0
00E0
00E0
00E0
00E0
00E0
00E0
00E0
00E0
00E0
00E0
60E0
F0C0
E0C0
6180
1F00
ENDCHAR
STARTCHAR 004B
ENCODING 75
SWIDTH 718 0
DWIDTH 23 0
BBX 21 23 2 0
BITMAP
FF8FF0
3C01C0
180300
180200
180400
181800
183000
186000
18C000
198000
1BC000
1EC000
1CE000
187000
183800
181C00
180C00
180E00
180700
180380
1801C0
3C01E0
FF87F8
ENDCHAR
STARTCHAR 004C
ENCODING 76
SWIDTH 593 0
DWIDTH 19 0
BBX 17 23 2 0
BITMAP
FF8000
3C0000
180000
180000
180000
180000
180000
180000
180000
180000
180000
180000
180000
180000
180000
180000
180080
180080
180080
180080
180180
3C0780
FFFF80
ENDCHAR
STARTCHAR 004D
ENCODING 77
SWIDTH 968 0
DWIDTH 31 0
BBX 28 23 1 0
BITMAP
FE0007F0
1F0007C0
1B000580
0B000D80
0B800980
09800980
09801980
09C01180
08C03180
08E03180
08602180
08606180
08704180
08304180
0830C180
08388180
08198180
081D8180
080D0180
080F0180
180E0380
1C060380
FF061FF0
ENDCHAR
STARTCHAR 004E
ENCODING 78
SWIDTH 812 0
DWIDTH 26 0
BBX 24 23 1 0
BITMAP
FC00FF
1E001C
1F0018
0B0018
098018
09C018
08E018
086018
087018
083818
081818
081C18
080E18
080618
080318
080398
0801D8
0800D8
0800F8
080078
180038
1C0038
FF0018
ENDCHAR
STARTCHAR 004F
ENCODING 79
SWIDTH 812 0
DWIDTH 26 0
BBX 22 25 2 -1
BITMAP
00FC00
070300
0C01C0
1800E0
380060
300030
700038
600038
E00018
E0001C
E0001C
E0001C
E0001C
E0001C
E0001C
E0001C
E00018
600018
700038
300030
380070
1800E0
0C01C0
070300
00FC00
ENDCHAR
STARTCHAR 0050
ENCODING 80
SWIDTH 656 0
DWIDTH 21 0
BBX 18 23 2 0
BITMAP
FFFC00
3C0F00
180380
1801C0
1801C0
1800C0
1800C0
1801C0
1801C0
180380
180F00
1FF800
180000
180000
180000
180000
180000
180000
180000
180000
180000
3C0000
FF8000
ENDCHAR
STARTCHAR 0051
ENCODING 81
SWIDTH 812 0
DWIDTH 26 0
BBX 23 27 2 -3
BITMAP
00FC00
070300
0C01C0
1800E0
380060
300030
700038
600018
E00018
E0001C
E0001C
E0001C
E0001C
E0001C
E0001C
E0001C
E00018
607818
71FC38
318E30
390660
1903C0
0D0380
078380
01FDC2
0000FE
00003C
ENDCHAR
STARTCHAR 0052
ENCODING 82
SWIDTH 687 0
DWIDTH 22 0
BBX 21 23 2 0
BITMAP
FFF800
3C0F00
180380
180180
1801C0
1801C0
1801C0
1801C0
180180
180300
180E00
1FF800
187000
181800
180C00
180E00
180600
180700
180380
180380
1801C0
3C01C0
FF00F8
ENDCHAR
STARTCHAR 0053
ENCODING 83
SWIDTH 625 0
DWIDTH 20 0
BBX 16 23 2 0
BITMAP
0FE2
183E
300E
6006
6006
E002
E002
7000
7800
3E00
1FC0
03F0
00F8
003C
000E
8006
8007
C007
C006
E006
F00C
9818
87E0
ENDCHAR
STARTCHAR 0054
ENCODING 84
SWIDTH 625 0
DWIDTH 20 0
BBX 20 23 0 0
BITMAP
7FFFF0
7060F0
C06030
C06030
806010
806010
006000
006000
006000
006000
006000
006000
006000
006000
006000
006000
006000
006000
006000
006000
006000
00F000
07FC00
ENDCHAR
STARTCHAR 0055
ENCODING 85
SWIDTH 781 0
DWIDTH 25 0
BBX 24 23 1 0
BITMAP
FF80FF
3C0038
180018
180018
180018
180018
180018
180018
180018
180018
180018
180018
180018
180018
180018
180018
1C0018
1C0030
0C0030
0E0060
0781E0
03FFC0
00FF00
ENDCHAR
STARTCHAR 0056
ENCODING 86
SWIDTH 718 0
DWIDTH 23 0
BBX 23 23 0 0
BITMAP
FF00FE
3C0038
1C0030
1C0030
0C0020
0E0060
060040
0600C0
0700C0
030080
030180
018180
018100
01C300
00C200
00C200
00E600
006400
006C00
003800
003800
003800
001000
ENDCHAR
STARTCHAR 0057
ENCODING 87
SWIDTH 968 0
DWIDTH 31 0
BBX 31 23 0 0
BITMAP
FF0FF1FE
3C038038
18018030
1C018030
1C018020
0C01C020
0C03C060
0E02C040
0602C040
060660C0
070460C0
03046080
030C3080
03083180
01883100
01983100
01901B00
00D01A00
00D01A00
00E00E00
00E00C00
00600C00
00400400
ENDCHAR
STARTCHAR 0058
ENCODING 88
SWIDTH 718 0
DWIDTH 23 0
BBX 23 23 0 0
BITMAP
7F81FE
1E0078
0E0060
0600C0
0700C0
038180
018300
00C200
00E600
007C00
003800
003800
007C00
006E00
00C600
018700
010380
030180
0600C0
0C00E0
1C0070
380078
FF03FE
ENDCHAR
STARTCHAR 0059
ENCODING 89
SWIDTH 687 0
DWIDTH 22 0
BBX 22 23 0 0
BITMAP
FF83FC
3C0070
1C0060
0C00C0
0E00C0
060180
030100
038300
018200
01C600
00CC00
00E800
007800
003000
003000
003000
003000
003000
003000
003000
003000
007800
01FF00
ENDCHAR
STARTCHAR 005A
ENCODING 90
SWIDTH 625 0
DWIDTH 20 0
BBX 18 22 1 1
BITMAP
7FFF80
780380
600700
400600
400E00
401C00
001800
003800
007000
00E000
00C000
01C000
038000
070000
060000
0E0000
1C0040
180040
3800C0
7000C0
E001C0
FFFF80
ENDCHAR
STARTCHAR 005B
ENCODING 91
SWIDTH 343 0
DWIDTH 11 0
BBX 5 30 4 -6
BITMAP
F8
C0
C0
C0
C0
C0
C0
C0
C0
C0
C0
C0
C0
C0
C0
C0
C0
C0
C0
C0
C0
C0
C0
C0
C0
C0
C0
C0
C0
F8
ENDCHAR
STARTCHAR 005C
ENCODING 92
SWIDTH 500 0
DWIDTH 16 0
BBX 11 29 3 -5
BITMAP
8000
8000
C000
C000
4000
6000
2000
2000
3000
1000
1800
1800
0800
0C00
0400
0600
0600
0200
0300
0300
0100
0180
0080
00C0
00C0
0040
0060
0060
0020
ENDCHAR
STARTCHAR 005D
ENCODING 93
SWIDTH 343 0
DWIDTH 11 0
BBX 6 30 1 -6
BITMAP
FC
0C
0C
0C
0C
0C
0C
0C
0C
0C
0C
0C
0C
0C
0C
0C
0C
0C
0C
0C
0C
0C
0C
0C
0C
0C
0C
0C
0C
FC
ENDCHAR
STARTCHAR 005E
ENCODING 94
SWIDTH 500 0
DWIDTH 16 0
BBX 14 8 1 12
BITMAP
0300
0780
0CC0
1860
1020
3030
6018
C00C
ENDCHAR
STARTCHAR 005F
ENCODING 95
SWIDTH 500 0
DWIDTH 16 0
BBX 16 2 0 -4
BITMAP
FFFF
FFFF
ENDCHAR
STARTCHAR 0060
ENCODING 96
SWIDTH 500 0
DWIDTH 16 0
BBX 5 4 5 20
BITMAP
C0
E0
30
18
ENDCHAR
STARTCHAR 0061
ENCODING 97
SWIDTH 531 0
DWIDTH 17 0
BBX 15 16 2 0
BITMAP
0F80
30E0
6060
7030
6030
0030
03F0
1F30
7030
E030
C030
C030
C030
C070
60B2
3F1C
ENDCHAR
STARTCHAR 0062
ENCODING 98
SWIDTH 593 0
DWIDTH 19 0
BBX 17 24 0 0
BITMAP
080000
F80000
180000
180000
180000
180000
180000
180000
18F800
1B0E00
1A0700
1C0300
1C0180
180180
180180
180180
180180
180180
180180
180180
1C0300
1E0300
1B0E00
18F800
ENDCHAR
STARTCHAR 0063
ENCODING 99
SWIDTH 531 0
DWIDTH 17 0
BBX 14 16 2 0
BITMAP
07C0
1830
3018
6038
E018
C000
C000
C000
C000
C000
E000
E000
700C
3838
1FF0
0FC0
ENDCHAR
STARTCHAR 0064
ENCODING 100
SWIDTH 625 0
DWIDTH 20 0
BBX 17 24 2 0
BITMAP
000400
007C00
000C00
000C00
000C00
000C00
000C00
000C00
0F8C00
186C00
301C00
601C00
E00C00
C00C00
C00C00
C00C00
C00C00
C00C00
C00C00
E00C00
601C00
703C00
386C00
0F8F80
ENDCHAR
STARTCHAR 0065
ENCODING 101
SWIDTH 562 0
DWIDTH 18 0
BBX 14 16 2 0
BITMAP
0FC0
1870
3018
6018
E00C
C00C
FFFC
C000
C000
C000
C000
E000
600C
3008
1C30
07C0
ENDCHAR
STARTCHAR 0066
ENCODING 102
SWIDTH 312 0
DWIDTH 10 0
BBX 11 23 1 0
BITMAP
07C0
0C60
1860
1800
1800
1800
1800
FF80
1800
1800
1800
1800
1800
1800
1800
1800
1800
1800
1800
1800
1800
3800
FF00
ENDCHAR
STARTCHAR 0067
ENCODING 103
SWIDTH 562 0
DWIDTH 18 0
BBX 15 24 2 -6
BITMAP
000E
003E
0FE0
3070
6030
E018
C018
C018
C018
6030
3060
3FC0
6000
6000
3800
1FE0
3FF8
E03C
C00C
C00C
C00C
C01C
7038
1FE0
ENDCHAR
STARTCHAR 0068
ENCODING 104
SWIDTH 625 0
DWIDTH 20 0
BBX 18 24 1 0
BITMAP
080000
F80000
380000
180000
180000
180000
180000
180000
18F800
1B1C00
1C0E00
180600
180600
180600
180600
180600
180600
180600
180600
180600
180600
180600
380700
FF3FC0
ENDCHAR
STARTCHAR 0069
ENCODING 105
SWIDTH 312 0
DWIDTH 10 0
BBX 8 23 1 0
BITMAP
18
3C
18
00
00
00
00
F8
38
18
18
18
18
18
18
18
18
18
18
18
18
18
FF
ENDCHAR
STARTCHAR 006A
ENCODING 106
SWIDTH 312 0
DWIDTH 10 0
BBX 9 29 -2 -6
BITMAP
0300
0780
0300
0000
0000
0000
0000
1F00
0300
0300
0300
0300
0300
0300
0300
0300
0300
0300
0300
0300
0300
0300
0300
0300
0300
6300
E300
6600
3C00
ENDCHAR
STARTCHAR 006B
ENCODING 107
SWIDTH 562 0
DWIDTH 18 0
BBX 17 24 1 0
BITMAP
080000
F80000
380000
180000
180000
180000
180000
180000
187F00
181C00
181800
183000
184000
198000
1B0000
1F8000
1DC000
18E000
186000
183000
181800
181C00
380E00
FF3F80
ENDCHAR
STARTCHAR 006C
ENCODING 108
SWIDTH 281 0
DWIDTH 9 0
BBX 8 23 1 0
BITMAP
F8
78
18
18
18
18
18
18
18
18
18
18
18
18
18
18
18
18
18
18
18
38
FF
ENDCHAR
STARTCHAR 006D
ENCODING 109
SWIDTH 906 0
DWIDTH 29 0
BBX 27 16 1 0
BITMAP
F8F07C00
1B1C8600
1C0D0300
1C0E0300
18060300
18060300
18060300
18060300
18060300
18060300
18060300
18060300
18060300
18060300
1C0E0380
FF3FDFE0
ENDCHAR
STARTCHAR 006E
ENCODING 110
SWIDTH 625 0
DWIDTH 20 0
BBX 19 16 1 0
BITMAP
F8F800
1B0E00
1E0600
1C0600
180700
180300
180300
180300
180300
180300
180300
180300
180300
180300
1C0700
FF1FE0
ENDCHAR
STARTCHAR 006F
ENCODING 111
SWIDTH 593 0
DWIDTH 19 0
BBX 15 16 2 0
BITMAP
07C0
1830
3018
600C
E00C
C00E
C006
C006
C006
C006
C00E
E00C
600C
3018
1830
0FC0
ENDCHAR
STARTCHAR 0070
ENCODING 112
SWIDTH 625 0
DWIDTH 20 0
BBX 17 22 1 -5
BITMAP
F8F800
3B0C00
1C0600
1C0300
180300
180380
180180
180180
180180
180180
180380
180300
180300
1C0600
1B0C00
19F800
180000
180000
180000
180000
380000
FF0000
ENDCHAR
STARTCHAR 0071
ENCODING 113
SWIDTH 593 0
DWIDTH 19 0
BBX 17 22 2 -6
BITMAP
0FC400
186C00
301C00
601C00
E00C00
C00C00
C00C00
C00C00
C00C00
C00C00
C00C00
E00C00
601C00
703C00
386C00
0F8C00
000C00
000C00
000C00
000C00
001E00
007F80
ENDCHAR
STARTCHAR 0072
ENCODING 114
SWIDTH 406 0
DWIDTH 13 0
BBX 12 16 1 0
BITMAP
F9F0
1B70
1A70
1C00
1C00
1800
1800
1800
1800
1800
1800
1800
1800
1800
1C00
FF00
ENDCHAR
STARTCHAR 0073
ENCODING 115
SWIDTH 468 0
DWIDTH 15 0
BBX 12 16 2 0
BITMAP
1FE0
60E0
4060
C020
C020
E000
7800
3F00
07C0
00E0
8060
8030
C020
C060
F0C0
9F80
ENDCHAR
STARTCHAR 0074
ENCODING 116
SWIDTH 343 0
DWIDTH 11 0
BBX 10 20 1 0
BITMAP
1000
1000
1000
3000
FF80
3000
3000
3000
3000
3000
3000
3000
3000
3000
3000
3000
3000
3800
18C0
0F00
ENDCHAR
STARTCHAR 0075
ENCODING 117
SWIDTH 593 0
DWIDTH 19 0
BBX 18 16 1 0
BITMAP
F83E00
380600
380600
380600
380600
380600
380600
380600
380600
380600
380600
380600
180E00
180E00
0C3700
07C7C0
ENDCHAR
STARTCHAR 0076
ENCODING 118
SWIDTH 531 0
DWIDTH 17 0
BBX 17 16 0 0
BITMAP
FE1F80
380700
380600
180400
180400
0C0800
0C0800
061800
061000
061000
032000
032000
012000
01C000
01C000
008000
ENDCHAR
STARTCHAR 0077
ENCODING 119
SWIDTH 781 0
DWIDTH 25 0
BBX 25 16 0 0
BITMAP
FE7F1F80
381C0600
380C0600
180C0400
180E0400
0C1E0C00
0C160800
0C130800
06231000
06231000
06219000
0341A000
0341A000
0380E000
0180C000
01804000
ENDCHAR
STARTCHAR 0078
ENCODING 120
SWIDTH 531 0
DWIDTH 17 0
BBX 17 16 0 0
BITMAP
FE3F00
380C00
1C0800
0C1800
063000
032000
03C000
018000
01C000
036000
067000
043000
081800
101C00
300E00
FC3F80
ENDCHAR
STARTCHAR 0079
ENCODING 121
SWIDTH 531 0
DWIDTH 17 0
BBX 17 22 0 -6
BITMAP
FE1F80
380600
380600
180400
1C0400
0C0800
0C0800
061800
061000
071000
032000
032000
01A000
01C000
00C000
008000
008000
008000
010000
190000
3A0000
1C0000
ENDCHAR
STARTCHAR 007A
ENCODING 122
SWIDTH 468 0
DWIDTH 15 0
BBX 13 16 1 0
BITMAP
7FF0
6030
4060
40E0
41C0
0180
0300
0700
0600
0C00
1C00
1808
3008
7018
E038
FFF8
ENDCHAR
STARTCHAR 007B
ENCODING 123
SWIDTH 343 0
DWIDTH 11 0
BBX 8 30 1 -6
BITMAP
0F
18
18
18
18
18
18
18
18
18
18
18
30
30
E0
60
30
18
18
18
18
18
18
18
18
18
18
18
18
0F
ENDCHAR
STARTCHAR 007C
ENCODING 124
SWIDTH 187 0
DWIDTH 6 0
BBX 2 29 2 -5
BITMAP
C0
C0
C0
C0
C0
C0
C0
C0
C0
C0
C0
C0
C0
C0
C0
C0
C0
C0
C0
C0
C0
C0
C0
C0
C0
C0
C0
C0
C0
ENDCHAR
STARTCHAR 007D
ENCODING 125
SWIDTH 343 0
DWIDTH 11 0
BBX 7 30 2 -6
BITMAP
F0
18
18
18
18
18
18
18
18
18
18
18
18
0C
06
06
0C
18
18
18
18
18
18
18
18
18
18
18
18
F0
ENDCHAR
STARTCHAR 007E
ENCODING 126
SWIDTH 500 0
DWIDTH 16 0
BBX 9 3 4 20
BITMAP
7000
9880
8700
ENDCHAR
STARTCHAR 00A0
ENCODING 160
SWIDTH 281 0
DWIDTH 9 0
BBX 0 0 0 0
BITMAP
ENDCHAR
STARTCHAR 00A1
ENCODING 161
SWIDTH 281 0
DWIDTH 9 0
BBX 3 23 3 0
BITMAP
E0
E0
E0
E0
00
00
40
40
40
40
40
40
40
40
60
E0
E0
E0
E0
E0
E0
E0
40
ENDCHAR
STARTCHAR 00A2
ENCODING 162
SWIDTH 562 0
DWIDTH 18 0
BBX 15 23 2 1
BITMAP
0020
0060
0040
07F0
1C58
309C
709C
6098
E180
E100
E100
C300
E200
E200
6602
7404
3C08
1C10
0FE0
0800
1800
1000
1000
ENDCHAR
STARTCHAR 00A3
ENCODING 163
SWIDTH 750 0
DWIDTH 24 0
BBX 18 23 3 1
BITMAP
00F800
038600
060300
060700
0E0700
0E0000
0E0000
0E0000
060000
060000
7FFC00
030000
030000
018000
018000
018000
7D8000
C78000
81C040
81F040
8338C0
C31F80
3C0700
ENDCHAR
STARTCHAR 00A4
ENCODING 164
SWIDTH 625 0
DWIDTH 20 0
BBX 14 14 3 3
BITMAP
CF8C
7878
2010
4018
C008
C00C
C00C
C00C
C00C
4008
6018
7878
DFEC
8F84
ENDCHAR
STARTCHAR 00A5
ENCODING 165
SWIDTH 625 0
DWIDTH 20 0
BBX 20 23 0 0
BITMAP
FF07F0
3C01C0
180180
1C0180
0C0300
060200
060600
030C00
038800
019800
00F000
3FFF80
006000
006000
3FFF80
006000
006000
006000
006000
006000
006000
00F000
07FC00
ENDCHAR
STARTCHAR 00A6
ENCODING 166
SWIDTH 187 0
DWIDTH 6 0
BBX 2 29 2 -5
BITMAP
C0
C0
C0
C0
C0
C0
C0
C0
C0
C0
C0
C0
C0
00
00
00
00
C0
C0
C0
C0
C0
C0
C0
C0
C0
C0
C0
C0
ENDCHAR
STARTCHAR 00A7
ENCODING 167
SWIDTH 687 0
DWIDTH 22 0
BBX 14 29 4 -2
BITMAP
0FC0
3860
6030
6038
6038
6038
6000
7000
3C00
1F00
17C0
61E0
4078
C038
C01C
600C
780C
3E18
0F90
03E0
00F0
0038
0018
E01C
F00C
E018
6018
3070
0FC0
ENDCHAR
STARTCHAR 00A8
ENCODING 168
SWIDTH 500 0
DWIDTH 16 0
BBX 8 3 4 20
BITMAP
C3
E7
C3
ENDCHAR
STARTCHAR 00A9
ENCODING 169
SWIDTH 1000 0
DWIDTH 32 0
BBX 26 26 3 -1
BITMAP
007F0000
01C0E000
06001800
0C000C00
18000600
303FA300
2060E100
60C06180
41802080
C38020C0
C30000C0
83000040
87000040
87000040
87000040
C30000C0
C30010C0
43003080
61802180
20C06100
3060C300
183F0600
0C000C00
06001800
0180E000
007F8000
ENDCHAR
STARTCHAR 00AA
ENCODING 170
SWIDTH 406 0
DWIDTH 13 0
BBX 10 13 2 10
BITMAP
3E00
6300
6100
0100
3F00
6100
C100
C100
C300
7DC0
0000
0000
FFC0
ENDCHAR
STARTCHAR 00AB
ENCODING 171
SWIDTH 500 0
DWIDTH 16 0
BBX 11 13 3 3
BITMAP
1860
1040
30C0
6180
6180
C300
C700
C300
6180
2080
30C0
1040
0820
ENDCHAR
STARTCHAR 00AC
ENCODING 172
SWIDTH 687 0
DWIDTH 22 0
BBX 16 7 2 6
BITMAP
FFFF
0003
0003
0003
0003
0003
0003
ENDCHAR
STARTCHAR 00AD
ENCODING 173
SWIDTH 687 0
DWIDTH 22 0
BBX 17 1 2 10
BITMAP
FFFF80
ENDCHAR
STARTCHAR 00AE
ENCODING 174
SWIDTH 1000 0
DWIDTH 32 0
BBX 26 26 3 -1
BITMAP
007F0000
01C0E000
06001800
0C000C00
18000600
33FF8300
20E1C100
60C06180
40C06080
C0C060C0
C0C060C0
80C0E040
80FF8040
80FE0040
80C38040
C0C180C0
C0C0C0C0
40C0C080
60C06180
20E07100
33F87B00
18000600
0C000C00
06001800
0180E000
007F8000
ENDCHAR
STARTCHAR 00AF
ENCODING 175
SWIDTH 500 0
DWIDTH 16 0
BBX 8 1 4 20
BITMAP
FF
ENDCHAR
STARTCHAR 00B0
ENCODING 176
SWIDTH 312 0
DWIDTH 10 0
BBX 7 7 1 20
BITMAP
38
44
42
82
42
46
3C
ENDCHAR
STARTCHAR 00B1
ENCODING 177
SWIDTH 687 0
DWIDTH 22 0
BBX 17 18 2 2
BITMAP
00C000
00C000
00C000
00C000
00C000
00C000
FFFF80
00C000
00C000
00C000
00C000
00C000
00C000
00C000
00C000
000000
000000
FFFF80
ENDCHAR
STARTCHAR 00B2
ENCODING 178
SWIDTH 375 0
DWIDTH 12 0
BBX 8 11 2 12
BITMAP
7C
C6
C3
C3
06
0C
18
20
41
83
FF
ENDCHAR
STARTCHAR 00B3
ENCODING 179
SWIDTH 375 0
DWIDTH 12 0
BBX 8 12 2 11
BITMAP
3C
43
C3
C3
02
1C
06
03
C1
C3
C3
7C
ENDCHAR
STARTCHAR 00B4
ENCODING 180
SWIDTH 500 0
DWIDTH 16 0
BBX 5 5 7 19
BITMAP
10
38
70
60
80
ENDCHAR
STARTCHAR 00B6
ENCODING 182
SWIDTH 1000 0
DWIDTH 32 0
BBX 13 28 8 -1
BITMAP
1FF8
3E18
7E18
FE18
FE18
FE18
FE18
FE18
7E18
3E18
0E18
0218
0218
0218
0218
0218
0218
0218
0218
0218
0218
0218
0218
0218
0218
0218
0218
0218
ENDCHAR
STARTCHAR 00B7
ENCODING 183
SWIDTH 250 0
DWIDTH 8 0
BBX 4 3 2 8
BITMAP
60
F0
60
ENDCHAR
STARTCHAR 00B8
ENCODING 184
SWIDTH 500 0
DWIDTH 16 0
BBX 6 7 5 -7
BITMAP
20
60
78
0C
0C
0C
F8
ENDCHAR
STARTCHAR 00B9
ENCODING 185
SWIDTH 375 0
DWIDTH 12 0
BBX 6 12 3 11
BITMAP
10
F0
30
30
30
30
30
30
30
30
30
FC
ENDCHAR
STARTCHAR 00BA
ENCODING 186
SWIDTH 406 0
DWIDTH 13 0
BBX 10 13 2 10
BITMAP
3E00
6100
C180
C0C0
C0C0
C0C0
C0C0
C180
6100
3E00
0000
0000
FFC0
ENDCHAR
STARTCHAR 00BB
ENCODING 187
SWIDTH 500 0
DWIDTH 16 0
BBX 12 13 2 3
BITMAP
4100
6100
2080
30C0
1860
1860
1C70
1860
30C0
30C0
6180
4100
8200
ENDCHAR
STARTCHAR 00BC
ENCODING 188
SWIDTH 781 0
DWIDTH 25 0
BBX 20 23 3 0
BITMAP
700040
F000C0
300180
300300
300200
300600
300C00
300800
301800
303000
302000
FC40C0
00C1C0
0181C0
0102C0
0304C0
060CC0
0418C0
0810C0
183FF0
1000C0
2000C0
6003E0
ENDCHAR
STARTCHAR 00BD
ENCODING 189
SWIDTH 781 0
DWIDTH 25 0
BBX 20 23 3 0
BITMAP
700040
F000C0
300180
300300
300200
300600
300C00
300800
301800
303000
302000
FC43C0
00C460
018830
010C30
030C70
060060
0401C0
080300
180600
100C10
200830
600FF0
ENDCHAR
STARTCHAR 00BE
ENCODING 190
SWIDTH 781 0
DWIDTH 25 0
BBX 21 23 2 1
BITMAP
3C0060
430040
C300C0
C30180
020100
1C0300
060600
030400
C10C00
C31800
C31000
7C2060
0060E0
00C1E0
008160
018260
030660
020C60
040860
0C1FF8
080060
100060
3001F0
ENDCHAR
STARTCHAR 00BF
ENCODING 191
SWIDTH 500 0
DWIDTH 16 0
BBX 13 23 2 0
BITMAP
0300
0780
0780
0300
0000
0000
0100
0300
0300
0200
0600
0C00
3800
7000
6000
E030
C078
C038
C018
E010
6030
3860
0F80
ENDCHAR
STARTCHAR 00C0
ENCODING 192
SWIDTH 718 0
DWIDTH 23 0
BBX 23 29 0 0
BITMAP
018000
01C000
00E000
003000
000000
000000
001000
001800
003800
003C00
006C00
004C00
004E00
00C600
008700
018300
018300
010380
030180
0201C0
07FFC0
0600C0
0400E0
0C0060
080070
180030
180030
380038
FE01FE
ENDCHAR
STARTCHAR 00C1
ENCODING 193
SWIDTH 718 0
DWIDTH 23 0
BBX 23 29 0 0
BITMAP
000200
000700
000C00
001800
000000
000000
001000
001800
003800
003C00
006C00
004C00
004E00
00C600
008700
018300
018300
010380
030180
0201C0
07FFC0
0600C0
0400E0
0C0060
080070
180030
180030
380038
FE01FE
ENDCHAR
STARTCHAR 00C2
ENCODING 194
SWIDTH 718 0
DWIDTH 23 0
BBX 23 28 0 0
BITMAP
003800
006C00
00C300
000000
000000
001000
001800
003800
003800
002C00
006C00
004E00
00C600
008600
018300
018300
010380
030180
020180
07FFC0
0600C0
0400E0
0C0060
080060
180030
180030
380038
FE01FE
ENDCHAR
STARTCHAR 00C3
ENCODING 195
SWIDTH 718 0
DWIDTH 23 0
BBX 23 28 0 0
BITMAP
00F000
00F880
011F80
000700
000000
001000
001800
003800
003800
002C00
006C00
004E00
00C600
008600
018300
018300
010380
030180
020180
07FFC0
0600C0
0400E0
0C0060
080060
180030
180030
380038
FE01FE
ENDCHAR
STARTCHAR 00C4
ENCODING 196
SWIDTH 718 0
DWIDTH 23 0
BBX 23 28 0 0
BITMAP
018300
01C700
018300
000000
000000
001000
001800
003800
003800
002C00
006C00
004E00
00C600
008600
018300
018300
010380
030180
020180
07FFC0
0600C0
0400E0
0C0060
080060
180030
180030
380038
FE01FE
ENDCHAR
STARTCHAR 00C5
ENCODING 197
SWIDTH 718 0
DWIDTH 23 0
BBX 23 29 0 0
BITMAP
003800
004400
004400
004400
003800
000000
001000
001800
003800
003C00
006C00
004C00
004E00
00C600
008700
018300
018300
010380
030180
0201C0
07FFC0
0600C0
0400E0
0C0060
080070
180030
180030
380038
FE01FE
ENDCHAR
STARTCHAR 00C6
ENCODING 198
SWIDTH 968 0
DWIDTH 31 0
BBX 30 23 0 0
BITMAP
007FFFF8
000D8038
000D8018
00098008
00198008
00118008
00318000
00218100
00618100
00418300
00C1FF00
00FF8300
01818100
01818100
03018100
03018000
06018004
0601800C
0C018008
0C018008
18018018
3803C038
FF0FFFF8
ENDCHAR
STARTCHAR 00C7
ENCODING 199
SWIDTH 718 0
DWIDTH 23 0
BBX 20 32 2 -8
BITMAP
00FC00
070320
0C00A0
180060
380060
300020
600020
600020
E00000
E00000
E00000
E00000
E00000
E00000
E00000
E00000
E00010
600010
700030
380020
180060
1C00C0
070380
01FE00
006000
006000
00F000
003C00
000C00
000C00
001C00
01F800
ENDCHAR
STARTCHAR 00C8
ENCODING 200
SWIDTH 687 0
DWIDTH 22 0
BBX 18 29 2 0
BITMAP
020000
070000
018000
00C000
000000
000000
FFFFC0
3C03C0
1800C0
1800C0
180040
180040
180000
180800
181800
181800
1FF800
181800
181800
180800
180800
180000
180040
180040
180040
1800C0
1800C0
3C03C0
FFFFC0
ENDCHAR
STARTCHAR 00C9
ENCODING 201
SWIDTH 687 0
DWIDTH 22 0
BBX 18 29 2 0
BITMAP
000800
001C00
003000
006000
000000
000000
FFFFC0
3C03C0
1800C0
1800C0
180040
180040
180000
180800
181800
181800
1FF800
181800
181800
180800
180800
180000
180040
180040
180040
1800C0
1800C0
3C03C0
FFFFC0
ENDCHAR
STARTCHAR 00CA
ENCODING 202
SWIDTH 687 0
DWIDTH 22 0
BBX 18 29 2 0
BITMAP
00E000
01F000
031800
020400
000000
000000
FFFFC0
3C03C0
1800C0
1800C0
180040
180040
180000
180800
181800
181800
1FF800
181800
181800
180800
180800
180000
180040
180040
180040
1800C0
1800C0
3C03C0
FFFFC0
ENDCHAR
STARTCHAR 00CB
ENCODING 203
SWIDTH 687 0
DWIDTH 22 0
BBX 18 28 2 0
BITMAP
070C00
070E00
070C00
000000
000000
FFFFC0
3C03C0
1800C0
1800C0
180040
180040
180000
180800
181800
181800
1FF800
181800
181800
180800
180800
180000
180040
180040
180040
1800C0
1800C0
3C03C0
FFFFC0
ENDCHAR
STARTCHAR 00CC
ENCODING 204
SWIDTH 375 0
DWIDTH 12 0
BBX 10 29 1 0
BITMAP
6000
F000
3800
0C00
0000
0000
7FC0
1E00
0C00
0C00
0C00
0C00
0C00
0C00
0C00
0C00
0C00
0C00
0C00
0C00
0C00
0C00
0C00
0C00
0C00
0C00
0C00
1E00
7FC0
ENDCHAR
STARTCHAR 00CD
ENCODING 205
SWIDTH 375 0
DWIDTH 12 0
BBX 9 29 2 0
BITMAP
0300
0700
0E00
1800
1000
0000
FF80
3C00
1800
1800
1800
1800
1800
1800
1800
1800
1800
1800
1800
1800
1800
1800
1800
1800
1800
1800
1800
3C00
FF80
ENDCHAR
STARTCHAR 00CE
ENCODING 206
SWIDTH 375 0
DWIDTH 12 0
BBX 9 29 2 0
BITMAP
1800
3E00
6700
8100
0000
0000
FF80
3C00
1800
1800
1800
1800
1800
1800
1800
1800
1800
1800
1800
1800
1800
1800
1800
1800
1800
1800
1800
3C00
FF80
ENDCHAR
STARTCHAR 00CF
ENCODING 207
SWIDTH 375 0
DWIDTH 12 0
BBX 10 28 1 0
BITMAP
E1C0
E1C0
E1C0
0000
0000
7FC0
1E00
0C00
0C00
0C00
0C00
0C00
0C00
0C00
0C00
0C00
0C00
0C00
0C00
0C00
0C00
0C00
0C00
0C00
0C00
0C00
1E00
7FC0
ENDCHAR
STARTCHAR 00D0
ENCODING 208
SWIDTH 781 0
DWIDTH 25 0
BBX 21 23 2 0
BITMAP
FFFC00
3C0F00
1801C0
1800E0
180060
180030
180038
180038
180018
180018
180018
FFE018
180018
180018
180038
180038
180038
180030
180060
1800E0
1801C0
3C0F00
FFFC00
ENDCHAR
STARTCHAR 00D1
ENCODING 209
SWIDTH 812 0
DWIDTH 26 0
BBX 24 28 1 0
BITMAP
00F080
01FF80
000F00
000000
000000
FC00FF
1E001C
1F0018
0B0018
098018
09C018
08E018
086018
087018
083818
081818
081C18
080E18
080618
080318
080398
0801D8
0800D8
0800F8
080078
180038
1C0038
FF0018
ENDCHAR
STARTCHAR 00D2
ENCODING 210
SWIDTH 812 0
DWIDTH 26 0
BBX 22 29 2 0
BITMAP
010000
038000
00E000
007000
000000
01FC00
070300
0E01C0
1C00E0
380070
300030
700038
600018
E00018
E0001C
E0001C
E0001C
E0001C
E0001C
E0001C
E00018
600018
600038
700030
300070
1800E0
0C01C0
070380
01FC00
ENDCHAR
STARTCHAR 00D3
ENCODING 211
SWIDTH 812 0
DWIDTH 26 0
BBX 22 29 2 0
BITMAP
000600
000E00
001C00
003000
002000
01FC00
070300
0E01C0
1C00E0
380070
300030
700038
600018
E00018
E0001C
E0001C
E0001C
E0001C
E0001C
E0001C
E00018
600018
600038
700030
300070
1800E0
0C01C0
070380
01FC00
ENDCHAR
STARTCHAR 00D4
ENCODING 212
SWIDTH 812 0
DWIDTH 26 0
BBX 22 29 2 0
BITMAP
003000
00F800
01CC00
010200
000000
01FC00
070300
0E01C0
1C00E0
380070
300030
700038
600018
E00018
E0001C
E0001C
E0001C
E0001C
E0001C
E0001C
E00018
600018
600038
700030
300070
1800E0
0C01C0
070380
01FC00
ENDCHAR
STARTCHAR 00D5
ENCODING 213
SWIDTH 812 0
DWIDTH 26 0
BBX 22 28 2 0
BITMAP
01E100
03FF00
001E00
000000
01FC00
070300
0E01C0
1C00E0
380070
300030
700038
600018
E00018
E0001C
E0001C
E0001C
E0001C
E0001C
E0001C
E00018
600018
600038
700030
300070
1800E0
0C01C0
070380
01FC00
ENDCHAR
STARTCHAR 00D6
ENCODING 214
SWIDTH 812 0
DWIDTH 26 0
BBX 22 28 2 0
BITMAP
038600
038700
038700
000000
01FC00
070300
0E01C0
1C00E0
380070
300030
700038
600018
E00018
E0001C
E0001C
E0001C
E0001C
E0001C
E0001C
E00018
600018
600038
700030
300070
1800E0
0C01C0
070380
01FC00
ENDCHAR
STARTCHAR 00D7
ENCODING 215
SWIDTH 687 0
DWIDTH 22 0
BBX 12 13 5 4
BITMAP
8010
C030
6060
30C0
1980
0F00
0600
0F00
1980
30C0
6060
C030
8010
ENDCHAR
STARTCHAR 00D8
ENCODING 216
SWIDTH 812 0
DWIDTH 26 0
BBX 22 24 2 -1
BITMAP
00FC00
070718
0C01B0
1800E0
3800E0
3000B0
7001B8
600338
E00618
E00C1C
E0081C
E0101C
E0301C
E0601C
E0C01C
E18018
E10018
630038
760030
3C0070
3800E0
1C01C0
3F0380
61FC00
ENDCHAR
STARTCHAR 00D9
ENCODING 217
SWIDTH 781 0
DWIDTH 25 0
BBX 24 29 1 0
BITMAP
00C000
00E000
007000
001800
000800
000000
FF80FF
3C0018
180018
180018
180018
180018
180018
180018
180018
180018
180018
180018
180018
180018
180018
180018
1C0010
1C0030
0C0030
0E0060
0781E0
03FFC0
00FF00
ENDCHAR
STARTCHAR 00DA
ENCODING 218
SWIDTH 781 0
DWIDTH 25 0
BBX 24 29 1 0
BITMAP
000300
000780
000E00
001800
000000
000000
FF80FF
3C0018
180018
180018
180018
180018
180018
180018
180018
180018
180018
180018
180018
180018
180018
180018
1C0010
1C0030
0C0030
0E0060
0781E0
03FFC0
00FF00
ENDCHAR
STARTCHAR 00DB
ENCODING 219
SWIDTH 781 0
DWIDTH 25 0
BBX 24 29 1 0
BITMAP
001C00
003E00
006300
008100
000000
000000
FF80FF
3C0018
180018
180018
180018
180018
180018
180018
180018
180018
180018
180018
180018
180018
180018
180018
1C0010
1C0030
0C0030
0E0060
0781E0
03FFC0
00FF00
ENDCHAR
STARTCHAR 00DC
ENCODING 220
SWIDTH 781 0
DWIDTH 25 0
BBX 24 28 1 0
BITMAP
00C380
01C380
00C380
000000
000000
FF80FF
3C0018
180018
180018
180018
180018
180018
180018
180018
180018
180018
180018
180018
180018
180018
180018
1C0010
1C0030
0C0030
0E0060
0781E0
03FFC0
00FF00
ENDCHAR
STARTCHAR 00DD
ENCODING 221
SWIDTH 687 0
DWIDTH 22 0
BBX 22 29 0 0
BITMAP
000300
000700
000E00
001800
000000
000000
FF83FC
3C0070
1C0060
0C00C0
0E00C0
070180
030100
038300
018200
01C600
00CC00
006800
007800
003000
003000
003000
003000
003000
003000
003000
003000
007800
01FF00
ENDCHAR
STARTCHAR 00DE
ENCODING 222
SWIDTH 687 0
DWIDTH 22 0
BBX 19 23 2 0
BITMAP
FF0000
3C0000
180000
180000
1F0000
1FFE00
180700
180180
1801C0
1800E0
1800E0
1800E0
1800E0
1800C0
1801C0
180180
180700
1FFC00
180000
180000
180000
3C0000
FF0000
ENDCHAR
STARTCHAR 00DF
ENCODING 223
SWIDTH 562 0
DWIDTH 18 0
BBX 15 23 1 0
BITMAP
07E0
0C38
1818
3818
301C
301C
3018
3018
3030
3060
3180
3070
3018
300C
300E
3006
3006
3006
3006
3006
318C
399C
FEF0
ENDCHAR
STARTCHAR 00E0
ENCODING 224
SWIDTH 531 0
DWIDTH 17 0
BBX 15 23 2 1
BITMAP
1800
0C00
0600
0100
0000
0000
0000
0F80
30E0
6060
7030
6030
0030
03F0
1E30
7030
E030
C030
C030
C030
C070
61B2
3F1C
ENDCHAR
STARTCHAR 00E1
ENCODING 225
SWIDTH 531 0
DWIDTH 17 0
BBX 15 23 2 1
BITMAP
00C0
01C0
0300
0400
0000
0000
0000
0F80
30E0
6060
7030
6030
0030
03F0
1E30
7030
E030
C030
C030
C030
C070
61B2
3F1C
ENDCHAR
STARTCHAR 00E2
ENCODING 226
SWIDTH 531 0
DWIDTH 17 0
BBX 15 23 2 0
BITMAP
0200
0700
0DC0
1040
0000
0000
0000
0F80
30E0
6060
7030
6030
0030
03F0
1E30
7030
E030
C030
C030
C030
C070
61B2
3F1C
ENDCHAR
STARTCHAR 00E3
ENCODING 227
SWIDTH 531 0
DWIDTH 17 0
BBX 15 23 2 0
BITMAP
1C00
3320
21C0
0000
0000
0000
0000
0F80
30E0
6060
7030
6030
0030
03F0
1E30
7030
E030
C030
C030
C030
C070
61B2
3F1C
ENDCHAR
STARTCHAR 00E4
ENCODING 228
SWIDTH 531 0
DWIDTH 17 0
BBX 15 23 2 0
BITMAP
18C0
38E0
18C0
0000
0000
0000
0000
0F80
30E0
6060
7030
6030
0030
03F0
1E30
7030
E030
C030
C030
C030
C070
61B2
3F1C
ENDCHAR
STARTCHAR 00E5
ENCODING 229
SWIDTH 531 0
DWIDTH 17 0
BBX 14 23 2 0
BITMAP
0700
0880
0880
0700
0000
0000
0000
0F80
30E0
6060
7030
6030
0030
03F0
1E30
7030
E030
C030
C030
C030
C070
61B0
3F1C
ENDCHAR
STARTCHAR 00E6
ENCODING 230
SWIDTH 843 0
DWIDTH 27 0
BBX 24 16 2 0
BITMAP
0F83F0
30EE18
60780C
703806
603006
003006
07FFFF
383000
603000
C03000
C03000
C03802
C03802
E04C06
618E0C
3F03F0
ENDCHAR
STARTCHAR 00E7
ENCODING 231
SWIDTH 531 0
DWIDTH 17 0
BBX 13 23 2 -7
BITMAP
0FC0
1830
3018
6038
E018
C000
C000
C000
C000
C000
E000
E000
7008
3838
1FF0
07C0
0300
0200
07C0
0060
0060
00C0
0F80
ENDCHAR
STARTCHAR 00E8
ENCODING 232
SWIDTH 562 0
DWIDTH 18 0
BBX 14 23 2 1
BITMAP
0C00
0E00
0300
0180
0000
0000
0000
0FC0
1870
3018
6018
E00C
C00C
FFFC
C000
C000
C000
C000
E000
600C
3008
1C30
07C0
ENDCHAR
STARTCHAR 00E9
ENCODING 233
SWIDTH 562 0
DWIDTH 18 0
BBX 14 23 2 1
BITMAP
0060
00C0
0180
0200
0000
0000
0000
0FC0
1870
3018
6018
E00C
C00C
FFFC
C000
C000
C000
C000
E000
600C
3008
1C30
07C0
ENDCHAR
STARTCHAR 00EA
ENCODING 234
SWIDTH 562 0
DWIDTH 18 0
BBX 14 23 2 0
BITMAP
0300
0780
0CC0
1820
0000
0000
0000
0FC0
1870
3018
6018
E00C
C00C
FFFC
C000
C000
C000
C000
E000
600C
3008
1C30
07C0
ENDCHAR
STARTCHAR 00EB
ENCODING 235
SWIDTH 562 0
DWIDTH 18 0
BBX 14 23 2 0
BITMAP
1C60
1C70
1C60
0000
0000
0000
0000
0FC0
1870
3018
6018
E00C
C00C
FFFC
C000
C000
C000
C000
E000
600C
3008
1C30
07C0
ENDCHAR
STARTCHAR 00EC
ENCODING 236
SWIDTH 312 0
DWIDTH 10 0
BBX 8 23 1 1
BITMAP
40
E0
30
08
00
00
00
F8
18
18
18
18
18
18
18
18
18
18
18
18
18
18
FF
ENDCHAR
STARTCHAR 00ED
ENCODING 237
SWIDTH 312 0
DWIDTH 10 0
BBX 8 23 1 0
BITMAP
06
0E
1C
30
00
00
00
F8
18
18
18
18
18
18
18
18
18
18
18
18
18
18
FF
ENDCHAR
STARTCHAR 00EE
ENCODING 238
SWIDTH 312 0
DWIDTH 10 0
BBX 8 22 1 0
BITMAP
38
7C
C2
80
00
00
F8
18
18
18
18
18
18
18
18
18
18
18
18
18
18
FF
ENDCHAR
STARTCHAR 00EF
ENCODING 239
SWIDTH 312 0
DWIDTH 10 0
BBX 8 23 1 0
BITMAP
C7
C7
C7
00
00
00
00
F8
18
18
18
18
18
18
18
18
18
18
18
18
18
18
FF
ENDCHAR
STARTCHAR 00F0
ENCODING 240
SWIDTH 562 0
DWIDTH 18 0
BBX 15 23 2 1
BITMAP
3CE0
0780
0780
0CC0
3060
0030
0038
0FF8
187C
301C
601C
E00E
C00E
C00E
C006
C006
C00E
C00C
E00C
601C
3018
1870
0FC0
ENDCHAR
STARTCHAR 00F1
ENCODING 241
SWIDTH 625 0
DWIDTH 20 0
BBX 18 23 1 0
BITMAP
038000
04C400
046C00
003800
000000
000000
000000
F8F800
1B0C00
1E0600
1C0600
180300
180300
180300
180300
180300
180300
180300
180300
180300
180300
1C0700
FF1FC0
ENDCHAR
STARTCHAR 00F2
ENCODING 242
SWIDTH 593 0
DWIDTH 19 0
BBX 15 23 2 1
BITMAP
0C00
0E00
0300
0080
0000
0000
0000
07C0
1830
3018
600C
E00C
E00E
C006
C006
C006
C006
E00E
600C
600C
3018
1830
07C0
ENDCHAR
STARTCHAR 00F3
ENCODING 243
SWIDTH 593 0
DWIDTH 19 0
BBX 15 23 2 1
BITMAP
0060
00C0
0180
0200
0000
0000
0000
07C0
1830
3018
600C
E00C
E00E
C006
C006
C006
C006
E00E
600C
600C
3018
1830
07C0
ENDCHAR
STARTCHAR 00F4
ENCODING 244
SWIDTH 593 0
DWIDTH 19 0
BBX 15 23 2 0
BITMAP
0100
0780
0CC0
0820
0000
0000
0000
07C0
1830
3018
600C
E00C
E00E
C006
C006
C006
C006
E00E
600C
600C
3018
1830
07C0
ENDCHAR
STARTCHAR 00F5
ENCODING 245
SWIDTH 593 0
DWIDTH 19 0
BBX 15 23 2 0
BITMAP
0E00
1990
10E0
0000
0000
0000
0000
07C0
1830
3018
600C
E00C
E00E
C006
C006
C006
C006
E00E
600C
600C
3018
1830
07C0
ENDCHAR
STARTCHAR 00F6
ENCODING 246
SWIDTH 593 0
DWIDTH 19 0
BBX 15 23 2 0
BITMAP
1C60
1C70
1C60
0000
0000
0000
0000
07C0
1830
3018
600C
E00C
E00E
C006
C006
C006
C006
E00E
600C
600C
3018
1830
07C0
ENDCHAR
STARTCHAR 00F7
ENCODING 247
SWIDTH 687 0
DWIDTH 22 0
BBX 17 14 2 3
BITMAP
01C000
01E000
01E000
01C000
000000
000000
FFFF80
000000
000000
000000
01C000
01E000
01E000
01C000
ENDCHAR
STARTCHAR 00F8
ENCODING 248
SWIDTH 593 0
DWIDTH 19 0
BBX 15 16 2 1
BITMAP
07EC
1838
3018
602C
606C
E0CE
C186
C106
C206
C606
CC0E
F80C
700C
3018
7830
CFC0
ENDCHAR
STARTCHAR 00F9
ENCODING 249
SWIDTH 593 0
DWIDTH 19 0
BBX 18 23 1 1
BITMAP
060000
070000
018000
00C000
000000
000000
000000
F83E00
380600
380600
380600
380600
380600
380600
380600
380600
380600
380600
380600
180E00
180E00
0C3700
07C7C0
ENDCHAR
STARTCHAR 00FA
ENCODING 250
SWIDTH 593 0
DWIDTH 19 0
BBX 18 23 1 1
BITMAP
003000
007000
00C000
018000
000000
000000
000000
F83E00
380600
380600
380600
380600
380600
380600
380600
380600
380600
380600
380600
180E00
180E00
0C3700
07C7C0
ENDCHAR
STARTCHAR 00FB
ENCODING 251
SWIDTH 593 0
DWIDTH 19 0
BBX 18 22 1 0
BITMAP
01C000
036000
063000
000000
000000
000000
F83E00
380600
380600
380600
380600
380600
380600
380600
380600
380600
380600
380600
180E00
180E00
0C3700
07C7C0
ENDCHAR
STARTCHAR 00FC
ENCODING 252
SWIDTH 593 0
DWIDTH 19 0
BBX 18 23 1 0
BITMAP
0E3000
0E3800
0E3000
000000
000000
000000
000000
F83E00
380600
380600
380600
380600
380600
380600
380600
380600
380600
380600
380600
180E00
180E00
0C3700
07C7C0
ENDCHAR
STARTCHAR 00FD
ENCODING 253
SWIDTH 531 0
DWIDTH 17 0
BBX 17 29 0 -5
BITMAP
003800
007000
00E000
008000
000000
000000
000000
FE1F80
380600
380600
180400
1C0400
0C0800
0C0800
061800
061000
071000
032000
032000
01A000
01C000
00C000
008000
008000
008000
010000
190000
3A0000
1C0000
ENDCHAR
STARTCHAR 00FE
ENCODING 254
SWIDTH 593 0
DWIDTH 19 0
BBX 17 29 0 -5
BITMAP
F80000
180000
180000
180000
180000
180000
180000
18F800
1B0E00
1E0700
1C0300
1C0180
180180
180180
180180
180180
180180
180180
180180
1C0300
1E0300
1B0E00
18F800
180000
180000
180000
180000
1C0000
FF0000
ENDCHAR
STARTCHAR 00FF
ENCODING 255
SWIDTH 531 0
DWIDTH 17 0
BBX 17 29 0 -6
BITMAP
061800
073800
061800
000000
000000
000000
000000
FE1F80
380600
380600
180400
1C0400
0C0800
0C0800
061800
061000
071000
032000
032000
01A000
01C000
00C000
008000
008000
008000
010000
190000
3A0000
1C0000
ENDCHAR
STARTCHAR 0100
ENCODING 256
SWIDTH 718 0
DWIDTH 23 0
BBX 23 28 0 0
BITMAP
00FF00
000000
000000
000000
001000
001800
003800
003800
003C00
006C00
004E00
00C600
00C600
008700
018300
018300
030380
030180
0201C0
07FFC0
0600C0
0400E0
0C0060
080070
180030
180030
380038
FE01FE
ENDCHAR
STARTCHAR 0101
ENCODING 257
SWIDTH 531 0
DWIDTH 17 0
BBX 15 21 2 0
BITMAP
1FE0
0000
0000
0000
0000
0F80
30E0
6060
7030
6030
0030
07F0
3E30
7030
E030
C030
C030
C030
E070
61B2
3E1C
ENDCHAR
STARTCHAR 0102
ENCODING 258
SWIDTH 718 0
DWIDTH 23 0
BBX 23 28 0 0
BITMAP
018300
00FE00
007C00
000000
000000
001000
001800
003800
003800
002C00
006C00
004E00
00C600
008600
018300
018300
010380
030180
020180
07FFC0
0600C0
0400E0
0C0060
080060
180030
180030
380038
FE01FE
ENDCHAR
STARTCHAR 0103
ENCODING 259
SWIDTH 531 0
DWIDTH 17 0
BBX 15 23 2 0
BITMAP
1020
1840
0F80
0000
0000
0000
0000
0F80
30E0
6060
7030
6030
0030
07F0
3E30
7030
E030
C030
C030
C030
E070
61B2
3E1C
ENDCHAR
STARTCHAR 0104
ENCODING 260
SWIDTH 718 0
DWIDTH 23 0
BBX 23 30 0 -7
BITMAP
001000
001800
003800
003800
002C00
006C00
004E00
00C600
008600
018300
018300
010380
030180
020180
07FFC0
0600C0
0400E0
0C0060
080060
180030
180030
380038
FE01FE
000030
000060
0000C0
000180
000180
00018C
0000F0
ENDCHAR
STARTCHAR 0105
ENCODING 261
SWIDTH 531 0
DWIDTH 17 0
BBX 15 23 2 -7
BITMAP
0F80
30E0
6060
7030
6030
0030
03F0
1E30
7030
E030
C030
C030
C030
C070
61B2
3F14
0018
0030
0060
00C0
00C0
00C6
0078
ENDCHAR
STARTCHAR 0106
ENCODING 262
SWIDTH 718 0
DWIDTH 23 0
BBX 20 29 2 0
BITMAP
000C00
001E00
003800
006000
000000
01FC00
070320
0C00A0
180060
300060
300020
600020
600020
E00000
E00000
E00000
E00000
E00000
E00000
E00000
E00000
600010
700010
780030
380060
1C00C0
0F0380
07FF00
01FC00
ENDCHAR
STARTCHAR 0107
ENCODING 263
SWIDTH 531 0
DWIDTH 17 0
BBX 14 23 2 1
BITMAP
0060
00C0
0180
0200
0000
0000
0000
0FC0
1830
3018
6038
E018
E000
C000
C000
C000
C000
E000
E000
700C
3838
1FF0
07C0
ENDCHAR
STARTCHAR 0108
ENCODING 264
SWIDTH 718 0
DWIDTH 23 0
BBX 20 29 2 0
BITMAP
007000
00F800
018C00
010200
000000
01FC00
070320
0C00A0
180060
300060
300020
600020
600020
E00000
E00000
E00000
E00000
E00000
E00000
E00000
E00000
600010
700010
780030
380060
1C00C0
0F0380
07FF00
01FC00
ENDCHAR
STARTCHAR 0109
ENCODING 265
SWIDTH 531 0
DWIDTH 17 0
BBX 14 23 2 0
BITMAP
0300
0780
0CC0
0820
0000
0000
0000
0FC0
1830
3018
6038
E018
E000
C000
C000
C000
C000
E000
E000
700C
3838
1FF0
07C0
ENDCHAR
STARTCHAR 010C
ENCODING 268
SWIDTH 718 0
DWIDTH 23 0
BBX 20 29 2 0
BITMAP
010200
018E00
00F800
003000
000000
01FC00
070320
0C00A0
180060
300060
300020
600020
600020
E00000
E00000
E00000
E00000
E00000
E00000
E00000
E00000
600010
700010
780030
380060
1C00C0
0F0380
07FF00
01FC00
ENDCHAR
STARTCHAR 010D
ENCODING 269
SWIDTH 531 0
DWIDTH 17 0
BBX 14 23 2 0
BITMAP
1820
0EC0
0780
0300
0000
0000
0000
0FC0
1830
3018
6038
E018
E000
C000
C000
C000
C000
E000
E000
700C
3838
1FF0
07C0
ENDCHAR
STARTCHAR 010E
ENCODING 270
SWIDTH 781 0
DWIDTH 25 0
BBX 21 29 2 0
BITMAP
020400
018C00
00F800
007000
000000
000000
FFFC00
3C0700
1801C0
1800E0
180060
180030
180038
180038
180018
180018
180018
180018
180018
180018
180038
180038
180038
180030
180060
1800E0
1801C0
3C0F00
FFFC00
ENDCHAR
STARTCHAR 010F
ENCODING 271
SWIDTH 625 0
DWIDTH 20 0
BBX 19 24 2 0
BITMAP
000060
007CE0
000CE0
000C20
000C60
000CC0
000C00
000C00
0F8C00
386C00
301C00
601C00
E00C00
C00C00
C00C00
C00C00
C00C00
C00C00
C00C00
E00C00
601C00
703C00
386C00
0F8F80
ENDCHAR
STARTCHAR 0111
ENCODING 273
SWIDTH 625 0
DWIDTH 20 0
BBX 17 23 2 0
BITMAP
007C00
003C00
000C00
000C00
01FF00
000C00
000C00
0F8C00
386C00
301C00
601C00
E00C00
C00C00
C00C00
C00C00
C00C00
C00C00
C00C00
E00C00
601C00
703C00
386C00
0F8F80
ENDCHAR
STARTCHAR 0112
ENCODING 274
SWIDTH 687 0
DWIDTH 22 0
BBX 18 28 2 0
BITMAP
03FC00
000000
000000
000000
000000
FFFFC0
3C03C0
1800C0
1800C0
180040
180040
180000
180800
181800
181800
1FF800
181800
181800
180800
180800
180000
180040
180040
180040
1800C0
1800C0
3C03C0
FFFFC0
ENDCHAR
STARTCHAR 0113
ENCODING 275
SWIDTH 562 0
DWIDTH 18 0
BBX 14 21 2 0
BITMAP
1FE0
0000
0000
0000
0000
0FC0
1870
3018
6018
E00C
C00C
FFFC
C000
C000
C000
C000
E004
600C
3008
1C30
07C0
ENDCHAR
STARTCHAR 0118
ENCODING 280
SWIDTH 687 0
DWIDTH 22 0
BBX 18 30 2 -7
BITMAP
FFFFC0
3C03C0
1800C0
1800C0
180040
180040
180000
180800
181800
181800
1FF800
181800
181800
180800
180800
180000
180040
180040
180040
1800C0
1800C0
3C03C0
FFFFC0
00C000
018000
030000
070000
060000
063000
03E000
ENDCHAR
STARTCHAR 0119
ENCODING 281
SWIDTH 562 0
DWIDTH 18 0
BBX 14 23 2 -7
BITMAP
0FC0
1870
3018
6018
E00C
C00C
FFFC
C000
C000
C000
E000
6004
700C
3C38
1FF0
0380
0300
0600
0E00
0C00
0C00
0C40
0780
ENDCHAR
STARTCHAR 011A
ENCODING 282
SWIDTH 687 0
DWIDTH 22 0
BBX 18 29 2 0
BITMAP
020400
031800
01F000
00E000
000000
000000
FFFFC0
3C03C0
1800C0
1800C0
180040
180040
180000
180800
181800
181800
1FF800
181800
181800
180800
180800
180000
180040
180040
180040
1800C0
1800C0
3C03C0
FFFFC0
ENDCHAR
STARTCHAR 011B
ENCODING 283
SWIDTH 562 0
DWIDTH 18 0
BBX 14 23 2 0
BITMAP
0820
06C0
0380
0100
0000
0000
0000
0FC0
1870
3018
6018
E00C
C00C
FFFC
C000
C000
C000
C000
E004
600C
3008
1C30
07C0
ENDCHAR
STARTCHAR 011C
ENCODING 284
SWIDTH 781 0
DWIDTH 25 0
BBX 22 29 2 0
BITMAP
007000
00F800
018C00
010200
000000
00FC00
070320
0C00A0
180060
380060
300020
600020
600000
E00000
E00000
E00000
E00000
E00000
E003FC
E00070
E00070
600060
700060
700060
380060
180060
0C00E0
0703A0
01FC00
ENDCHAR
STARTCHAR 011D
ENCODING 285
SWIDTH 562 0
DWIDTH 18 0
BBX 15 29 2 -6
BITMAP
0300
0780
0CC0
1060
0000
000E
003E
0FE0
3070
6030
E018
C018
C018
C018
6030
3060
3FC0
6000
6000
3800
1FE0
3038
C00C
C00C
C00C
C00C
C01C
7038
1FC0
ENDCHAR
STARTCHAR 0124
ENCODING 292
SWIDTH 812 0
DWIDTH 26 0
BBX 23 29 2 0
BITMAP
003000
007C00
00C600
010200
000000
000000
FF03FE
3C00F0
180060
180060
180060
180060
180060
180060
180060
180060
1FFFE0
180060
180060
180060
180060
180060
180060
180060
180060
180060
180060
3C00F0
FF03FE
ENDCHAR
STARTCHAR 0125
ENCODING 293
SWIDTH 625 0
DWIDTH 20 0
BBX 18 28 1 0
BITMAP
1C0000
360000
630000
000000
000000
F80000
380000
180000
180000
180000
180000
180000
18F800
1B0C00
1C0600
180600
180600
180600
180600
180600
180600
180600
180600
180600
180600
180600
380700
FF3FC0
ENDCHAR
STARTCHAR 0127
ENCODING 295
SWIDTH 625 0
DWIDTH 20 0
BBX 18 23 1 0
BITMAP
F80000
780000
180000
180000
FF8000
180000
180000
18F800
1B0C00
1C0600
180600
180600
180600
180600
180600
180600
180600
180600
180600
180600
180600
380700
FF3FC0
ENDCHAR
STARTCHAR 012A
ENCODING 298
SWIDTH 375 0
DWIDTH 12 0
BBX 9 28 2 0
BITMAP
FF00
0000
0000
0000
0000
FF80
3C00
1800
1800
1800
1800
1800
1800
1800
1800
1800
1800
1800
1800
1800
1800
1800
1800
1800
1800
1800
3C00
FF80
ENDCHAR
STARTCHAR 012B
ENCODING 299
SWIDTH 312 0
DWIDTH 10 0
BBX 9 21 0 0
BITMAP
FF80
0000
0000
0000
0000
7C00
1C00
0C00
0C00
0C00
0C00
0C00
0C00
0C00
0C00
0C00
0C00
0C00
0C00
0C00
7F80
ENDCHAR
STARTCHAR 0134
ENCODING 308
SWIDTH 468 0
DWIDTH 15 0
BBX 14 29 0 0
BITMAP
00E0
01F0
0318
0408
0000
0000
07FC
00E0
00E0
00E0
00E0
00E0
00E0
00E0
00E0
00E0
00E0
00E0
00E0
00E0
00E0
00E0
00E0
00E0
60E0
F0C0
E0C0
6180
1F00
ENDCHAR
STARTCHAR 0135
ENCODING 309
SWIDTH 312 0
DWIDTH 10 0
BBX 10 28 -2 -6
BITMAP
0700
0D80
1840
0000
0000
0000
1F00
0700
0300
0300
0300
0300
0300
0300
0300
0300
0300
0300
0300
0300
0300
0300
0300
0300
6300
E300
6600
3C00
ENDCHAR
STARTCHAR 0139
ENCODING 313
SWIDTH 593 0
DWIDTH 19 0
BBX 17 29 2 0
BITMAP
010000
038000
060000
1C0000
000000
000000
FF8000
3C0000
180000
180000
180000
180000
180000
180000
180000
180000
180000
180000
180000
180000
180000
180000
180080
180080
180080
180080
180180
3C0780
FFFF80
ENDCHAR
STARTCHAR 013A
ENCODING 314
SWIDTH 281 0
DWIDTH 9 0
BBX 8 29 1 0
BITMAP
06
0E
18
30
00
00
F8
38
18
18
18
18
18
18
18
18
18
18
18
18
18
18
18
18
18
18
18
38
FF
ENDCHAR
STARTCHAR 013D
ENCODING 317
SWIDTH 593 0
DWIDTH 19 0
BBX 17 24 2 0
BITMAP
001C00
FF9C00
3C1C00
180400
180C00
183800
180000
180000
180000
180000
180000
180000
180000
180000
180000
180000
180000
180080
180080
180080
180080
180180
3C0780
FFFF80
ENDCHAR
STARTCHAR 013E
ENCODING 318
SWIDTH 312 0
DWIDTH 10 0
BBX 10 24 1 0
BITMAP
01C0
F9C0
39C0
1840
18C0
1980
1800
1800
1800
1800
1800
1800
1800
1800
1800
1800
1800
1800
1800
1800
1800
1800
3800
FF00
ENDCHAR
STARTCHAR 0141
ENCODING 321
SWIDTH 593 0
DWIDTH 19 0
BBX 17 23 2 0
BITMAP
FF8000
3C0000
180000
180000
180000
180000
180000
18C000
1B0000
1E0000
1C0000
380000
780000
D80000
180000
180000
180080
180080
180080
180080
180180
3C0780
FFFF80
ENDCHAR
STARTCHAR 0142
ENCODING 322
SWIDTH 281 0
DWIDTH 9 0
BBX 8 24 1 0
BITMAP
08
F8
38
18
18
18
18
18
19
1B
1E
18
38
D8
98
18
18
18
18
18
18
18
38
FF
ENDCHAR
STARTCHAR 0143
ENCODING 323
SWIDTH 812 0
DWIDTH 26 0
BBX 24 29 1 0
BITMAP
000300
000700
000E00
001800
001000
000000
FC00FF
1E001C
1F0018
0B0018
098018
09C018
08E018
086018
087018
083818
081818
080C18
080E18
080618
080318
080398
0801D8
0800D8
0800F8
080078
180038
1C0018
FF0018
ENDCHAR
STARTCHAR 0144
ENCODING 324
SWIDTH 625 0
DWIDTH 20 0
BBX 18 23 1 1
BITMAP
001800
003800
006000
00C000
000000
000000
000000
F8F800
1B0C00
1E0600
1C0600
180300
180300
180300
180300
180300
180300
180300
180300
180300
180300
1C0700
FF1FC0
ENDCHAR
STARTCHAR 0147
ENCODING 327
SWIDTH 812 0
DWIDTH 26 0
BBX 24 29 1 0
BITMAP
008100
00E700
003E00
001800
000000
000000
FC00FF
1E001C
1F0018
0B0018
098018
09C018
08E018
086018
087018
083818
081818
080C18
080E18
080618
080318
080398
0801D8
0800D8
0800F8
080078
180038
1C0018
FF0018
ENDCHAR
STARTCHAR 0148
ENCODING 328
SWIDTH 625 0
DWIDTH 20 0
BBX 18 23 1 0
BITMAP
020800
01B000
00E000
004000
000000
000000
000000
F8F800
1B0C00
1E0600
1C0600
180300
180300
180300
180300
180300
180300
180300
180300
180300
180300
1C0700
FF1FC0
ENDCHAR
STARTCHAR 014B
ENCODING 331
SWIDTH 625 0
DWIDTH 20 0
BBX 16 22 1 -6
BITMAP
F8F8
1B0C
1E06
1C06
1803
1803
1803
1803
1803
1803
1803
1803
1803
1803
1C03
FF03
0003
0003
00C3
00E6
00E6
007C
ENDCHAR
STARTCHAR 014C
ENCODING 332
SWIDTH 812 0
DWIDTH 26 0
BBX 22 28 2 0
BITMAP
01FE00
000000
000000
000000
01FC00
070300
0E01C0
1C00E0
380070
300030
700038
600018
E00018
E0001C
E0001C
E0001C
E0001C
E0001C
E0001C
E00018
600018
600038
700030
300070
1800E0
0C01C0
070380
01FC00
ENDCHAR
STARTCHAR 014D
ENCODING 333
SWIDTH 593 0
DWIDTH 19 0
BBX 15 21 2 0
BITMAP
1FE0
0000
0000
0000
0000
07C0
1830
3018
600C
E00C
C00E
C006
C006
C006
C006
E00E
E00C
600C
3018
1830
0FC0
ENDCHAR
STARTCHAR 0150
ENCODING 336
SWIDTH 812 0
DWIDTH 26 0
BBX 22 29 2 0
BITMAP
002300
006700
00C400
008800
008000
01FC00
070300
0E01C0
1C00E0
380070
300030
700038
600018
E00018
E0001C
E0001C
E0001C
E0001C
E0001C
E0001C
E00018
600018
600038
700030
300070
1800E0
0C01C0
070380
01FC00
ENDCHAR
STARTCHAR 0151
ENCODING 337
SWIDTH 593 0
DWIDTH 19 0
BBX 15 24 2 0
BITMAP
0010
0318
0230
0660
0440
0000
0000
0000
07C0
1830
3018
600C
E00C
C00E
C006
C006
C006
C006
E00E
E00C
600C
3018
1830
0FC0
ENDCHAR
STARTCHAR 0152
ENCODING 338
SWIDTH 1031 0
DWIDTH 33 0
BBX 30 23 2 0
BITMAP
00FFFFF8
07038038
0C018018
18018008
30018008
70018008
60018000
E0018100
E0018100
E0018300
E001FF00
E0018300
E0018100
E0018100
E0018100
E0018000
60018004
70018008
30018008
18018008
0C018018
0783C078
00FFFFF8
ENDCHAR
STARTCHAR 0153
ENCODING 339
SWIDTH 906 0
DWIDTH 29 0
BBX 25 16 2 0
BITMAP
0FC0FC00
18730600
303E0300
601C0180
E01C0180
C00C0180
C00FFF80
C00C0000
C00C0000
C00C0000
C00C0000
E01C0080
601E0080
703F0180
38738300
0FC0FC00
ENDCHAR
STARTCHAR 0154
ENCODING 340
SWIDTH 687 0
DWIDTH 22 0
BBX 21 29 2 0
BITMAP
001800
003800
007000
00C000
008000
000000
FFFC00
3C0F00
180380
180180
1801C0
1801C0
1801C0
180180
180180
180300
180E00
1FF000
187000
181C00
180C00
180E00
180600
180700
180380
180380
1801C0
3C01E0
FF00F8
ENDCHAR
STARTCHAR 0155
ENCODING 341
SWIDTH 406 0
DWIDTH 13 0
BBX 12 23 1 1
BITMAP
0180
0380
0600
0C00
0000
0000
0000
F8F0
1970
1A30
1C00
1C00
1800
1800
1800
1800
1800
1800
1800
1800
1800
1C00
FF00
ENDCHAR
STARTCHAR 0158
ENCODING 344
SWIDTH 687 0
DWIDTH 22 0
BBX 21 29 2 0
BITMAP
040800
031800
01F000
00E000
000000
000000
FFFC00
3C0F00
180380
180180
1801C0
1801C0
1801C0
180180
180180
180300
180E00
1FF000
187000
181C00
180C00
180E00
180600
180700
180380
180380
1801C0
3C01E0
FF00F8
ENDCHAR
STARTCHAR 0159
ENCODING 345
SWIDTH 406 0
DWIDTH 13 0
BBX 12 23 1 0
BITMAP
2080
1B00
0E00
0400
0000
0000
0000
F8F0
1970
1A30
1C00
1C00
1800
1800
1800
1800
1800
1800
1800
1800
1800
1C00
FF00
ENDCHAR
STARTCHAR 015A
ENCODING 346
SWIDTH 625 0
DWIDTH 20 0
BBX 16 29 2 0
BITMAP
0020
0070
01C0
0380
0000
0000
0FE2
183E
300E
6006
6006
E002
E000
7000
7800
3E00
1FC0
03F0
00F8
003C
000E
8006
8007
C007
C006
E006
F00C
9C18
87E0
ENDCHAR
STARTCHAR 015B
ENCODING 347
SWIDTH 468 0
DWIDTH 15 0
BBX 12 23 2 1
BITMAP
0180
0300
0600
0800
0000
0000
0000
1FE0
70E0
4060
C020
C020
E000
7800
3F00
07C0
00E0
8060
8030
C020
C060
F0E0
9F80
ENDCHAR
STARTCHAR 015C
ENCODING 348
SWIDTH 625 0
DWIDTH 20 0
BBX 16 29 2 0
BITMAP
0180
03C0
0660
0810
0000
0000
0FE2
183E
300E
6006
6006
E002
E000
7000
7800
3E00
1FC0
03F0
00F8
003C
000E
8006
8007
C007
C006
E006
F00C
9C18
87E0
ENDCHAR
STARTCHAR 015D
ENCODING 349
SWIDTH 468 0
DWIDTH 15 0
BBX 12 23 2 0
BITMAP
0600
0F00
1980
2080
0000
0000
0000
1FE0
70E0
4060
C020
C020
E000
7800
3F00
07C0
00E0
8060
8030
C020
C060
F0E0
9F80
ENDCHAR
STARTCHAR 015E
ENCODING 350
SWIDTH 625 0
DWIDTH 20 0
BBX 16 30 2 -7
BITMAP
0FE2
183E
300E
6006
6006
E002
E000
7000
7800
3E00
1FC0
03F0
00F8
003C
000E
8006
8007
C007
C006
E006
F00C
9C18
87E0
0000
0180
0380
0180
0080
0180
0300
ENDCHAR
STARTCHAR 015F
ENCODING 351
SWIDTH 468 0
DWIDTH 15 0
BBX 12 23 2 -7
BITMAP
1FE0
70E0
4060
C020
C020
E000
7800
3F00
07C0
00E0
8060
8030
C020
C060
F0E0
9F80
0000
0600
0700
0700
0300
0200
0C00
ENDCHAR
STARTCHAR 0160
ENCODING 352
SWIDTH 625 0
DWIDTH 20 0
BBX 16 29 2 0
BITMAP
0810
0C60
07C0
0380
0000
0000
0FE2
183E
300E
6006
6006
E002
E002
7000
7800
3E00
1FC0
03F0
00F8
003C
000E
8006
8007
C007
C006
E006
F00C
9818
87E0
ENDCHAR
STARTCHAR 0161
ENCODING 353
SWIDTH 468 0
DWIDTH 15 0
BBX 12 23 2 0
BITMAP
2080
3B00
0E00
0400
0000
0000
0000
1FE0
70E0
4060
C020
C020
E000
7800
3F00
07C0
00E0
8060
8030
C020
C060
F0C0
9F80
ENDCHAR
STARTCHAR 0162
ENCODING 354
SWIDTH 625 0
DWIDTH 20 0
BBX 20 30 0 -7
BITMAP
7FFFF0
7060F0
C06030
C06030
806010
806010
006000
006000
006000
006000
006000
006000
006000
006000
006000
006000
006000
006000
006000
006000
006000
00F000
07FC00
000000
006000
00E000
006000
002000
006000
00C000
ENDCHAR
STARTCHAR 0163
ENCODING 355
SWIDTH 343 0
DWIDTH 11 0
BBX 9 27 1 -7
BITMAP
1000
1000
1000
3000
FF80
3000
3000
3000
3000
3000
3000
3000
3000
3000
3000
3000
3000
3800
1880
0F00
0000
0C00
0E00
0E00
0600
0400
1C00
ENDCHAR
STARTCHAR 0164
ENCODING 356
SWIDTH 625 0
DWIDTH 20 0
BBX 20 29 0 0
BITMAP
020400
039C00
00F800
006000
000000
000000
7FFFF0
7060F0
C06030
C06030
806010
806010
006000
006000
006000
006000
006000
006000
006000
006000
006000
006000
006000
006000
006000
006000
006000
00F000
07FC00
ENDCHAR
STARTCHAR 0165
ENCODING 357
SWIDTH 343 0
DWIDTH 11 0
BBX 10 24 1 0
BITMAP
00C0
01C0
01C0
0040
10C0
1180
1000
3000
FF80
3000
3000
3000
3000
3000
3000
3000
3000
3000
3000
3000
3000
3800
1880
0F00
ENDCHAR
STARTCHAR 016A
ENCODING 362
SWIDTH 781 0
DWIDTH 25 0
BBX 24 28 1 0
BITMAP
00FF00
000000
000000
000000
000000
FF80FF
3C0018
180018
180018
180018
180018
180018
180018
180018
180018
180018
180018
180018
180018
180018
180018
1C0010
1C0030
0E0030
0E0060
0781E0
03FFC0
00FF00
ENDCHAR
STARTCHAR 016B
ENCODING 363
SWIDTH 593 0
DWIDTH 19 0
BBX 18 21 1 0
BITMAP
07F800
000000
000000
000000
000000
F83E00
380E00
380600
380600
380600
380600
380600
380600
380600
380600
380600
380600
180E00
180E00
0C3600
07C7C0
ENDCHAR
STARTCHAR 016C
ENCODING 364
SWIDTH 781 0
DWIDTH 25 0
BBX 24 29 1 0
BITMAP
008100
00C100
007F00
003E00
000000
000000
FF80FF
3C0018
180018
180018
180018
180018
180018
180018
180018
180018
180018
180018
180018
180018
180018
180018
1C0010
1C0030
0E0030
0E0060
0781E0
03FFC0
00FF00
ENDCHAR
STARTCHAR 016D
ENCODING 365
SWIDTH 593 0
DWIDTH 19 0
BBX 18 22 1 0
BITMAP
040800
061000
03E000
000000
000000
000000
F81E00
F83E00
380600
380600
380600
380600
380600
380600
380600
380600
380600
380600
180E00
180E00
0C3600
07C7C0
ENDCHAR
STARTCHAR 016E
ENCODING 366
SWIDTH 781 0
DWIDTH 25 0
BBX 24 29 1 0
BITMAP
001C00
002200
002200
002600
001C00
000000
FF80FF
3C0018
180018
180018
180018
180018
180018
180018
180018
180018
180018
180018
180018
180018
180018
180018
1C0010
1C0030
0E0030
0E0060
0781E0
03FFC0
00FF00
ENDCHAR
STARTCHAR 016F
ENCODING 367
SWIDTH 593 0
DWIDTH 19 0
BBX 18 23 1 0
BITMAP
01C000
022000
022000
01C000
000000
000000
000000
F83E00
380E00
380600
380600
380600
380600
380600
380600
380600
380600
380600
380600
180E00
180E00
0C3600
07C7C0
ENDCHAR
STARTCHAR 0170
ENCODING 368
SWIDTH 781 0
DWIDTH 25 0
BBX 24 29 1 0
BITMAP
001180
003180
002300
006600
000400
000000
FF80FF
3C0018
180018
180018
180018
180018
180018
180018
180018
180018
180018
180018
180018
180018
180018
180018
1C0010
1C0030
0E0030
0E0060
0781E0
03FFC0
00FF00
ENDCHAR
STARTCHAR 0171
ENCODING 369
SWIDTH 593 0
DWIDTH 19 0
BBX 18 23 1 1
BITMAP
01CC00
019800
033000
022000
000000
000000
000000
F83E00
780E00
380600
380600
380600
380600
380600
380600
380600
380600
380600
380600
180E00
180E00
0C3600
07C7C0
ENDCHAR
STARTCHAR 0179
ENCODING 377
SWIDTH 625 0
DWIDTH 20 0
BBX 18 29 1 0
BITMAP
001800
003800
007000
00C000
008000
000000
7FFF80
780380
600700
400600
400E00
401C00
001800
003800
007000
006000
00E000
01C000
038000
030000
070000
0E0000
0C0040
1C0040
3800C0
3000C0
7001C0
E00380
FFFF80
ENDCHAR
STARTCHAR 017A
ENCODING 378
SWIDTH 468 0
DWIDTH 15 0
BBX 13 24 1 0
BITMAP
0040
00E0
01C0
0380
0200
0000
0000
0000
7FF0
6030
4060
40E0
41C0
0180
0380
0700
0600
0C00
1C00
1808
3008
7018
E038
FFF8
ENDCHAR
STARTCHAR 017B
ENCODING 379
SWIDTH 625 0
DWIDTH 20 0
BBX 18 29 1 0
BITMAP
00C000
00E000
00E000
000000
000000
000000
7FFF80
780380
600700
400600
400E00
401C00
001800
003800
007000
006000
00E000
01C000
038000
030000
070000
0E0000
0C0040
1C0040
3800C0
3000C0
7001C0
E00380
FFFF80
ENDCHAR
STARTCHAR 017C
ENCODING 380
SWIDTH 468 0
DWIDTH 15 0
BBX 13 23 1 0
BITMAP
0300
0700
0300
0000
0000
0000
0000
7FF0
6030
4060
40E0
41C0
0180
0380
0700
0600
0C00
1C00
1808
3008
7018
E038
FFF8
ENDCHAR
STARTCHAR 017D
ENCODING 381
SWIDTH 625 0
DWIDTH 20 0
BBX 18 29 1 0
BITMAP
040800
073800
01F000
00C000
000000
000000
7FFF80
780380
600700
400600
400E00
401C00
001800
003800
007000
006000
00E000
01C000
038000
030000
070000
0E0000
0C0040
1C0040
3800C0
3000C0
7001C0
E00380
FFFF80
ENDCHAR
STARTCHAR 017E
ENCODING 382
SWIDTH 468 0
DWIDTH 15 0
BBX 13 23 1 0
BITMAP
1860
0CC0
0780
0300
0000
0000
0000
7FF0
6030
4060
40E0
41C0
0180
0380
0700
0600
0C00
1C00
1808
3008
7018
E038
FFF8
ENDCHAR
STARTCHAR 0193
ENCODING 403
SWIDTH 781 0
DWIDTH 25 0
BBX 25 28 2 0
BITMAP
00000F00
00001980
00001180
00003180
00FC2000
07032000
0C00A000
18006000
38006000
30002000
60002000
60000000
E0000000
E0000000
E0000000
E0000000
E0000000
E003FC00
E0007000
E0007000
60006000
70006000
70006000
38006000
18006000
0C00E000
0703A000
01FC0000
ENDCHAR
STARTCHAR 01C2
ENCODING 450
SWIDTH 500 0
DWIDTH 16 0
BBX 12 22 2 1
BITMAP
0600
0600
0600
0600
0600
0600
0600
FFF0
0600
0600
0600
0600
0600
FFF0
0600
0600
0600
0600
0600
0600
0600
0600
ENDCHAR
STARTCHAR 01CD
ENCODING 461
SWIDTH 718 0
DWIDTH 23 0
BBX 23 28 0 0
BITMAP
018300
006600
003C00
001800
000000
001000
001800
003800
003800
006C00
006C00
004E00
00C600
008600
018300
018300
010380
030180
020180
07FFC0
0600C0
0400E0
0C0060
080060
180030
180030
380038
FE01FE
ENDCHAR
STARTCHAR 01CE
ENCODING 462
SWIDTH 531 0
DWIDTH 17 0
BBX 15 23 2 0
BITMAP
1040
0D80
0700
0200
0000
0000
0000
0F80
30E0
6060
7030
6030
0030
07F0
3E30
7030
E030
C030
C030
C030
C070
61B2
3E1C
ENDCHAR
STARTCHAR 01D0
ENCODING 464
SWIDTH 312 0
DWIDTH 10 0
BBX 8 23 1 0
BITMAP
83
66
3C
18
00
00
00
F8
38
18
18
18
18
18
18
18
18
18
18
18
18
18
FF
ENDCHAR
STARTCHAR 01D1
ENCODING 465
SWIDTH 812 0
DWIDTH 26 0
BBX 22 29 2 0
BITMAP
010200
018E00
00F800
003000
000000
00FC00
070300
0C01C0
1800E0
380070
700030
600038
600018
E00018
E0001C
E0001C
E0001C
E0001C
E0001C
E0001C
E00018
600018
600038
700030
300070
1800E0
0C01C0
070300
00FC00
ENDCHAR
STARTCHAR 01D2
ENCODING 466
SWIDTH 593 0
DWIDTH 19 0
BBX 15 23 2 0
BITMAP
0820
06C0
0380
0100
0000
0000
0000
07C0
1830
3018
600C
E00C
C00E
C006
C006
C006
C006
C00E
E00C
600C
3018
1830
0FC0
ENDCHAR
STARTCHAR 01D4
ENCODING 468
SWIDTH 593 0
DWIDTH 19 0
BBX 18 23 1 0
BITMAP
041800
033000
01E000
00C000
000000
000000
000000
F83E00
380E00
380600
380600
380600
380600
380600
380600
380600
380600
380600
380600
180E00
180E00
0C3700
07C7C0
ENDCHAR
STARTCHAR 01D6
ENCODING 470
SWIDTH 593 0
DWIDTH 19 0
BBX 18 26 1 0
BITMAP
0FF800
000000
000000
0E3000
0E3800
0E3000
000000
000000
000000
000000
F83E00
380E00
380600
380600
380600
380600
380600
380600
380600
380600
380600
380600
180E00
180E00
0C3600
07C7C0
ENDCHAR
STARTCHAR 01D8
ENCODING 472
SWIDTH 593 0
DWIDTH 19 0
BBX 18 28 1 0
BITMAP
002000
003000
006000
00C000
010000
0E3000
0E3800
0E3000
000000
000000
000000
000000
F83E00
380E00
380600
380600
380600
380600
380600
380600
380600
380600
380600
380600
180E00
180E00
0C3600
07C7C0
ENDCHAR
STARTCHAR 01DA
ENCODING 474
SWIDTH 593 0
DWIDTH 19 0
BBX 18 27 1 0
BITMAP
043000
036000
01C000
008000
0E3000
0E3800
0E3000
000000
000000
000000
000000
F83E00
380E00
380600
380600
380600
380600
380600
380600
380600
380600
380600
380600
180E00
180E00
0C3600
07C7C0
ENDCHAR
STARTCHAR 01DC
ENCODING 476
SWIDTH 593 0
DWIDTH 19 0
BBX 18 27 1 1
BITMAP
060000
030000
018000
004000
0E3000
0E3800
0E3000
000000
000000
000000
000000
F83E00
380E00
380600
380600
380600
380600
380600
380600
380600
380600
380600
380600
180E00
180E00
0C3600
07C7C0
ENDCHAR
STARTCHAR 01F8
ENCODING 504
SWIDTH 812 0
DWIDTH 26 0
BBX 24 29 1 0
BITMAP
008000
01C000
007000
003800
000000
000000
FC00FF
1E001C
1F0018
0B0018
098018
09C018
08E018
086018
087018
083818
081818
080C18
080E18
080618
080318
080398
0801D8
0800D8
0800F8
080078
180038
1C0018
FF0018
ENDCHAR
STARTCHAR 01F9
ENCODING 505
SWIDTH 625 0
DWIDTH 20 0
BBX 18 23 1 1
BITMAP
060000
070000
038000
008000
000000
000000
000000
F8F800
1B0C00
1E0600
1C0600
180300
180300
180300
180300
180300
180300
180300
180300
180300
180300
1C0700
FF1FC0
ENDCHAR
STARTCHAR 01FD
ENCODING 509
SWIDTH 843 0
DWIDTH 27 0
BBX 24 23 2 1
BITMAP
000700
000E00
001C00
001000
000000
000000
000000
0F83F0
30EE18
60780C
703806
603006
003006
07FFFF
383000
603000
C03000
C03000
C03802
C03802
E04C06
61860C
3F03F0
ENDCHAR
STARTCHAR 0250
ENCODING 592
SWIDTH 531 0
DWIDTH 17 0
BBX 15 16 1 0
BITMAP
F1F0
B61C
1C0E
1806
1806
180E
180C
1838
1FF0
1C00
1800
181C
181C
180C
0C18
07E0
ENDCHAR
STARTCHAR 0251
ENCODING 593
SWIDTH 593 0
DWIDTH 19 0
BBX 16 16 2 0
BITMAP
0F88
1868
3038
6018
E018
C018
C018
C018
C018
C018
C018
E018
6018
7028
384D
0F8E
ENDCHAR
STARTCHAR 0252
ENCODING 594
SWIDTH 593 0
DWIDTH 19 0
BBX 16 16 1 0
BITMAP
E1F0
3618
340C
3806
3806
3007
3003
3003
3003
3003
3007
3806
3806
380C
3618
31F0
ENDCHAR
STARTCHAR 0253
ENCODING 595
SWIDTH 593 0
DWIDTH 19 0
BBX 14 23 3 0
BITMAP
0FC0
3830
6038
6038
E038
C000
C000
C7C0
D870
D038
E018
E00C
C00C
C00C
C00C
C00C
C00C
C00C
E00C
E018
D018
D870
C7C0
ENDCHAR
STARTCHAR 0254
ENCODING 596
SWIDTH 531 0
DWIDTH 17 0
BBX 13 16 2 0
BITMAP
1F80
7FE0
E0F0
8070
0038
0038
0018
0018
0018
0018
C018
E038
C030
C060
60C0
1F80
ENDCHAR
STARTCHAR 0255
ENCODING 597
SWIDTH 531 0
DWIDTH 17 0
BBX 14 18 2 -3
BITMAP
0FC0
1830
3018
6038
E018
E000
C000
C000
C000
C000
E078
E08C
7104
3204
1E08
0FF0
0C00
0800
ENDCHAR
STARTCHAR 0256
ENCODING 598
SWIDTH 625 0
DWIDTH 20 0
BBX 20 30 2 -6
BITMAP
000400
007C00
000C00
000C00
000C00
000C00
000C00
000C00
0F8C00
386C00
301C00
601C00
E00C00
C00C00
C00C00
C00C00
C00C00
C00C00
C00C00
E00C00
601C00
703C00
386C00
0F8C00
000C00
000C00
000C60
000C70
000660
0003C0
ENDCHAR
STARTCHAR 0257
ENCODING 599
SWIDTH 625 0
DWIDTH 20 0
BBX 20 23 2 0
BITMAP
0003E0
000670
000C60
000C00
000C00
000C00
000C00
0F8C00
386C00
301C00
601C00
E00C00
C00C00
C00C00
C00C00
C00C00
C00C00
C00C00
E00C00
601C00
703C00
386C00
0F8F80
ENDCHAR
STARTCHAR 0258
ENCODING 600
SWIDTH 562 0
DWIDTH 18 0
BBX 14 16 2 0
BITMAP
0FC0
3870
6038
E018
C01C
C00C
FFFC
000C
000C
000C
001C
8018
C018
4030
30E0
0F80
ENDCHAR
STARTCHAR 0259
ENCODING 601
SWIDTH 562 0
DWIDTH 18 0
BBX 14 16 2 0
BITMAP
0FC0
3060
4030
C018
001C
000C
000C
000C
FFFC
C00C
C00C
C018
6018
6030
3060
0FC0
ENDCHAR
STARTCHAR 025A
ENCODING 602
SWIDTH 781 0
DWIDTH 25 0
BBX 23 16 2 0
BITMAP
0FC000
3FF000
707840
601DC0
C00F40
800E60
803E60
006632
018634
07061C
1C0600
300600
380400
180C00
0E1800
03E000
ENDCHAR
STARTCHAR 025C
ENCODING 604
SWIDTH 531 0
DWIDTH 17 0
BBX 13 16 2 0
BITMAP
3FC0
40E0
0070
0030
0030
0060
1EC0
1F80
0060
0030
0038
0038
0038
0030
C0E0
3F80
ENDCHAR
STARTCHAR 025E
ENCODING 606
SWIDTH 562 0
DWIDTH 18 0
BBX 14 16 2 0
BITMAP
07E0
1FF0
3838
6018
C018
C018
8770
87E0
8018
800C
C00C
C00C
601C
703C
3FF8
0FE0
ENDCHAR
STARTCHAR 025F
ENCODING 607
SWIDTH 312 0
DWIDTH 10 0
BBX 12 22 -2 -6
BITMAP
0FE0
0380
0380
0380
0380
0380
0380
0380
0380
0380
0380
0380
0380
0380
0380
3FF0
0380
0380
0300
C300
C600
7C00
ENDCHAR
STARTCHAR 0260
ENCODING 608
SWIDTH 593 0
DWIDTH 19 0
BBX 20 29 2 -6
BITMAP
0003E0
000670
000C70
000C00
000C00
000C00
000C00
0FCC00
186C00
301C00
601C00
600C00
C00C00
C00C00
C00C00
C00C00
C00C00
C00C00
E00C00
601C00
701C00
386C00
0F8C00
000C00
600C00
701C00
601800
307000
0FC000
ENDCHAR
STARTCHAR 0261
ENCODING 609
SWIDTH 593 0
DWIDTH 19 0
BBX 14 22 2 -6
BITMAP
0FC4
186C
301C
601C
600C
C00C
C00C
C00C
C00C
C00C
C00C
E00C
601C
701C
386C
0F8C
000C
600C
701C
6018
3070
0FC0
ENDCHAR
STARTCHAR 0264
ENCODING 612
SWIDTH 593 0
DWIDTH 19 0
BBX 17 16 1 0
BITMAP
F00780
FC1C00
1E3000
076000
03C000
01C000
03E000
027000
063000
043800
0C1800
0C1800
0C1800
0C3000
063000
03E000
ENDCHAR
STARTCHAR 0265
ENCODING 613
SWIDTH 625 0
DWIDTH 20 0
BBX 18 22 1 -6
BITMAP
FE3FC0
380600
380600
380600
380600
380600
380600
380600
380600
380600
380600
380600
180E00
181E00
0C3600
07C600
000600
000600
000600
000600
000600
0007C0
ENDCHAR
STARTCHAR 0266
ENCODING 614
SWIDTH 625 0
DWIDTH 20 0
BBX 18 23 1 0
BITMAP
03F800
060C00
0C0600
180700
180600
180000
180000
18F800
1B0C00
1C0600
180600
180600
180600
180600
180600
180600
180600
180600
180600
180600
180600
380700
FF3FC0
ENDCHAR
STARTCHAR 0267
ENCODING 615
SWIDTH 625 0
DWIDTH 20 0
BBX 16 29 1 -6
BITMAP
03F8
060C
0C06
1807
1806
1800
1800
18F8
1B0C
1C06
1806
1806
1806
1806
1806
1806
1806
1806
1806
1806
1806
3806
FF06
0006
0006
00C6
01C6
00CC
0078
ENDCHAR
STARTCHAR 0268
ENCODING 616
SWIDTH 343 0
DWIDTH 11 0
BBX 9 23 1 0
BITMAP
1C00
1C00
1C00
0000
0000
0000
0000
7C00
1C00
1C00
1C00
1C00
1C00
FF80
1C00
1C00
1C00
1C00
1C00
1C00
1C00
1C00
7F00
ENDCHAR
STARTCHAR 026C
ENCODING 620
SWIDTH 406 0
DWIDTH 13 0
BBX 11 23 1 0
BITMAP
1F00
0F00
0300
0300
0300
0300
7B00
8F00
8300
8300
7300
1FE0
0300
0300
0300
0300
0300
0300
0300
0300
0300
0380
1FE0
ENDCHAR
STARTCHAR 026D
ENCODING 621
SWIDTH 343 0
DWIDTH 11 0
BBX 10 29 1 -6
BITMAP
F800
3800
1800
1800
1800
1800
1800
1800
1800
1800
1800
1800
1800
1800
1800
1800
1800
1800
1800
1800
1800
1800
1800
1800
1800
18C0
18C0
1CC0
0780
ENDCHAR
STARTCHAR 026E
ENCODING 622
SWIDTH 625 0
DWIDTH 20 0
BBX 17 31 1 -7
BITMAP
080000
F80000
380000
180000
180000
180000
180000
180000
1FFF80
180380
180700
180E00
181C00
183800
183000
186000
18C000
19FC00
180E00
180300
180380
180180
380180
FF0180
000180
0E0180
0E0180
0E0380
040300
020E00
01F800
ENDCHAR
STARTCHAR 026F
ENCODING 623
SWIDTH 906 0
DWIDTH 29 0
BBX 27 16 1 0
BITMAP
FF3F9FE0
380E0300
180E0300
180C0300
180C0300
180C0300
180C0300
180C0300
180C0300
180C0300
180C0300
180E0300
180E0700
18160700
0C271B80
07C1E3E0
ENDCHAR
STARTCHAR 0270
ENCODING 624
SWIDTH 906 0
DWIDTH 29 0
BBX 27 23 1 -7
BITMAP
FF3F9FE0
380E0300
180E0300
180C0300
180C0300
180C0300
180C0300
180C0300
180C0300
180C0300
180C0300
180E0300
180E0700
18160700
0C271B00
07C1E300
00000300
00000300
00000300
00000300
00000300
000003E0
000003C0
ENDCHAR
STARTCHAR 0271
ENCODING 625
SWIDTH 906 0
DWIDTH 29 0
BBX 24 22 1 -6
BITMAP
F8F07C
1B1C86
1C0D03
1C0E03
180603
180603
180603
180603
180603
180603
180603
180603
180603
180603
1C0E03
FF3FC3
000003
000003
000063
000063
000066
00003C
ENDCHAR
STARTCHAR 0272
ENCODING 626
SWIDTH 625 0
DWIDTH 20 0
BBX 22 22 -2 -6
BITMAP
1F1F00
036180
03C0C0
0380C0
030060
030060
030060
030060
030060
030060
030060
030060
030060
030060
0300E0
0303FC
030000
030000
630000
E30000
660000
3C0000
ENDCHAR
STARTCHAR 0273
ENCODING 627
SWIDTH 625 0
DWIDTH 20 0
BBX 21 22 1 -6
BITMAP
F8F800
1B0C00
1E0600
1C0600
180300
180300
180300
180300
180300
180300
180300
180300
180300
180300
1C0300
FF0300
000300
000300
000318
000318
000398
0000F0
ENDCHAR
STARTCHAR 0275
ENCODING 629
SWIDTH 593 0
DWIDTH 19 0
BBX 15 16 2 0
BITMAP
07C0
1830
3018
600C
E00C
C00E
C006
FFFE
C006
C00E
E00E
E00C
600C
3018
1830
0FC0
ENDCHAR
STARTCHAR 0279
ENCODING 633
SWIDTH 406 0
DWIDTH 13 0
BBX 12 16 0 0
BITMAP
0FF0
01C0
0180
0180
0180
0180
0180
0180
0180
0180
0180
0180
0380
6580
EDC0
71F0
ENDCHAR
STARTCHAR 027A
ENCODING 634
SWIDTH 406 0
DWIDTH 13 0
BBX 12 23 0 0
BITMAP
0FF0
01C0
0180
0180
0180
0180
0180
0180
0180
0180
0180
0180
0180
0180
0180
0180
0180
0180
0180
0380
6580
EDC0
71F0
ENDCHAR
STARTCHAR 027B
ENCODING 635
SWIDTH 437 0
DWIDTH 14 0
BBX 15 22 0 -6
BITMAP
0FF0
0380
0180
0180
0180
0180
0180
0180
0180
0180
0180
0380
0380
E580
E980
F180
0180
0180
018C
018E
00CE
007C
ENDCHAR
STARTCHAR 027D
ENCODING 637
SWIDTH 406 0
DWIDTH 13 0
BBX 12 22 1 -6
BITMAP
F8F0
1970
1A30
1C00
1800
1800
1800
1800
1800
1800
1800
1800
1800
1800
1800
1800
1800
1800
18E0
1CE0
0C60
0780
ENDCHAR
STARTCHAR 027E
ENCODING 638
SWIDTH 375 0
DWIDTH 12 0
BBX 11 16 1 0
BITMAP
07C0
0CE0
18E0
1800
1800
1800
1800
1800
1800
1800
1800
1800
1800
1800
1C00
FF00
ENDCHAR
STARTCHAR 0281
ENCODING 641
SWIDTH 531 0
DWIDTH 17 0
BBX 16 16 1 0
BITMAP
FE0F
380C
3818
3818
3830
3870
3860
3FC0
3FF0
3818
381C
380C
380C
381C
3838
FFE0
ENDCHAR
STARTCHAR 0282
ENCODING 642
SWIDTH 468 0
DWIDTH 15 0
BBX 12 22 2 -6
BITMAP
1FE0
70E0
4060
C020
C020
E000
7800
1F00
03C0
00E0
8060
8030
C020
C060
F0E0
9F80
8000
8000
8E00
CE00
4E00
3C00
ENDCHAR
STARTCHAR 0283
ENCODING 643
SWIDTH 437 0
DWIDTH 14 0
BBX 13 30 0 -7
BITMAP
00F0
01B8
0318
0300
0300
0300
0300
0300
0300
0300
0300
0300
0300
0300
0300
0300
0300
0300
0300
0300
0300
0300
0300
0300
0300
0300
0700
E600
E600
7800
ENDCHAR
STARTCHAR 0284
ENCODING 644
SWIDTH 312 0
DWIDTH 10 0
BBX 14 29 -2 -6
BITMAP
00F8
018C
030C
0300
0300
0300
0300
0300
0300
0300
0300
0300
0300
0300
0300
0300
0300
0300
0300
0300
0300
0300
3FF0
0300
0300
E300
E700
E600
7C00
ENDCHAR
STARTCHAR 0288
ENCODING 648
SWIDTH 343 0
DWIDTH 11 0
BBX 10 26 1 -6
BITMAP
1000
1000
1000
3000
FF80
3000
3000
3000
3000
3000
3000
3000
3000
3000
3000
3000
3000
3000
3000
3000
3000
3000
38C0
19C0
18C0
0F80
ENDCHAR
STARTCHAR 0289
ENCODING 649
SWIDTH 625 0
DWIDTH 20 0
BBX 18 16 1 0
BITMAP
F81E00
380600
180600
180600
180600
180600
FFFFC0
180600
180600
180600
180600
180600
180600
1C0E00
0C3700
07E7C0
ENDCHAR
STARTCHAR 028A
ENCODING 650
SWIDTH 625 0
DWIDTH 20 0
BBX 16 16 2 0
BITMAP
FC3F
0810
1818
300C
300C
600C
6006
6006
6006
6006
6006
600E
300C
3818
1C38
07E0
ENDCHAR
STARTCHAR 028B
ENCODING 651
SWIDTH 562 0
DWIDTH 18 0
BBX 15 17 1 0
BITMAP
000C
F80E
380E
3806
3802
3802
3802
3802
3802
3806
3806
3804
3804
1808
1818
0C30
07C0
ENDCHAR
STARTCHAR 028C
ENCODING 652
SWIDTH 531 0
DWIDTH 17 0
BBX 17 16 0 0
BITMAP
008000
01C000
01C000
016000
036000
027000
063000
043000
041800
0C1800
081C00
180C00
100C00
100E00
300F00
FC3F80
ENDCHAR
STARTCHAR 028D
ENCODING 653
SWIDTH 781 0
DWIDTH 25 0
BBX 25 16 0 0
BITMAP
01804000
0180C000
0380E000
02C1E000
02C16000
06413000
04623000
04623800
0C361800
08341800
08340C00
18180C00
10180C00
10180600
301C0E00
FC7F3F80
ENDCHAR
STARTCHAR 028E
ENCODING 654
SWIDTH 531 0
DWIDTH 17 0
BBX 17 23 0 0
BITMAP
001C00
003E00
006E00
006E00
004000
00C000
008000
008000
01C000
01C000
03C000
026000
026000
063000
043000
0C3800
081800
081800
180C00
100C00
100E00
300E00
FC3F80
ENDCHAR
STARTCHAR 0290
ENCODING 656
SWIDTH 562 0
DWIDTH 18 0
BBX 18 22 1 -6
BITMAP
7FF000
603000
406000
40E000
41C000
018000
038000
070000
060000
0C0000
1C0000
180800
300800
701800
E03800
FFF800
000800
000800
0009C0
0009C0
000DC0
000780
ENDCHAR
STARTCHAR 0291
ENCODING 657
SWIDTH 500 0
DWIDTH 16 0
BBX 15 19 1 -3
BITMAP
7FF0
6030
4060
40E0
41C0
0180
0380
0700
0600
0C00
1C3C
1842
3082
7102
E306
FFF8
0600
0400
0400
ENDCHAR
STARTCHAR 0292
ENCODING 658
SWIDTH 500 0
DWIDTH 16 0
BBX 14 23 1 -7
BITMAP
7FF8
6038
4070
40E0
40C0
0180
0300
0600
0FC0
1860
1030
0018
0018
001C
001C
001C
001C
601C
E018
E018
4030
7060
1F80
ENDCHAR
STARTCHAR 0294
ENCODING 660
SWIDTH 500 0
DWIDTH 16 0
BBX 14 23 1 0
BITMAP
0FC0
3070
6018
601C
F00C
600C
001C
001C
0018
0030
03C0
0300
0300
0300
0300
0300
0300
0300
0300
0300
0300
0700
1FE0
ENDCHAR
STARTCHAR 0295
ENCODING 661
SWIDTH 500 0
DWIDTH 16 0
BBX 14 23 1 0
BITMAP
0FC0
3830
7008
601C
E01C
E01C
6000
6000
7000
3800
0F80
0380
0380
0380
0380
0380
0380
0380
0380
0380
0380
0380
0FE0
ENDCHAR
STARTCHAR 0298
ENCODING 664
SWIDTH 625 0
DWIDTH 20 0
BBX 16 16 2 0
BITMAP
07E0
1C18
300C
6006
4003
C001
8181
83C1
83C1
8181
C003
4003
6006
300C
1C38
07E0
ENDCHAR
STARTCHAR 029D
ENCODING 669
SWIDTH 312 0
DWIDTH 10 0
BBX 12 29 -3 -6
BITMAP
0180
03C0
0180
0000
0000
0000
0000
0F80
0180
0180
0180
0180
0180
0180
0180
0180
0180
0180
0180
0180
0180
0180
0180
3D80
4380
C1E0
C1B0
6380
3E00
ENDCHAR
STARTCHAR 02A1
ENCODING 673
SWIDTH 500 0
DWIDTH 16 0
BBX 14 23 1 0
BITMAP
0FC0
3070
6018
E01C
F00C
600C
001C
001C
0018
0070
03C0
0300
0300
3FE0
0300
0300
0300
0300
0300
0300
0300
0700
1FE0
ENDCHAR
STARTCHAR 02A2
ENCODING 674
SWIDTH 500 0
DWIDTH 16 0
BBX 14 23 1 0
BITMAP
0FC0
3830
7008
601C
E01C
E01C
6000
6000
7000
1800
0780
0380
0380
1FF0
0380
0380
0380
0380
0380
0380
0380
0380
0FE0
ENDCHAR
STARTCHAR 02BB
ENCODING 699
SWIDTH 1000 0
DWIDTH 32 0
BBX 4 9 25 18
BITMAP
10
30
60
40
C0
F0
F0
F0
60
ENDCHAR
STARTCHAR 02BC
ENCODING 700
SWIDTH 1000 0
DWIDTH 32 0
BBX 4 8 3 18
BITMAP
60
F0
F0
70
30
60
40
80
ENDCHAR
STARTCHAR 02C6
ENCODING 710
SWIDTH 500 0
DWIDTH 16 0
BBX 8 3 4 19
BITMAP
3C
66
C3
ENDCHAR
STARTCHAR 02C7
ENCODING 711
SWIDTH 500 0
DWIDTH 16 0
BBX 8 4 4 19
BITMAP
C3
66
3C
18
ENDCHAR
STARTCHAR 02C8
ENCODING 712
SWIDTH 187 0
DWIDTH 6 0
BBX 2 13 2 11
BITMAP
C0
C0
C0
C0
C0
C0
C0
C0
C0
C0
C0
C0
C0
ENDCHAR
STARTCHAR 02CC
ENCODING 716
SWIDTH 187 0
DWIDTH 6 0
BBX 2 12 2 -5
BITMAP
C0
C0
C0
C0
C0
C0
C0
C0
C0
C0
C0
C0
ENDCHAR
STARTCHAR 02D0
ENCODING 720
SWIDTH 281 0
DWIDTH 9 0
BBX 3 14 3 1
BITMAP
E0
E0
40
40
00
00
00
00
00
00
40
40
E0
E0
ENDCHAR
STARTCHAR 02D1
ENCODING 721
SWIDTH 281 0
DWIDTH 9 0
BBX 3 4 3 11
BITMAP
E0
E0
40
40
ENDCHAR
STARTCHAR 02D8
ENCODING 728
SWIDTH 500 0
DWIDTH 16 0
BBX 8 4 4 19
BITMAP
81
81
42
3C
ENDCHAR
STARTCHAR 02D9
ENCODING 729
SWIDTH 500 0
DWIDTH 16 0
BBX 4 3 6 20
BITMAP
60
F0
60
ENDCHAR
STARTCHAR 02DB
ENCODING 731
SWIDTH 500 0
DWIDTH 16 0
BBX 7 8 5 -8
BITMAP
18
30
60
E0
C0
C6
FC
78
ENDCHAR
STARTCHAR 02DC
ENCODING 732
SWIDTH 500 0
DWIDTH 16 0
BBX 9 3 4 20
BITMAP
7000
9880
8700
ENDCHAR
STARTCHAR 02DD
ENCODING 733
SWIDTH 500 0
DWIDTH 16 0
BBX 9 4 4 20
BITMAP
3380
6300
4600
CC00
ENDCHAR
STARTCHAR 02DE
ENCODING 734
SWIDTH 500 0
DWIDTH 16 0
BBX 7 8 5 0
BITMAP
10
F0
30
30
30
32
32
1C
ENDCHAR
STARTCHAR 02E5
ENCODING 741
SWIDTH 500 0
DWIDTH 16 0
BBX 7 22 2 1
BITMAP
FE
06
06
06
06
06
06
06
06
06
06
06
06
06
06
06
06
06
06
06
06
06
ENDCHAR
STARTCHAR 02E6
ENCODING 742
SWIDTH 500 0
DWIDTH 16 0
BBX 7 22 2 1
BITMAP
06
06
06
06
06
FE
06
06
06
06
06
06
06
06
06
06
06
06
06
06
06
06
ENDCHAR
STARTCHAR 02E7
ENCODING 743
SWIDTH 500 0
DWIDTH 16 0
BBX 7 23 2 0
BITMAP
06
06
06
06
06
06
06
06
06
06
06
FE
06
06
06
06
06
06
06
06
06
06
06
ENDCHAR
STARTCHAR 02E8
ENCODING 744
SWIDTH 500 0
DWIDTH 16 0
BBX 7 22 2 1
BITMAP
06
06
06
06
06
06
06
06
06
06
06
06
06
06
06
06
FE
06
06
06
06
06
ENDCHAR
STARTCHAR 02E9
ENCODING 745
SWIDTH 500 0
DWIDTH 16 0
BBX 7 22 2 0
BITMAP
06
06
06
06
06
06
06
06
06
06
06
06
06
06
06
06
06
06
06
06
06
FE
ENDCHAR
STARTCHAR 0300
ENCODING 768
SWIDTH 500 0
DWIDTH 16 0
BBX 5 4 5 20
BITMAP
C0
E0
30
18
ENDCHAR
STARTCHAR 0301
ENCODING 769
SWIDTH 500 0
DWIDTH 16 0
BBX 5 5 7 19
BITMAP
10
38
70
60
80
ENDCHAR
STARTCHAR 0302
ENCODING 770
SWIDTH 500 0
DWIDTH 16 0
BBX 8 3 4 19
BITMAP
3C
66
C3
ENDCHAR
STARTCHAR 0303
ENCODING 771
SWIDTH 500 0
DWIDTH 16 0
BBX 9 3 4 20
BITMAP
7000
9880
8700
ENDCHAR
STARTCHAR 0304
ENCODING 772
SWIDTH 500 0
DWIDTH 16 0
BBX 8 1 4 20
BITMAP
FF
ENDCHAR
STARTCHAR 0305
ENCODING 773
SWIDTH 500 0
DWIDTH 16 0
BBX 8 1 4 20
BITMAP
FF
ENDCHAR
STARTCHAR 0306
ENCODING 774
SWIDTH 500 0
DWIDTH 16 0
BBX 8 4 4 19
BITMAP
81
81
42
3C
ENDCHAR
STARTCHAR 0308
ENCODING 776
SWIDTH 500 0
DWIDTH 16 0
BBX 8 3 4 20
BITMAP
C3
E7
C3
ENDCHAR
STARTCHAR 030B
ENCODING 779
SWIDTH 500 0
DWIDTH 16 0
BBX 9 4 4 20
BITMAP
3380
6300
4600
CC00
ENDCHAR
STARTCHAR 030C
ENCODING 780
SWIDTH 500 0
DWIDTH 16 0
BBX 8 4 4 19
BITMAP
C3
66
3C
18
ENDCHAR
STARTCHAR 030F
ENCODING 783
SWIDTH 500 0
DWIDTH 16 0
BBX 9 4 3 20
BITMAP
E600
6300
3100
1980
ENDCHAR
STARTCHAR 0318
ENCODING 792
SWIDTH 500 0
DWIDTH 16 0
BBX 5 7 5 -9
BITMAP
18
18
18
F8
18
18
18
ENDCHAR
STARTCHAR 0319
ENCODING 793
SWIDTH 500 0
DWIDTH 16 0
BBX 5 7 6 -9
BITMAP
C0
C0
C0
F8
C0
C0
C0
ENDCHAR
STARTCHAR 031A
ENCODING 794
SWIDTH 500 0
DWIDTH 16 0
BBX 7 8 2 15
BITMAP
FE
06
06
06
06
06
06
06
ENDCHAR
STARTCHAR 031C
ENCODING 796
SWIDTH 500 0
DWIDTH 16 0
BBX 4 8 6 -9
BITMAP
30
70
C0
80
80
C0
70
10
ENDCHAR
STARTCHAR 031D
ENCODING 797
SWIDTH 500 0
DWIDTH 16 0
BBX 8 4 4 -6
BITMAP
18
18
18
FF
ENDCHAR
STARTCHAR 031E
ENCODING 798
SWIDTH 500 0
DWIDTH 16 0
BBX 8 4 4 -7
BITMAP
FF
18
18
18
ENDCHAR
STARTCHAR 031F
ENCODING 799
SWIDTH 500 0
DWIDTH 16 0
BBX 8 7 4 -9
BITMAP
18
18
18
FF
18
18
18
ENDCHAR
STARTCHAR 0320
ENCODING 800
SWIDTH 500 0
DWIDTH 16 0
BBX 8 1 4 -4
BITMAP
FF
ENDCHAR
STARTCHAR 0324
ENCODING 804
SWIDTH 500 0
DWIDTH 16 0
BBX 8 3 4 -4
BITMAP
C3
E7
C3
ENDCHAR
STARTCHAR 0325
ENCODING 805
SWIDTH 500 0
DWIDTH 16 0
BBX 4 4 6 -6
BITMAP
F0
90
90
F0
ENDCHAR
STARTCHAR 0327
ENCODING 807
SWIDTH 500 0
DWIDTH 16 0
BBX 6 7 5 -7
BITMAP
20
60
78
0C
0C
0C
F8
ENDCHAR
STARTCHAR 0329
ENCODING 809
SWIDTH 500 0
DWIDTH 16 0
BBX 2 8 7 -9
BITMAP
C0
C0
C0
C0
C0
C0
C0
C0
ENDCHAR
STARTCHAR 032A
ENCODING 810
SWIDTH 500 0
DWIDTH 16 0
BBX 8 4 4 -7
BITMAP
FF
81
81
81
ENDCHAR
STARTCHAR 032C
ENCODING 812
SWIDTH 500 0
DWIDTH 16 0
BBX 7 4 5 -5
BITMAP
02
CC
78
30
ENDCHAR
STARTCHAR 032F
ENCODING 815
SWIDTH 500 0
DWIDTH 16 0
BBX 8 4 4 -5
BITMAP
3C
42
81
81
ENDCHAR
STARTCHAR 0330
ENCODING 816
SWIDTH 500 0
DWIDTH 16 0
BBX 8 2 4 -4
BITMAP
78
8F
ENDCHAR
STARTCHAR 0332
ENCODING 818
SWIDTH 500 0
DWIDTH 16 0
BBX 16 2 0 -4
BITMAP
FFFF
FFFF
ENDCHAR
STARTCHAR 0334
ENCODING 820
SWIDTH 500 0
DWIDTH 16 0
BBX 9 3 4 8
BITMAP
7000
9980
8700
ENDCHAR
STARTCHAR 0336
ENCODING 822
SWIDTH 906 0
DWIDTH 29 0
BBX 29 1 0 12
BITMAP
FFFFFFF8
ENDCHAR
STARTCHAR 0339
ENCODING 825
SWIDTH 500 0
DWIDTH 16 0
BBX 4 8 6 -9
BITMAP
80
E0
30
10
10
30
E0
80
ENDCHAR
STARTCHAR 033A
ENCODING 826
SWIDTH 500 0
DWIDTH 16 0
BBX 8 4 4 -7
BITMAP
81
81
81
FF
ENDCHAR
STARTCHAR 033B
ENCODING 827
SWIDTH 500 0
DWIDTH 16 0
BBX 8 4 4 -7
BITMAP
FF
81
81
FF
ENDCHAR
STARTCHAR 033C
ENCODING 828
SWIDTH 500 0
DWIDTH 16 0
BBX 8 2 4 -4
BITMAP
7E
99
ENDCHAR
STARTCHAR 033D
ENCODING 829
SWIDTH 500 0
DWIDTH 16 0
BBX 6 6 5 17
BITMAP
84
CC
78
30
78
CC
ENDCHAR
STARTCHAR 0361
ENCODING 865
SWIDTH 0 0
DWIDTH 0 0
BBX 16 4 -8 25
BITMAP
07E0
381C
6006
8001
ENDCHAR
STARTCHAR 0391
ENCODING 913
SWIDTH 1000 0
DWIDTH 32 0
BBX 25 22 4 3
BITMAP
00180000
00180000
003C0000
002C0000
006E0000
00460000
00C60000
00830000
00830000
01838000
01018000
0301C000
0200C000
07FFE000
0400E000
0C006000
08007000
08003000
18003800
10001800
30001C00
FE00FF80
ENDCHAR
STARTCHAR 0392
ENCODING 914
SWIDTH 1000 0
DWIDTH 32 0
BBX 20 22 6 2
BITMAP
FFFC00
1C0700
180180
1801C0
1800C0
1800C0
1801C0
1801C0
180380
180E00
1FF800
180780
1801C0
1800E0
180060
180070
180070
180070
180060
1800E0
1C0380
FFFE00
ENDCHAR
STARTCHAR 0393
ENCODING 915
SWIDTH 1000 0
DWIDTH 32 0
BBX 18 22 7 2
BITMAP
FFFFC0
3C03C0
1800C0
180040
180040
180040
180000
180000
180000
180000
180000
180000
180000
180000
180000
180000
180000
180000
180000
180000
380000
FF0000
ENDCHAR
STARTCHAR 0394
ENCODING 916
SWIDTH 1000 0
DWIDTH 32 0
BBX 22 23 5 2
BITMAP
003000
003000
007000
005800
005800
008C00
008C00
018E00
010600
030700
020300
060380
040180
0C0180
0800C0
0800C0
1000E0
100060
300070
200030
600038
7FFFF8
FFFFFC
ENDCHAR
STARTCHAR 0395
ENCODING 917
SWIDTH 1000 0
DWIDTH 32 0
BBX 19 22 6 2
BITMAP
FFFFC0
3C01C0
180040
180040
180040
180040
180000
180400
180400
180C00
1FFC00
180C00
180400
180400
180400
180000
180020
180020
180020
180060
3C01E0
FFFFE0
ENDCHAR
STARTCHAR 0396
ENCODING 918
SWIDTH 1000 0
DWIDTH 32 0
BBX 18 22 7 2
BITMAP
7FFF80
700180
600380
400700
400E00
401C00
001C00
003800
007000
00E000
00C000
01C000
038000
070000
060000
0E0040
1C0040
380040
3000C0
7000C0
E003C0
FFFFC0
ENDCHAR
STARTCHAR 0397
ENCODING 919
SWIDTH 1000 0
DWIDTH 32 0
BBX 22 22 5 2
BITMAP
FF03FC
380070
380070
180060
180060
180060
180060
180060
180060
180060
1FFFE0
180060
180060
180060
180060
180060
180060
180060
180060
380060
380070
FF03FC
ENDCHAR
STARTCHAR 0398
ENCODING 920
SWIDTH 1000 0
DWIDTH 32 0
BBX 22 23 5 1
BITMAP
00FC00
070300
0E01C0
1C00E0
380070
300030
700038
700038
640098
640098
E7FF9C
E7FF9C
E4009C
640098
600018
700038
700038
300030
380070
1C00E0
0E01C0
070380
01FE00
ENDCHAR
STARTCHAR 0399
ENCODING 921
SWIDTH 1000 0
DWIDTH 32 0
BBX 8 22 12 2
BITMAP
FF
3C
18
18
18
18
18
18
18
18
18
18
18
18
18
18
18
18
18
18
3C
FF
ENDCHAR
STARTCHAR 039A
ENCODING 922
SWIDTH 1000 0
DWIDTH 32 0
BBX 23 22 5 2
BITMAP
FF07F8
1C01C0
180180
180300
180600
180C00
181800
183000
186000
18E000
19F000
1B3800
1E1C00
1C0E00
180600
180700
180380
1801C0
1800E0
180070
1C0078
FF01FE
ENDCHAR
STARTCHAR 039B
ENCODING 923
SWIDTH 1000 0
DWIDTH 32 0
BBX 24 23 4 2
BITMAP
001000
001800
001800
003C00
002C00
006E00
004600
004600
008700
008300
018380
010180
030180
0201C0
0200C0
0600E0
0400E0
0C0060
080070
080030
180038
38003C
FF01FF
ENDCHAR
STARTCHAR 039C
ENCODING 924
SWIDTH 1000 0
DWIDTH 32 0
BBX 26 22 3 2
BITMAP
FC0007C0
3C000F00
3C000E00
1E001E00
16001600
17001600
13002600
13002600
11806600
11804600
11C04600
10C08600
10E08600
10610600
10610600
10730600
10320600
103A0600
101C0600
301C0600
300C0700
FE083FC0
ENDCHAR
STARTCHAR 039D
ENCODING 925
SWIDTH 1000 0
DWIDTH 32 0
BBX 24 23 4 1
BITMAP
FC007F
1E0018
160008
170008
138008
11C008
10E008
106008
107008
103808
101C08
100C08
100E08
100708
100388
1001C8
1001C8
1000E8
100078
100038
180038
FE0018
000008
ENDCHAR
STARTCHAR 039E
ENCODING 926
SWIDTH 1000 0
DWIDTH 32 0
BBX 18 22 7 2
BITMAP
7FFF80
7FFF80
400080
400080
400080
000000
000000
000000
100400
080400
0FFC00
0FFC00
080400
100400
000000
000000
000000
800040
800040
800040
FFFFC0
FFFFC0
ENDCHAR
STARTCHAR 039F
ENCODING 927
SWIDTH 1000 0
DWIDTH 32 0
BBX 22 23 5 1
BITMAP
00FC00
070300
0E01C0
1C00E0
380070
300030
700038
700038
600018
600018
E0001C
E0001C
E0001C
600018
600018
700038
700038
300030
380070
1C00E0
0E01C0
070380
01FE00
ENDCHAR
STARTCHAR 03A0
ENCODING 928
SWIDTH 1000 0
DWIDTH 32 0
BBX 22 22 5 2
BITMAP
FFFFFC
380070
380070
180060
180060
180060
180060
180060
180060
180060
180060
180060
180060
180060
180060
180060
180060
180060
180060
380060
380070
FF03FC
ENDCHAR
STARTCHAR 03A1
ENCODING 929
SWIDTH 1000 0
DWIDTH 32 0
BBX 19 22 7 2
BITMAP
FFFC00
380700
1801C0
1800C0
1800E0
1800E0
1800E0
1800E0
1800C0
1801C0
180700
1FFC00
180000
180000
180000
180000
180000
180000
180000
180000
180000
FF0000
ENDCHAR
STARTCHAR 03A3
ENCODING 931
SWIDTH 1000 0
DWIDTH 32 0
BBX 20 22 6 2
BITMAP
FFFFE0
7000E0
380060
1C0020
0E0020
070000
038000
01C000
00E000
007000
003000
006000
00C000
018000
030000
060010
0C0010
180030
300030
6000F0
FFFFF0
FFFFF0
ENDCHAR
STARTCHAR 03A4
ENCODING 932
SWIDTH 1000 0
DWIDTH 32 0
BBX 20 22 6 2
BITMAP
FFFFF0
E06070
806010
806010
806010
806010
006000
006000
006000
006000
006000
006000
006000
006000
006000
006000
006000
006000
006000
006000
006000
03FC00
ENDCHAR
STARTCHAR 03A5
ENCODING 933
SWIDTH 1000 0
DWIDTH 32 0
BBX 20 22 6 2
BITMAP
1E0780
3F9FC0
619860
C0F030
80F010
806010
006000
006000
006000
006000
006000
006000
006000
006000
006000
006000
006000
006000
006000
006000
006000
03FC00
ENDCHAR
STARTCHAR 03A6
ENCODING 934
SWIDTH 1000 0
DWIDTH 32 0
BBX 22 22 5 2
BITMAP
01FE00
003000
003000
003000
07FF80
1C30E0
383070
703030
603018
603018
E03018
E0301C
603018
603018
703038
383070
1C30E0
07B780
007800
003000
003000
01FE00
ENDCHAR
STARTCHAR 03A7
ENCODING 935
SWIDTH 1000 0
DWIDTH 32 0
BBX 24 22 4 2
BITMAP
7FC1FC
1E0070
0E0060
0700C0
038080
018100
00C300
00E600
007400
003800
001800
003C00
006E00
004700
008380
010180
0301C0
0600E0
0C0070
180038
3C003C
FF01FF
ENDCHAR
STARTCHAR 03A8
ENCODING 936
SWIDTH 1000 0
DWIDTH 32 0
BBX 26 22 3 2
BITMAP
387F8700
7C0C0F80
4C0C0C80
8E0C1C40
0E0C1C00
0E0C1C00
0E0C1C00
0E0C1800
060C1800
060C1800
060C1800
060C1800
030C3000
030C3000
018C6000
00EFC000
001C0000
000C0000
000C0000
000C0000
000C0000
007F8000
ENDCHAR
STARTCHAR 03A9
ENCODING 937
SWIDTH 1000 0
DWIDTH 32 0
BBX 20 22 6 2
BITMAP
01F800
0E0600
1C0380
3801C0
3000C0
6000E0
600060
E00070
E00070
E00070
E00070
E00070
600060
600060
7000E0
3000C0
180180
8E0710
830C10
810810
FF0FF0
FF0FF0
ENDCHAR
STARTCHAR 03B1
ENCODING 945
SWIDTH 1000 0
DWIDTH 32 0
BBX 18 16 7 1
BITMAP
01E180
073100
0C3300
1C1A00
181E00
301C00
701C00
601800
601800
E01800
C03800
C07800
C05840
609840
631C80
3C0F00
ENDCHAR
STARTCHAR 03B2
ENCODING 946
SWIDTH 1000 0
DWIDTH 32 0
BBX 15 27 7 -3
BITMAP
0078
01FC
038E
0206
0606
0406
0C06
0806
0804
1BCC
1BF0
13D0
1018
300C
300C
200C
200C
600C
600C
6018
6038
7870
47C0
C000
C000
C000
C000
ENDCHAR
STARTCHAR 03B3
ENCODING 947
SWIDTH 1000 0
DWIDTH 32 0
BBX 18 20 6 -3
BITMAP
1C01C0
3E0180
630380
C10300
018600
008600
008C00
008800
00D800
005000
007000
006000
006000
004000
00C000
00C000
01C000
01C000
01C000
018000
ENDCHAR
STARTCHAR 03B4
ENCODING 948
SWIDTH 1000 0
DWIDTH 32 0
BBX 14 23 9 1
BITMAP
0FC0
1870
101C
100C
1800
0C00
0700
0180
0660
1830
3030
6018
6018
C018
C018
C038
C038
C030
C070
C060
C0C0
6180
1E00
ENDCHAR
STARTCHAR 03B5
ENCODING 949
SWIDTH 1000 0
DWIDTH 32 0
BBX 13 16 9 1
BITMAP
0FC0
3FF0
7818
6000
6000
6000
3F80
3F80
6000
C000
C000
C000
C008
E010
7060
1F80
ENDCHAR
STARTCHAR 03B6
ENCODING 950
SWIDTH 1000 0
DWIDTH 32 0
BBX 15 27 8 -2
BITMAP
060E
0C3C
0878
0CF0
0FC0
0200
0600
0C00
0800
1800
3000
2000
6000
6000
C000
C000
C000
C000
6000
7800
3F00
0FE0
00F0
0030
0C10
0E20
03C0
ENDCHAR
STARTCHAR 03B7
ENCODING 951
SWIDTH 1000 0
DWIDTH 32 0
BBX 15 20 7 -3
BITMAP
387C
CD8E
8706
0606
0606
0C06
0C06
0C0C
180C
180C
180C
3818
3018
3018
7018
0030
0030
0030
0030
0070
ENDCHAR
STARTCHAR 03B8
ENCODING 952
SWIDTH 1000 0
DWIDTH 32 0
BBX 14 23 9 1
BITMAP
01E0
0630
0C18
1818
181C
300C
700C
600C
600C
E01C
FFFC
C018
C018
C018
C038
C030
C030
C060
C060
C0C0
4180
6300
1E00
ENDCHAR
STARTCHAR 03B9
ENCODING 953
SWIDTH 1000 0
DWIDTH 32 0
BBX 9 15 11 1
BITMAP
1C00
1800
1800
3000
3000
6000
6000
6000
C000
C000
C000
C180
E300
7E00
3C00
ENDCHAR
STARTCHAR 03BA
ENCODING 954
SWIDTH 1000 0
DWIDTH 32 0
BBX 16 16 8 1
BITMAP
0C07
0C1F
0C38
18E0
1980
1B00
1400
3F80
3180
3180
6180
6180
6182
C0C6
C0FC
C070
ENDCHAR
STARTCHAR 03BB
ENCODING 955
SWIDTH 1000 0
DWIDTH 32 0
BBX 17 23 7 1
BITMAP
038000
07C000
08C000
004000
004000
004000
004000
004000
004000
00C000
00C000
01C000
03C000
034000
064000
0E6000
0C6000
186000
386000
306080
703300
E03E00
C01C00
ENDCHAR
STARTCHAR 03BC
ENCODING 956
SWIDTH 1000 0
DWIDTH 32 0
BBX 19 20 6 -3
BITMAP
020100
070380
060300
060300
0C0200
0C0600
080600
180400
180C00
100C00
300C00
381C20
383C60
2C6440
6FE780
678300
600000
400000
C00000
C00000
ENDCHAR
STARTCHAR 03BD
ENCODING 957
SWIDTH 1000 0
DWIDTH 32 0
BBX 16 16 8 1
BITMAP
3806
FC07
8C07
0C01
0C01
0C01
0C03
0C06
0C0E
0C1C
0C38
08F0
0BC0
1F80
1E00
1800
ENDCHAR
STARTCHAR 03BE
ENCODING 958
SWIDTH 1000 0
DWIDTH 32 0
BBX 12 28 10 -3
BITMAP
0800
3070
31E0
1F80
0400
0800
1800
1000
3000
3000
3000
1BE0
0FC0
3000
6000
C000
C000
C000
C000
C000
E000
7E00
3F80
01C0
00C0
20C0
7180
1F00
ENDCHAR
STARTCHAR 03BF
ENCODING 959
SWIDTH 1000 0
DWIDTH 32 0
BBX 14 16 9 1
BITMAP
07C0
0C70
1838
3018
701C
601C
600C
600C
E01C
E01C
6018
6018
6030
3070
18E0
0F80
ENDCHAR
STARTCHAR 03C0
ENCODING 960
SWIDTH 1000 0
DWIDTH 32 0
BBX 17 17 8 1
BITMAP
000180
3FFF00
7FFE00
C62000
842000
042000
0C6000
086000
084000
184000
18C000
10C000
30C000
30C200
60E600
607C00
E03800
ENDCHAR
STARTCHAR 03C1
ENCODING 961
SWIDTH 1000 0
DWIDTH 32 0
BBX 16 20 7 -3
BITMAP
00F8
030C
0606
0C06
0807
1803
1803
3803
3807
3806
2806
6C0C
6618
63F0
6000
6000
C000
C000
C000
C000
ENDCHAR
STARTCHAR 03C2
ENCODING 962
SWIDTH 500 0
DWIDTH 16 0
BBX 14 22 1 -6
BITMAP
07E0
0C30
1818
300C
701C
601C
601C
6000
7000
3000
3800
1C00
0E00
0780
0180
00C0
00C0
00C0
E0C0
E0C0
7180
3F00
ENDCHAR
STARTCHAR 03C3
ENCODING 963
SWIDTH 1000 0
DWIDTH 32 0
BBX 16 16 9 1
BITMAP
07FF
083F
1010
3018
6018
601C
600C
601C
E01C
E01C
6018
6018
6038
3070
18E0
0F80
ENDCHAR
STARTCHAR 03C4
ENCODING 964
SWIDTH 1000 0
DWIDTH 32 0
BBX 16 17 8 1
BITMAP
0001
3FFF
7FFE
C080
8100
0100
0200
0200
0600
0400
0C00
0C00
0C00
0C10
0C30
0FE0
0780
ENDCHAR
STARTCHAR 03C5
ENCODING 965
SWIDTH 1000 0
DWIDTH 32 0
BBX 16 16 7 1
BITMAP
3806
4C0E
8407
0407
0C03
0C01
0C01
1801
1801
3001
3002
3002
3004
3808
1C30
07C0
ENDCHAR
STARTCHAR 03C6
ENCODING 966
SWIDTH 1000 0
DWIDTH 32 0
BBX 18 26 7 -3
BITMAP
001C00
001800
001800
001000
001000
003000
01F800
062600
182300
306180
704180
604180
604180
E081C0
E08180
608180
618380
610300
310600
191C00
07F000
020000
020000
060000
060000
0E0000
ENDCHAR
STARTCHAR 03C7
ENCODING 967
SWIDTH 1000 0
DWIDTH 32 0
BBX 16 20 8 -3
BITMAP
3C06
7E0E
860C
0218
0338
0330
0160
0160
01C0
0180
0380
0380
0680
0C80
1C80
1881
30C2
7066
607C
C038
ENDCHAR
STARTCHAR 03C8
ENCODING 968
SWIDTH 1000 0
DWIDTH 32 0
BBX 18 25 7 -3
BITMAP
001C00
001800
001800
001800
021000
063100
0C3180
182180
302080
6060C0
6060C0
6040C0
6040C0
E0C0C0
6081C0
608180
608380
318700
190E00
0FF800
030000
030000
020000
060000
060000
ENDCHAR
STARTCHAR 03C9
ENCODING 969
SWIDTH 1000 0
DWIDTH 32 0
BBX 20 16 6 1
BITMAP
0200C0
040040
180060
100020
300030
601030
603030
C07030
C07030
C06030
C06030
C04060
E0C060
61A0C0
7F3180
1E1F00
ENDCHAR
STARTCHAR 0401
ENCODING 1025
SWIDTH 1000 0
DWIDTH 32 0
BBX 19 26 6 2
BITMAP
0E0700
0E0700
0E0700
000000
FFFFC0
3C01C0
180040
180040
180040
180040
180000
180400
180400
180C00
1FFC00
180C00
180400
180400
180400
180000
180020
180020
180020
180060
3C01E0
FFFFE0
ENDCHAR
STARTCHAR 0410
ENCODING 1040
SWIDTH 1000 0
DWIDTH 32 0
BBX 25 22 4 3
BITMAP
00180000
00180000
003C0000
002C0000
006E0000
00460000
00C60000
00830000
00830000
01838000
01018000
0301C000
0200C000
07FFE000
0400E000
0C006000
08007000
08003000
18003800
10001800
30001C00
FE00FF80
ENDCHAR
STARTCHAR 0411
ENCODING 1041
SWIDTH 1000 0
DWIDTH 32 0
BBX 20 22 6 2
BITMAP
FFFFC0
1C01C0
1800C0
180040
180040
180040
180000
180000
180000
180000
1FFE00
180380
1800C0
180060
180060
180070
180070
180060
180060
1800C0
1C0380
FFFE00
ENDCHAR
STARTCHAR 0412
ENCODING 1042
SWIDTH 1000 0
DWIDTH 32 0
BBX 20 22 6 2
BITMAP
FFFC00
1C0700
180180
1801C0
1800C0
1800C0
1801C0
1801C0
180380
180E00
1FF800
180780
1801C0
1800E0
180060
180070
180070
180070
180060
1800E0
1C0380
FFFE00
ENDCHAR
STARTCHAR 0413
ENCODING 1043
SWIDTH 1000 0
DWIDTH 32 0
BBX 18 22 7 2
BITMAP
FFFFC0
3C03C0
1800C0
180040
180040
180040
180000
180000
180000
180000
180000
180000
180000
180000
180000
180000
180000
180000
180000
180000
380000
FF0000
ENDCHAR
STARTCHAR 0414
ENCODING 1044
SWIDTH 1000 0
DWIDTH 32 0
BBX 22 26 5 -2
BITMAP
0FFFFC
0300E0
0300E0
0200E0
0200E0
0200E0
0200E0
0200E0
0200E0
0200E0
0200E0
0600E0
0400E0
0400E0
0C00E0
0800E0
0800E0
1000E0
1000E0
2000E0
6000E0
FFFFFC
C0001C
800004
800004
800004
ENDCHAR
STARTCHAR 0415
ENCODING 1045
SWIDTH 1000 0
DWIDTH 32 0
BBX 19 22 6 2
BITMAP
FFFFC0
3C01C0
180040
180040
180040
180040
180000
180400
180400
180C00
1FFC00
180C00
180400
180400
180400
180000
180020
180020
180020
180060
3C01E0
FFFFE0
ENDCHAR
STARTCHAR 0416
ENCODING 1046
SWIDTH 1000 0
DWIDTH 32 0
BBX 28 22 2 2
BITMAP
383FC1C0
64060260
740602E0
62060660
02060400
02060400
01060C00
01060800
00861000
00462000
007FE000
00E67000
00C63000
01861800
03861C00
07060E00
06060600
0E060700
1C060380
18060180
380601C0
FE3FC7F0
ENDCHAR
STARTCHAR 0417
ENCODING 1047
SWIDTH 1000 0
DWIDTH 32 0
BBX 17 23 8 1
BITMAP
07F000
3C1C00
700E00
600600
400600
000700
000600
000600
000C00
003800
07E000
001C00
000E00
000700
000300
000300
800380
800300
C00300
E00700
E00E00
381C00
0FF000
ENDCHAR
STARTCHAR 0418
ENCODING 1048
SWIDTH 1000 0
DWIDTH 32 0
BBX 22 22 5 2
BITMAP
FF03FC
380070
380060
180060
180060
1800E0
180160
180260
180460
181860
183060
186060
188060
190060
1A0060
1C0060
180060
180060
180060
380060
380070
FF03FC
ENDCHAR
STARTCHAR 0419
ENCODING 1049
SWIDTH 1000 0
DWIDTH 32 0
BBX 22 26 5 2
BITMAP
038700
038700
010200
00FC00
FF03FC
380070
380060
180060
180060
1800E0
180160
180260
180460
181860
183060
186060
188060
190060
1A0060
1C0060
180060
180060
180060
380060
380070
FF03FC
ENDCHAR
STARTCHAR 041A
ENCODING 1050
SWIDTH 1000 0
DWIDTH 32 0
BBX 23 22 5 2
BITMAP
FF00F8
1C01B8
180338
180238
180200
180400
180C00
180800
183000
18E000
1F7000
183800
181C00
180E00
180600
180700
180380
1801C0
1800E0
180070
1C0078
FF01FE
ENDCHAR
STARTCHAR 041B
ENCODING 1051
SWIDTH 1000 0
DWIDTH 32 0
BBX 23 23 4 1
BITMAP
03FFFE
00E070
004030
004030
004030
004030
004030
004030
004030
004030
004030
004030
004030
004030
00C030
008030
E08030
E08030
E08030
818030
810070
C201FE
3C0000
ENDCHAR
STARTCHAR 041C
ENCODING 1052
SWIDTH 1000 0
DWIDTH 32 0
BBX 28 22 2 2
BITMAP
3F000FC0
0F000F00
07800F00
05801700
0D801700
0CC03300
0CC02300
08E02300
08604300
08604300
0870C300
08308300
08388300
08190300
08190300
081E0380
180E0380
180E0380
18040180
10040180
18000380
FF001FF0
ENDCHAR
STARTCHAR 041D
ENCODING 1053
SWIDTH 1000 0
DWIDTH 32 0
BBX 22 22 5 2
BITMAP
FF03FC
380070
380070
180060
180060
180060
180060
180060
180060
180060
1FFFE0
180060
180060
180060
180060
180060
180060
180060
180060
380060
380070
FF03FC
ENDCHAR
STARTCHAR 041E
ENCODING 1054
SWIDTH 1000 0
DWIDTH 32 0
BBX 22 23 5 1
BITMAP
00FC00
070300
0E01C0
1C00E0
380070
300030
700038
700038
600018
600018
E0001C
E0001C
E0001C
600018
600018
700038
700038
300030
380070
1C00E0
0E01C0
070380
01FE00
ENDCHAR
STARTCHAR 041F
ENCODING 1055
SWIDTH 1000 0
DWIDTH 32 0
BBX 22 22 5 2
BITMAP
FFFFFC
380070
380070
180060
180060
180060
180060
180060
180060
180060
180060
180060
180060
180060
180060
180060
180060
180060
180060
380060
380070
FF03FC
ENDCHAR
STARTCHAR 0420
ENCODING 1056
SWIDTH 1000 0
DWIDTH 32 0
BBX 19 22 7 2
BITMAP
FFFC00
380700
1801C0
1800C0
1800E0
1800E0
1800E0
1800E0
1800C0
1801C0
180700
1FFC00
180000
180000
180000
180000
180000
180000
180000
180000
180000
FF0000
ENDCHAR
STARTCHAR 0421
ENCODING 1057
SWIDTH 1000 0
DWIDTH 32 0
BBX 20 23 6 1
BITMAP
00FF00
0701C0
0C0070
180030
300030
600010
600000
E00000
C00000
C00000
C00000
C00000
C00000
C00000
C00000
E00010
E00010
700010
300030
380030
1C0070
0701C0
01FF00
ENDCHAR
STARTCHAR 0422
ENCODING 1058
SWIDTH 1000 0
DWIDTH 32 0
BBX 20 22 6 2
BITMAP
FFFFF0
E06070
806010
806010
806010
806010
006000
006000
006000
006000
006000
006000
006000
006000
006000
006000
006000
006000
006000
006000
006000
03FC00
ENDCHAR
STARTCHAR 0423
ENCODING 1059
SWIDTH 1000 0
DWIDTH 32 0
BBX 22 23 5 1
BITMAP
FF83FC
1E0060
0C0060
060040
0700C0
030080
038180
018100
01C100
00C200
00E200
006400
007400
003800
001800
001800
001000
303000
782000
784000
30C000
318000
0F0000
ENDCHAR
STARTCHAR 0424
ENCODING 1060
SWIDTH 1000 0
DWIDTH 32 0
BBX 22 22 5 2
BITMAP
01FE00
003000
003000
003000
07FF80
1C30E0
383070
703030
603018
603018
E03018
E0301C
603018
603018
703038
383070
1C30E0
07B780
007800
003000
003000
01FE00
ENDCHAR
STARTCHAR 0425
ENCODING 1061
SWIDTH 1000 0
DWIDTH 32 0
BBX 24 22 4 2
BITMAP
7FC1FC
1E0070
0E0060
0700C0
038080
018100
00C300
00E600
007400
003800
001800
003C00
006E00
004700
008380
010180
0301C0
0600E0
0C0070
180038
3C003C
FF01FF
ENDCHAR
STARTCHAR 0426
ENCODING 1062
SWIDTH 1000 0
DWIDTH 32 0
BBX 23 26 4 -2
BITMAP
FF03FE
1C0070
1C0070
1C0070
1C0070
1C0070
1C0070
1C0070
1C0070
1C0070
1C0070
1C0070
1C0070
1C0070
1C0070
1C0070
1C0070
1C0070
1C0070
1C0070
1C0070
FFFFFE
00000E
000002
000002
000002
ENDCHAR
STARTCHAR 0427
ENCODING 1063
SWIDTH 1000 0
DWIDTH 32 0
BBX 21 22 5 2
BITMAP
FF07F8
1C00E0
1800C0
1800C0
1800C0
1800C0
1800C0
1800C0
1800C0
1800C0
1800C0
0C01C0
0C03C0
0706C0
01F8C0
0000C0
0000C0
0000C0
0000C0
0000C0
0000E0
0007F8
ENDCHAR
STARTCHAR 0428
ENCODING 1064
SWIDTH 1000 0
DWIDTH 32 0
BBX 28 22 2 2
BITMAP
FF3FCFF0
1C0E0380
1C060380
1C060380
1C060380
1C060380
1C060380
1C060380
1C060380
1C060380
1C060380
1C060380
1C060380
1C060380
1C060380
1C060380
1C060380
1C060380
1C060380
1C060380
1C060380
FFFFFFF0
ENDCHAR
STARTCHAR 0429
ENCODING 1065
SWIDTH 1000 0
DWIDTH 32 0
BBX 28 26 2 -2
BITMAP
FF3F9FE0
1C0E0380
18060300
18060300
18060300
18060300
18060300
18060300
18060300
18060300
18060300
18060300
18060300
18060300
18060300
18060300
18060300
18060300
18060300
18060300
180E0380
FFFFFFF0
00000070
00000030
00000010
00000010
ENDCHAR
STARTCHAR 042A
ENCODING 1066
SWIDTH 1000 0
DWIDTH 32 0
BBX 24 22 4 2
BITMAP
FFF800
E1C000
C0C000
80C000
80C000
80C000
00C000
00C000
00C000
00C000
00FFE0
00C03C
00C00E
00C007
00C007
00C003
00C003
00C007
00C007
00C00E
01C01C
07FFF0
ENDCHAR
STARTCHAR 042B
ENCODING 1067
SWIDTH 1000 0
DWIDTH 32 0
BBX 26 22 3 2
BITMAP
FF003FC0
38000700
18000600
18000600
18000600
18000600
18000600
18000600
18000600
18000600
1FFC0600
180F0600
18038600
1801C600
1800C600
1800C600
1800C600
1800C600
1801C600
18038600
38070700
FFFC3FC0
ENDCHAR
STARTCHAR 042C
ENCODING 1068
SWIDTH 1000 0
DWIDTH 32 0
BBX 20 22 6 2
BITMAP
FF8000
1C0000
1C0000
1C0000
1C0000
1C0000
1C0000
1C0000
1C0000
1C0000
1FFE00
1C03C0
1C00E0
1C0060
1C0070
1C0070
1C0070
1C0070
1C0060
1C00E0
1C03C0
FFFE00
ENDCHAR
STARTCHAR 042D
ENCODING 1069
SWIDTH 1000 0
DWIDTH 32 0
BBX 20 23 6 1
BITMAP
0FF000
780E00
E00380
C001C0
C000E0
8000E0
000070
000070
078030
0FE030
10F0F0
003FB0
000F30
000030
000070
800070
800060
8000E0
C000C0
C001C0
E00300
380E00
0FF000
ENDCHAR
STARTCHAR 042E
ENCODING 1070
SWIDTH 1000 0
DWIDTH 32 0
BBX 27 23 2 1
BITMAP
FF81F800
1C070E00
1C0C0300
1C1C0180
1C180180
1C3800C0
1C3000C0
1C3000E0
1C3000E0
1C3000E0
1FF000E0
1C7000E0
1C3000E0
1C3000E0
1C3000E0
1C3000E0
1C3800C0
1C1800C0
1C1801C0
1C0C0180
1C0E0300
FF870E00
0001F800
ENDCHAR
STARTCHAR 042F
ENCODING 1071
SWIDTH 1000 0
DWIDTH 32 0
BBX 21 23 5 1
BITMAP
01FFF8
0700E0
0C00C0
1C00C0
1800C0
1800C0
1800C0
1C00C0
1C00C0
0700C0
01FFC0
0060C0
00E0C0
00C0C0
01C0C0
0380C0
0380C0
0700C0
0E00C0
1C00C0
3800E0
E007F8
800000
ENDCHAR
STARTCHAR 0430
ENCODING 1072
SWIDTH 1000 0
DWIDTH 32 0
BBX 16 16 9 1
BITMAP
1FC0
70E0
6070
7030
7030
0030
03F0
0C30
3030
6030
E030
C030
C030
E071
60BE
3F1C
ENDCHAR
STARTCHAR 0431
ENCODING 1073
SWIDTH 1000 0
DWIDTH 32 0
BBX 16 23 8 2
BITMAP
0002
0006
01FC
07F0
1C00
3000
2000
67E0
4C38
700C
700C
E006
E006
E007
E007
E007
6007
6006
6006
300E
381C
1C38
07E0
ENDCHAR
STARTCHAR 0432
ENCODING 1074
SWIDTH 1000 0
DWIDTH 32 0
BBX 16 15 7 2
BITMAP
FFF0
181C
180E
1806
1806
180C
1818
1FF0
180E
1807
1803
1803
1807
180E
FFF8
ENDCHAR
STARTCHAR 0433
ENCODING 1075
SWIDTH 1000 0
DWIDTH 32 0
BBX 14 15 9 2
BITMAP
FFFC
380C
3004
3004
3004
3000
3000
3000
3000
3000
3000
3000
3000
3000
FE00
ENDCHAR
STARTCHAR 0434
ENCODING 1076
SWIDTH 1000 0
DWIDTH 32 0
BBX 18 19 7 -2
BITMAP
1FFFC0
060600
020600
020600
040600
040600
040600
040600
040600
080600
080600
100600
100600
200600
FFFFC0
C000C0
800040
800040
800040
ENDCHAR
STARTCHAR 0435
ENCODING 1077
SWIDTH 1000 0
DWIDTH 32 0
BBX 15 16 8 1
BITMAP
07E0
1C38
301C
300C
600E
6006
FFFE
E000
E000
E000
6000
7002
7004
380C
1C18
07E0
ENDCHAR
STARTCHAR 0436
ENCODING 1078
SWIDTH 1000 0
DWIDTH 32 0
BBX 26 15 3 2
BITMAP
383F0700
3C0C0F00
320C1300
020C1000
010C2000
018C6000
01EDE000
019E6000
030C3000
030C3000
060C1800
0C0C0C00
0C0C0C00
180C0600
FE3F1FC0
ENDCHAR
STARTCHAR 0437
ENCODING 1079
SWIDTH 1000 0
DWIDTH 32 0
BBX 13 16 10 1
BITMAP
1F80
F0E0
C060
C070
8070
0060
00C0
1F80
0060
0030
0030
8038
8030
C030
E0E0
3F80
ENDCHAR
STARTCHAR 0438
ENCODING 1080
SWIDTH 1000 0
DWIDTH 32 0
BBX 18 15 7 2
BITMAP
FE1FC0
380700
380700
380E00
381E00
383600
386600
388600
390600
3A0600
3C0600
380600
380700
380700
FE1FC0
ENDCHAR
STARTCHAR 0439
ENCODING 1081
SWIDTH 1000 0
DWIDTH 32 0
BBX 18 21 7 2
BITMAP
061800
0E1C00
0E1C00
061800
01F000
000000
FE1FC0
380700
380700
380E00
381E00
383600
386600
388600
390600
3A0600
3C0600
380600
380700
380700
FE1FC0
ENDCHAR
STARTCHAR 043A
ENCODING 1082
SWIDTH 1000 0
DWIDTH 32 0
BBX 19 15 7 2
BITMAP
FF0380
180780
180980
181800
181000
186000
1FE000
187000
183000
181800
180C00
180E00
180700
180780
FF1FE0
ENDCHAR
STARTCHAR 043B
ENCODING 1083
SWIDTH 1000 0
DWIDTH 32 0
BBX 20 16 5 1
BITMAP
07FFF0
008180
008180
008180
008180
008180
008180
008180
008180
008180
010180
E10180
E10180
C30180
660FF0
3C0000
ENDCHAR
STARTCHAR 043C
ENCODING 1084
SWIDTH 1000 0
DWIDTH 32 0
BBX 21 15 6 2
BITMAP
F801F8
3801C0
2C02C0
2C02C0
2604C0
2604C0
2608C0
2308C0
2308C0
2190C0
2190C0
20E0C0
20E0C0
20C0C0
FC47F8
ENDCHAR
STARTCHAR 043D
ENCODING 1085
SWIDTH 1000 0
DWIDTH 32 0
BBX 18 15 7 2
BITMAP
FE1FC0
380700
380700
380600
380600
380600
380600
3FFE00
380600
380600
380600
380600
380600
380700
FE1FC0
ENDCHAR
STARTCHAR 043E
ENCODING 1086
SWIDTH 1000 0
DWIDTH 32 0
BBX 16 16 8 1
BITMAP
07E0
1C38
380C
300C
6006
6006
E007
E007
E007
E007
6006
6006
700E
381C
1C38
07E0
ENDCHAR
STARTCHAR 043F
ENCODING 1087
SWIDTH 1000 0
DWIDTH 32 0
BBX 18 15 7 2
BITMAP
FFFFC0
380700
180600
180600
180600
180600
180600
180600
180600
180600
180600
180600
180600
380700
FE1FC0
ENDCHAR
STARTCHAR 0440
ENCODING 1088
SWIDTH 1000 0
DWIDTH 32 0
BBX 17 21 7 -3
BITMAP
080000
F9F800
1E0C00
1C0600
180300
180300
180380
180380
180380
180380
180300
180300
1C0600
1E0C00
19F800
180000
180000
180000
180000
180000
FF0000
ENDCHAR
STARTCHAR 0441
ENCODING 1089
SWIDTH 1000 0
DWIDTH 32 0
BBX 14 16 9 1
BITMAP
0FC0
1830
3038
6038
E038
C000
C000
C000
C000
C000
C000
E004
6008
7018
3830
0FC0
ENDCHAR
STARTCHAR 0442
ENCODING 1090
SWIDTH 1000 0
DWIDTH 32 0
BBX 14 15 9 2
BITMAP
FFFC
C30C
8304
8304
0300
0300
0300
0300
0300
0300
0300
0300
0300
0300
1FE0
ENDCHAR
STARTCHAR 0443
ENCODING 1091
SWIDTH 1000 0
DWIDTH 32 0
BBX 19 20 7 -3
BITMAP
FF1FE0
380380
180300
0C0200
0C0600
060400
060C00
030800
038800
019000
01D000
00E000
00E000
004000
004000
00C000
008000
398000
3B0000
1E0000
ENDCHAR
STARTCHAR 0444
ENCODING 1092
SWIDTH 1000 0
DWIDTH 32 0
BBX 18 28 7 -3
BITMAP
00C000
07C000
00C000
00C000
00C000
00C000
00C000
00C000
1FFE00
30C300
60C180
60C180
C0C0C0
C0C0C0
C0C0C0
C0C0C0
C0C0C0
C0C0C0
E0C0C0
60C180
60C180
31E300
1EDE00
00C000
00C000
00C000
00C000
07F800
ENDCHAR
STARTCHAR 0445
ENCODING 1093
SWIDTH 1000 0
DWIDTH 32 0
BBX 20 15 6 2
BITMAP
7F9FE0
0C0300
060600
030C00
039800
01F000
00E000
006000
00B000
011800
020C00
040600
080700
380380
FE0FF0
ENDCHAR
STARTCHAR 0446
ENCODING 1094
SWIDTH 1000 0
DWIDTH 32 0
BBX 18 19 7 -2
BITMAP
FE3F80
380E00
300600
300600
300600
300600
300600
300600
300600
300600
300600
300600
300600
380E00
FFFFC0
0000C0
0000C0
000040
000040
ENDCHAR
STARTCHAR 0447
ENCODING 1095
SWIDTH 1000 0
DWIDTH 32 0
BBX 17 15 7 2
BITMAP
FE3F80
380E00
300600
300600
300600
300600
300600
180600
1C1E00
07E600
000600
000600
000600
000600
003F80
ENDCHAR
STARTCHAR 0448
ENCODING 1096
SWIDTH 1000 0
DWIDTH 32 0
BBX 24 15 4 2
BITMAP
FE7E7F
38181C
38181C
30180C
30180C
30180C
30180C
30180C
30180C
30180C
30180C
30180C
30181C
38181C
FFFFFF
ENDCHAR
STARTCHAR 0449
ENCODING 1097
SWIDTH 1000 0
DWIDTH 32 0
BBX 25 19 4 -2
BITMAP
FE7E7F00
38181C00
38181C00
30180C00
30180C00
30180C00
30180C00
30180C00
30180C00
30180C00
30180C00
30180C00
30181C00
38181C00
FFFFFF80
00000380
00000180
00000080
00000080
ENDCHAR
STARTCHAR 044A
ENCODING 1098
SWIDTH 1000 0
DWIDTH 32 0
BBX 18 15 7 2
BITMAP
FFC000
CE0000
860000
860000
060000
060000
060000
07FE00
060380
060180
0601C0
0601C0
0601C0
060380
3FFE00
ENDCHAR
STARTCHAR 044B
ENCODING 1099
SWIDTH 1000 0
DWIDTH 32 0
BBX 22 15 5 2
BITMAP
FE01FC
380070
380070
300030
300030
300030
300030
3FF030
301C30
300E30
300630
300630
300E70
381C70
FFF1FC
ENDCHAR
STARTCHAR 044C
ENCODING 1100
SWIDTH 1000 0
DWIDTH 32 0
BBX 16 15 8 2
BITMAP
FF00
3800
1800
1800
1800
1800
1800
1FF8
180E
1806
1807
1807
1806
180E
FFF8
ENDCHAR
STARTCHAR 044D
ENCODING 1101
SWIDTH 1000 0
DWIDTH 32 0
BBX 16 16 8 1
BITMAP
0FE0
7838
601C
400E
4006
0007
0E07
318F
2077
0007
0006
0006
C00C
601C
3830
0FE0
ENDCHAR
STARTCHAR 044E
ENCODING 1102
SWIDTH 1000 0
DWIDTH 32 0
BBX 24 16 4 1
BITMAP
FF07E0
181C38
18381C
18300C
186006
186006
186006
1FE007
186007
186006
186006
186006
18300C
18381C
FF1C38
0007E0
ENDCHAR
STARTCHAR 044F
ENCODING 1103
SWIDTH 1000 0
DWIDTH 32 0
BBX 16 16 8 1
BITMAP
0FFF
380C
700C
600C
600C
700C
380C
0FFC
070C
060C
0C0C
1C0C
180C
300C
C07F
8000
ENDCHAR
STARTCHAR 0451
ENCODING 1105
SWIDTH 1000 0
DWIDTH 32 0
BBX 15 22 8 1
BITMAP
1818
1C38
1818
0000
0000
0000
07E0
1C38
301C
300C
600E
6006
FFFE
E000
E000
E000
6000
7002
7004
380C
1C18
07E0
ENDCHAR
STARTCHAR 1E3E
ENCODING 7742
SWIDTH 968 0
DWIDTH 31 0
BBX 28 29 1 0
BITMAP
00008000
0001C000
00030000
000E0000
00000000
00000000
FE0007F0
1F000780
1B000580
0B000D80
0B800980
09800980
09801980
08C01180
08C03180
08E03180
08602180
08606180
08704180
08304180
0830C180
08188180
08198180
081D8180
080D0180
080F0180
180E0380
1C060380
FF061FF0
ENDCHAR
STARTCHAR 1E3F
ENCODING 7743
SWIDTH 906 0
DWIDTH 29 0
BBX 27 23 1 1
BITMAP
00018000
00038000
00060000
00080000
00000000
00000000
00000000
F8F07C00
1B1C8600
1C0D0300
1C0E0300
18060300
18060300
18060300
18060300
18060300
18060300
18060300
18060300
18060300
18060300
1C0E0380
FF3FDFE0
ENDCHAR
STARTCHAR 1F70
ENCODING 8048
SWIDTH 593 0
DWIDTH 19 0
BBX 16 23 2 1
BITMAP
1800
0C00
0600
0100
0000
0000
0000
0F88
1868
3038
6018
E018
C018
C018
C018
C018
C018
C018
E018
6018
7028
384D
0F8E
ENDCHAR
STARTCHAR 1F71
ENCODING 8049
SWIDTH 593 0
DWIDTH 19 0
BBX 16 23 2 1
BITMAP
0060
00E0
0180
0300
0000
0000
0000
0F88
1868
3038
6018
E018
C018
C018
C018
C018
C018
C018
E018
6018
7028
384D
0F8E
ENDCHAR
STARTCHAR 1F72
ENCODING 8050
SWIDTH 531 0
DWIDTH 17 0
BBX 13 23 2 1
BITMAP
1800
1C00
0600
0200
0000
0000
0000
0FE0
3810
6000
6000
6000
6000
3BC0
1FC0
7000
6000
C000
C000
C000
E008
7038
1FE0
ENDCHAR
STARTCHAR 1F73
ENCODING 8051
SWIDTH 531 0
DWIDTH 17 0
BBX 13 23 2 1
BITMAP
0060
00C0
0180
0200
0000
0000
0000
0FE0
3810
6000
6000
6000
6000
3BC0
1FC0
7000
6000
C000
C000
C000
E008
7038
1FE0
ENDCHAR
STARTCHAR 2002
ENCODING 8194
SWIDTH 500 0
DWIDTH 16 0
BBX 0 0 0 0
BITMAP
ENDCHAR
STARTCHAR 2003
ENCODING 8195
SWIDTH 1000 0
DWIDTH 32 0
BBX 0 0 0 0
BITMAP
ENDCHAR
STARTCHAR 2010
ENCODING 8208
SWIDTH 281 0
DWIDTH 9 0
BBX 7 2 1 8
BITMAP
FE
FE
ENDCHAR
STARTCHAR 2011
ENCODING 8209
SWIDTH 281 0
DWIDTH 9 0
BBX 7 2 1 8
BITMAP
FE
FE
ENDCHAR
STARTCHAR 2012
ENCODING 8210
SWIDTH 281 0
DWIDTH 9 0
BBX 7 2 1 8
BITMAP
FE
FE
ENDCHAR
STARTCHAR 2013
ENCODING 8211
SWIDTH 562 0
DWIDTH 18 0
BBX 14 1 2 9
BITMAP
FFFC
ENDCHAR
STARTCHAR 2014
ENCODING 8212
SWIDTH 906 0
DWIDTH 29 0
BBX 29 1 0 12
BITMAP
FFFFFFF8
ENDCHAR
STARTCHAR 2015
ENCODING 8213
SWIDTH 1000 0
DWIDTH 32 0
BBX 28 1 2 12
BITMAP
FFFFFFF0
ENDCHAR
STARTCHAR 2016
ENCODING 8214
SWIDTH 1000 0
DWIDTH 32 0
BBX 6 32 13 -4
BITMAP
84
84
84
84
84
84
84
84
84
84
84
84
84
84
84
84
84
84
84
84
84
84
84
84
84
84
84
84
84
84
84
84
ENDCHAR
STARTCHAR 2018
ENCODING 8216
SWIDTH 1000 0
DWIDTH 32 0
BBX 4 9 25 18
BITMAP
10
30
60
40
C0
F0
F0
F0
60
ENDCHAR
STARTCHAR 2019
ENCODING 8217
SWIDTH 1000 0
DWIDTH 32 0
BBX 4 8 3 18
BITMAP
60
F0
F0
70
30
60
40
80
ENDCHAR
STARTCHAR 201C
ENCODING 8220
SWIDTH 1000 0
DWIDTH 32 0
BBX 10 9 19 18
BITMAP
1040
20C0
6180
C100
C300
E3C0
F3C0
F3C0
E180
ENDCHAR
STARTCHAR 201D
ENCODING 8221
SWIDTH 1000 0
DWIDTH 32 0
BBX 10 8 3 18
BITMAP
61C0
F3C0
F3C0
71C0
30C0
6080
4180
8300
ENDCHAR
STARTCHAR 2020
ENCODING 8224
SWIDTH 1000 0
DWIDTH 32 0
BBX 12 28 10 -2
BITMAP
0600
0F00
0F00
0F00
0600
E6F0
FFF0
FFF0
E670
0600
0F00
0F00
0600
0600
0600
0600
0600
0600
0600
0600
0600
0600
0600
0600
0600
0600
0600
0600
ENDCHAR
STARTCHAR 2021
ENCODING 8225
SWIDTH 1000 0
DWIDTH 32 0
BBX 12 30 10 -3
BITMAP
0600
0F00
0F00
0600
E670
FFF0
FFF0
E670
0F00
0600
0600
0600
0600
0600
0400
0400
0600
0600
0600
0600
0600
0600
F6F0
FFF0
F6F0
0600
0600
0F00
0F00
0600
ENDCHAR
STARTCHAR 2022
ENCODING 8226
SWIDTH 343 0
DWIDTH 11 0
BBX 5 5 3 8
BITMAP
70
F8
F8
F8
70
ENDCHAR
STARTCHAR 2025
ENCODING 8229
SWIDTH 1000 0
DWIDTH 32 0
BBX 20 4 6 10
BITMAP
600060
F000F0
F000F0
600060
ENDCHAR
STARTCHAR 2026
ENCODING 8230
SWIDTH 1000 0
DWIDTH 32 0
BBX 26 4 3 10
BITMAP
700C0380
F01E03C0
F01E03C0
700C0380
ENDCHAR
STARTCHAR 2030
ENCODING 8240
SWIDTH 1000 0
DWIDTH 32 0
BBX 28 29 2 -2
BITMAP
00018000
00010000
3C030000
66020000
43060000
C3040000
C30C0000
C3080000
C3180000
C3100000
C3300000
43200000
66600000
3C400000
00C00000
00800000
018E03C0
01118660
03318C20
0220CC30
0660CC30
0460D830
0C60C830
0860CC30
1820CC30
10318C20
30118660
200E03C0
20000000
ENDCHAR
STARTCHAR 2032
ENCODING 8242
SWIDTH 250 0
DWIDTH 8 0
BBX 4 8 2 18
BITMAP
30
60
60
40
40
C0
80
80
ENDCHAR
STARTCHAR 2033
ENCODING 8243
SWIDTH 406 0
DWIDTH 13 0
BBX 9 8 2 18
BITMAP
3180
6300
6300
4200
4200
C600
8400
8800
ENDCHAR
STARTCHAR 203B
ENCODING 8251
SWIDTH 1000 0
DWIDTH 32 0
BBX 26 25 3 -1
BITMAP
400C0080
601E0180
301E0300
181E0600
0C0C0C00
06001800
03003000
01806000
00C0C000
00618000
70330380
F81E0780
F80C07C0
F81E0780
70330380
00618000
00C0C000
01806000
03003000
06001800
0C0C0C00
181E0600
301E0300
601E0180
C00E00C0
ENDCHAR
STARTCHAR 203C
ENCODING 8252
SWIDTH 468 0
DWIDTH 15 0
BBX 9 23 3 0
BITMAP
4300
E300
E380
E380
E300
E300
E300
6300
6300
6300
4300
4300
4100
4100
4100
4100
0000
0000
0000
E300
E380
E780
E380
ENDCHAR
STARTCHAR 203E
ENCODING 8254
SWIDTH 500 0
DWIDTH 16 0
BBX 8 1 4 20
BITMAP
FF
ENDCHAR
STARTCHAR 203F
ENCODING 8255
SWIDTH 437 0
DWIDTH 14 0
BBX 14 3 0 -4
BITMAP
8004
7038
0FC0
ENDCHAR
STARTCHAR 2042
ENCODING 8258
SWIDTH 1000 0
DWIDTH 32 0
BBX 22 24 5 0
BITMAP
003000
003000
013200
01A600
006800
007000
01EE00
013200
003000
003000
000000
000000
000000
080040
080060
898644
EB035C
3E01F0
1C00E0
EB0358
C9864C
080040
180060
080040
ENDCHAR
STARTCHAR 2047
ENCODING 8263
SWIDTH 937 0
DWIDTH 30 0
BBX 27 23 2 0
BITMAP
1F803E00
30E0C380
406181C0
C03300C0
803300E0
E03380E0
E03380E0
E03380C0
007001C0
00E00180
01C00300
03800600
06000C00
04001800
04001000
04001000
04001000
00000000
00000000
0C003800
0E003800
0E003800
0E003800
ENDCHAR
STARTCHAR 2048
ENCODING 8264
SWIDTH 718 0
DWIDTH 23 0
BBX 18 23 2 0
BITMAP
1F8180
30E180
4061C0
C031C0
803180
E03180
E03180
E03180
007180
00E180
01C180
038180
060080
040080
040080
040080
040000
000000
000000
0C0180
0E01C0
0E03C0
0E01C0
ENDCHAR
STARTCHAR 2049
ENCODING 8265
SWIDTH 718 0
DWIDTH 23 0
BBX 18 23 3 0
BITMAP
407C00
E18700
E30380
E201C0
E601C0
E700C0
E700C0
6301C0
600180
600380
400700
400C00
401800
401000
403000
402000
002000
000000
000000
E03000
E07800
E07800
E03000
ENDCHAR
STARTCHAR 2051
ENCODING 8273
SWIDTH 1000 0
DWIDTH 32 0
BBX 9 25 11 0
BITMAP
0C00
0C00
0C00
C880
3B00
0C00
3F00
4880
0C00
0C00
0C00
0000
0000
0000
0000
0C00
0C00
4C80
6980
1A00
1C00
7B80
4C80
0C00
0C00
ENDCHAR
STARTCHAR 205A
ENCODING 8282
SWIDTH 1000 0
DWIDTH 32 0
BBX 4 20 14 2
BITMAP
60
F0
F0
60
00
00
00
00
00
00
00
00
00
00
00
00
60
F0
F0
60
ENDCHAR
STARTCHAR 205D
ENCODING 8285
SWIDTH 1000 0
DWIDTH 32 0
BBX 4 25 14 0
BITMAP
60
F0
F0
60
00
00
00
00
00
00
00
60
F0
F0
60
00
00
00
00
00
00
60
F0
F0
60
ENDCHAR
STARTCHAR 20AC
ENCODING 8364
SWIDTH 625 0
DWIDTH 20 0
BBX 17 24 1 0
BITMAP
01F800
030680
060380
0C0180
1C0180
180180
380080
300000
300000
300000
FFF000
700000
700000
FFF000
700000
300000
300000
300080
380080
180080
1C0100
0E0300
070600
01F800
ENDCHAR
STARTCHAR 2103
ENCODING 8451
SWIDTH 1000 0
DWIDTH 32 0
BBX 27 26 1 1
BITMAP
38000000
44000000
4203F800
820E0E40
423803C0
467001C0
3C6000C0
00E000C0
00C00040
01C00040
01C00000
01800000
01800000
03800000
03800000
01800000
01800000
01800000
01C00020
01C00040
00E00040
006000C0
00700080
00380300
000E0600
0003F800
ENDCHAR
STARTCHAR 210F
ENCODING 8463
SWIDTH 562 0
DWIDTH 18 0
BBX 15 23 1 0
BITMAP
1E00
0600
0600
0FE0
3C00
0C00
0C00
0878
19FC
1B8C
1B0C
160C
3C0C
3818
3818
3018
7030
6030
6030
6032
6064
C07C
C030
ENDCHAR
STARTCHAR 2113
ENCODING 8467
SWIDTH 1000 0
DWIDTH 32 0
BBX 15 24 8 0
BITMAP
0038
00CC
008C
018C
030C
030C
060C
060C
0C18
0C18
0C10
0C30
1820
1860
18C0
1980
1B00
1E00
1C02
3806
C804
0C08
0630
03C0
ENDCHAR
STARTCHAR 2116
ENCODING 8470
SWIDTH 1000 0
DWIDTH 32 0
BBX 28 23 2 1
BITMAP
F07C0000
70100000
38100000
38100000
2C100000
2C100000
2C100000
26103C00
2610C600
23108200
23118300
21918300
21918100
21918100
20D18180
20D18180
20718180
20718300
20318300
20318300
60308270
F810C670
00103C70
ENDCHAR
STARTCHAR 2121
ENCODING 8481
SWIDTH 1000 0
DWIDTH 32 0
BBX 28 22 2 2
BITMAP
FFE00000
CC600000
8C200000
8C200000
8C200000
0C000000
0C3FCF80
0C184600
0C184600
0C180600
0C180600
0C188600
0C188600
0C1F8600
0C188600
0C188600
0C180600
0C180610
0C182610
0C186610
0C186630
3FBFEFF0
ENDCHAR
STARTCHAR 2127
ENCODING 8487
SWIDTH 843 0
DWIDTH 27 0
BBX 23 23 2 0
BITMAP
7FC7FC
7FC7FC
C18206
C30186
8600C2
8C0042
8C0062
180030
180030
380038
300038
300018
700018
700018
700018
300018
300038
380038
180030
0C0060
0E00C0
038380
00FE00
ENDCHAR
STARTCHAR 212B
ENCODING 8491
SWIDTH 1000 0
DWIDTH 32 0
BBX 23 25 4 2
BITMAP
003C00
002400
004200
002400
003C00
000000
003800
003C00
002C00
006C00
004600
00C600
008700
008300
010380
010180
030180
03FFC0
0600C0
0400E0
040060
080060
080070
180078
FF01FE
ENDCHAR
STARTCHAR 2135
ENCODING 8501
SWIDTH 687 0
DWIDTH 22 0
BBX 18 23 2 0
BITMAP
100200
200600
600600
600700
E00380
6002C0
7002C0
7804C0
3C0800
1F1800
1F9000
73E000
60F000
607C00
601E00
700F00
300380
300380
300180
380180
380180
700300
C00200
ENDCHAR
STARTCHAR 2153
ENCODING 8531
SWIDTH 781 0
DWIDTH 25 0
BBX 20 23 3 0
BITMAP
700040
F000C0
300180
300300
300200
300600
300C00
300800
301800
303000
302000
FC47C0
00CC60
018C30
010C30
030060
0603C0
0400E0
080030
180C30
100C30
200860
6007C0
ENDCHAR
STARTCHAR 2154
ENCODING 8532
SWIDTH 781 0
DWIDTH 25 0
BBX 21 23 2 1
BITMAP
7C0060
C60040
C300C0
C30180
060100
0C0300
180600
200400
410C00
831800
FF33C0
002630
006610
00C618
008010
018030
0301E0
020030
040018
0C0618
180618
100430
3003E0
ENDCHAR
STARTCHAR 2155
ENCODING 8533
SWIDTH 781 0
DWIDTH 25 0
BBX 20 23 3 0
BITMAP
F00040
F000C0
300180
300300
300200
300600
300C00
300800
301800
303000
702000
FC47E0
00CC00
018C00
010800
030BC0
060C60
040030
080030
180C30
100C30
200860
6007C0
ENDCHAR
STARTCHAR 2160
ENCODING 8544
SWIDTH 1000 0
DWIDTH 32 0
BBX 8 22 12 2
BITMAP
FF
3C
18
18
18
18
18
18
18
18
18
18
18
18
18
18
18
18
18
18
3C
FF
ENDCHAR
STARTCHAR 2161
ENCODING 8545
SWIDTH 1000 0
DWIDTH 32 0
BBX 20 22 6 2
BITMAP
FFFFF0
1C0380
0C0300
0C0300
0C0300
0C0300
0C0300
0C0300
0C0300
0C0300
0C0300
0C0300
0C0300
0C0300
0C0300
0C0300
0C0300
0C0300
0C0300
0C0300
1C0380
FFFFF0
ENDCHAR
STARTCHAR 2162
ENCODING 8546
SWIDTH 1000 0
DWIDTH 32 0
BBX 26 22 3 2
BITMAP
FFFFFFC0
1C0C0E00
180C0600
180C0600
180C0600
180C0600
180C0600
180C0600
180C0600
180C0600
180C0600
180C0600
180C0600
180C0600
180C0600
180C0600
180C0600
180C0600
180C0600
180C0600
1C0C0E00
FFFFFFC0
ENDCHAR
STARTCHAR 2163
ENCODING 8547
SWIDTH 1000 0
DWIDTH 32 0
BBX 28 23 3 1
BITMAP
FFFE07F0
1C7001C0
18300080
18300180
18180100
18180100
18180200
180C0200
180C0200
180E0400
18060400
18060400
18070800
18030800
18031800
18039000
18019000
1801B000
1800E000
1800E000
1C00C000
FF804000
00004000
ENDCHAR
STARTCHAR 2164
ENCODING 8548
SWIDTH 1000 0
DWIDTH 32 0
BBX 24 23 4 1
BITMAP
FF80FF
3C001C
1C0018
0C0010
0E0030
060020
060020
070060
030040
038040
018080
01C080
01C180
00C100
00E100
006200
007200
003600
003400
003C00
001800
001800
000800
ENDCHAR
STARTCHAR 2165
ENCODING 8549
SWIDTH 1000 0
DWIDTH 32 0
BBX 28 23 1 1
BITMAP
FF83FFF0
38006380
18004180
1C004180
0C008180
0C008180
0E008180
06010180
06010180
03010180
03020180
03820180
01860180
01840180
01C40180
00CC0180
00C80180
00E80180
00700180
00700180
00300380
00201FF0
00200000
ENDCHAR
STARTCHAR 2166
ENCODING 8550
SWIDTH 1000 0
DWIDTH 32 0
BBX 29 23 1 1
BITMAP
FF0FFFF8
380318E0
180118E0
18031860
18021860
1C021860
0C061860
0C041860
0E041860
06041860
06081860
06081860
03081860
03101860
03101860
01901860
01A01860
01A01860
01E01860
00C018E0
00C018E0
00C0FFF8
00400000
ENDCHAR
STARTCHAR 2167
ENCODING 8551
SWIDTH 1000 0
DWIDTH 32 0
BBX 30 23 1 1
BITMAP
FE3FFFFC
38066770
30046630
18046630
18046630
18086630
1C086630
0C086630
0C186630
0C106630
06106630
06106630
06206630
07206630
03206630
03206630
03406630
01C06630
01C06630
01C06630
01806770
0081FFFC
00800000
ENDCHAR
STARTCHAR 2168
ENCODING 8552
SWIDTH 1000 0
DWIDTH 32 0
BBX 27 22 3 2
BITMAP
FFFF9FC0
381C0700
180C0600
180E0400
18060800
18070800
18031000
1803B000
1801A000
1800E000
1800E000
1800E000
1801F000
18013000
18021800
18061800
18040C00
180C0E00
18080600
18100700
18300780
FFFE1FE0
ENDCHAR
STARTCHAR 2169
ENCODING 8553
SWIDTH 1000 0
DWIDTH 32 0
BBX 24 22 4 2
BITMAP
7FC1FC
1E0070
0E0060
0700C0
038080
018100
00C300
00E600
007400
003800
001800
003C00
006E00
004700
008380
010180
0301C0
0600E0
0C0070
180038
3C003C
FF01FF
ENDCHAR
STARTCHAR 216A
ENCODING 8554
SWIDTH 1000 0
DWIDTH 32 0
BBX 27 22 2 2
BITMAP
7F9FFFE0
1C030300
0E020300
06040300
07040300
03080300
03980300
01900300
01F00300
00E00300
00600300
00F00300
00B00300
01380300
03180300
020C0300
060C0300
04060300
08070300
18030300
38038300
FE0FFFE0
ENDCHAR
STARTCHAR 216B
ENCODING 8555
SWIDTH 1000 0
DWIDTH 32 0
BBX 29 22 1 2
BITMAP
FF1FFFF8
1C061CE0
0C041860
0E041860
06081860
03181860
03101860
01B01860
01A01860
00E01860
00E01860
00E01860
01F01860
01301860
02181860
021C1860
040C1860
0C0E1860
08061860
18071860
38039CE0
FE1FFFF8
ENDCHAR
STARTCHAR 2170
ENCODING 8560
SWIDTH 1000 0
DWIDTH 32 0
BBX 8 22 12 3
BITMAP
3C
3C
18
00
00
00
08
F8
18
18
18
18
18
18
18
18
18
18
18
18
18
FF
ENDCHAR
STARTCHAR 2171
ENCODING 8561
SWIDTH 1000 0
DWIDTH 32 0
BBX 18 22 7 3
BITMAP
3C0F00
3C0F00
180600
000000
000000
000000
080200
781E00
180600
180600
180600
180600
180600
180600
180600
180600
180600
180600
180600
180600
180600
FF3FC0
ENDCHAR
STARTCHAR 2172
ENCODING 8562
SWIDTH 1000 0
DWIDTH 32 0
BBX 24 22 4 3
BITMAP
3C3C3C
3C3C3C
181818
000000
000000
000000
080808
787878
181818
181818
181818
181818
181818
181818
181818
181818
181818
181818
181818
181818
181818
FFFFFF
ENDCHAR
STARTCHAR 2173
ENCODING 8563
SWIDTH 1000 0
DWIDTH 32 0
BBX 24 23 5 2
BITMAP
380000
380000
380000
000000
000000
000000
080000
F9FC7F
38700C
387008
183008
183010
181810
181830
181C20
180C60
180C40
180640
180680
380380
380300
FE0300
000100
ENDCHAR
STARTCHAR 2174
ENCODING 8564
SWIDTH 1000 0
DWIDTH 32 0
BBX 18 15 7 1
BITMAP
FE0FC0
380300
180200
180200
0C0400
0C0400
060800
060800
071800
031000
033000
01A000
01E000
00C000
00C000
ENDCHAR
STARTCHAR 2175
ENCODING 8565
SWIDTH 1000 0
DWIDTH 32 0
BBX 25 23 3 2
BITMAP
00001E00
00001E00
00000C00
00000000
00000000
00000000
00000400
FE1FFC00
38060C00
18060C00
18040C00
0C040C00
0C080C00
0E080C00
06100C00
06100C00
03300C00
03200C00
01A00C00
01C00C00
01C00C00
00807F80
00800000
ENDCHAR
STARTCHAR 2176
ENCODING 8566
SWIDTH 1000 0
DWIDTH 32 0
BBX 28 24 2 1
BITMAP
00000040
000071C0
000071C0
000070C0
00000000
00000000
00000000
00001040
FE3FF7C0
380671C0
380430C0
180C30C0
180830C0
0C0830C0
0C1030C0
061030C0
063030C0
062030C0
032030C0
034030C0
01C030C0
018070C0
0181FFF0
00800000
ENDCHAR
STARTCHAR 2177
ENCODING 8567
SWIDTH 1000 0
DWIDTH 32 0
BBX 30 24 1 1
BITMAP
0000CE70
0001EE70
0000CE70
00000000
00000000
00000000
00000000
00004200
FE3FDFE0
3806CE60
1804C660
180CC620
0C08C620
0C08C620
0C10C620
0610C620
0620C620
0620C620
0360C620
0340C620
01C0C660
0180CE70
0183FFFC
00800000
ENDCHAR
STARTCHAR 2178
ENCODING 8568
SWIDTH 1000 0
DWIDTH 32 0
BBX 24 22 5 3
BITMAP
380000
380000
380000
000000
000000
000000
080000
F8FE7E
383818
381830
180C20
180640
180680
180380
180380
1802C0
1804C0
180860
181030
383038
38601C
FFF87F
ENDCHAR
STARTCHAR 2179
ENCODING 8569
SWIDTH 1000 0
DWIDTH 32 0
BBX 20 15 6 2
BITMAP
7F9FE0
0C0300
060600
030C00
039800
01F000
00E000
006000
00B000
011800
020C00
040600
080700
380380
FE0FF0
ENDCHAR
STARTCHAR 217A
ENCODING 8570
SWIDTH 1000 0
DWIDTH 32 0
BBX 25 22 3 3
BITMAP
00001E00
00001E00
00000C00
00000000
00000000
00000000
00000400
7F3F3C00
1C0C0C00
06080C00
06100C00
03200C00
01E00C00
01C00C00
00C00C00
01600C00
02300C00
06300C00
0C180C00
180C0C00
300E0E00
FE3FFF80
ENDCHAR
STARTCHAR 217B
ENCODING 8571
SWIDTH 1000 0
DWIDTH 32 0
BBX 28 23 2 2
BITMAP
00000040
000071C0
000071C0
000070C0
00000000
00000000
00000000
00001040
7E7FF7C0
1C1871C0
0C1030C0
063030C0
072030C0
034030C0
018030C0
01C030C0
03E030C0
066030C0
043030C0
081830C0
101C30C0
301E71C0
FC7FFFF0
ENDCHAR
STARTCHAR 2190
ENCODING 8592
SWIDTH 1000 0
DWIDTH 32 0
BBX 28 11 2 7
BITMAP
03800000
06000000
0C000000
38000000
70000000
FFFFFFF0
70000000
38000000
0C000000
06000000
03800000
ENDCHAR
STARTCHAR 2191
ENCODING 8593
SWIDTH 1000 0
DWIDTH 32 0
BBX 12 28 10 -2
BITMAP
0600
0F00
0F00
1F80
36C0
6660
C630
C630
8610
0600
0600
0600
0600
0600
0600
0600
0600
0600
0600
0600
0600
0600
0600
0600
0600
0600
0600
0600
ENDCHAR
STARTCHAR 2192
ENCODING 8594
SWIDTH 1000 0
DWIDTH 32 0
BBX 28 11 2 7
BITMAP
00001C00
00000600
00000300
000001C0
000000E0
FFFFFFF0
000000E0
000001C0
00000300
00000600
00001C00
ENDCHAR
STARTCHAR 2193
ENCODING 8595
SWIDTH 1000 0
DWIDTH 32 0
BBX 12 28 10 -2
BITMAP
0600
0600
0600
0600
0600
0600
0600
0600
0600
0600
0600
0600
0600
0600
0600
0600
0600
0600
0600
8610
C630
6660
6660
36C0
1F80
0F00
0600
0400
ENDCHAR
STARTCHAR 2194
ENCODING 8596
SWIDTH 750 0
DWIDTH 24 0
BBX 20 13 2 4
BITMAP
040400
0C0600
1C0300
180180
3000C0
600060
FFFFF0
600060
3000C0
180180
0C0300
0E0600
040400
ENDCHAR
STARTCHAR 2196
ENCODING 8598
SWIDTH 1000 0
DWIDTH 32 0
BBX 22 22 5 1
BITMAP
FF8000
FFC000
F00000
D80000
CC0000
C60000
430000
418000
40C000
406000
003000
001800
000C00
000600
000300
000180
0000C0
000060
000030
000018
00000C
000004
ENDCHAR
STARTCHAR 2197
ENCODING 8599
SWIDTH 1000 0
DWIDTH 32 0
BBX 22 22 5 1
BITMAP
0007FC
000FFC
00003C
00006C
0000CC
00018C
000308
000608
000C08
001810
003000
006000
00C000
018000
030000
060000
0C0000
180000
300000
600000
C00000
800000
ENDCHAR
STARTCHAR 2198
ENCODING 8600
SWIDTH 1000 0
DWIDTH 32 0
BBX 23 23 4 1
BITMAP
400000
E00000
700000
380000
1C0000
0E0000
070000
038000
01C000
00E000
007000
003800
001C00
000E08
000704
000384
0001C4
0000E6
000076
00003E
00001E
0007FE
00007E
ENDCHAR
STARTCHAR 2199
ENCODING 8601
SWIDTH 1000 0
DWIDTH 32 0
BBX 23 23 5 1
BITMAP
000004
00000E
00001C
000038
000070
0000E0
0001C0
000380
000700
000E00
001C00
003800
007000
40E000
41C000
438000
470000
CE0000
DC0000
F80000
F00000
FFC000
FC0000
ENDCHAR
STARTCHAR 21C4
ENCODING 8644
SWIDTH 1000 0
DWIDTH 32 0
BBX 28 24 2 0
BITMAP
00001C00
00000600
00000300
000001C0
000000E0
FFFFFFF0
000000E0
000001C0
00000380
00000600
00000C00
00000000
00000000
03000000
06000000
1C000000
38000000
70000000
FFFFFFF0
70000000
38000000
0C000000
06000000
03800000
ENDCHAR
STARTCHAR 21D2
ENCODING 8658
SWIDTH 750 0
DWIDTH 24 0
BBX 19 14 2 4
BITMAP
000C00
000600
000300
000180
FFFFC0
000060
000020
000060
000040
FFFFC0
000380
000300
000600
000400
ENDCHAR
STARTCHAR 21D4
ENCODING 8660
SWIDTH 750 0
DWIDTH 24 0
BBX 19 14 2 4
BITMAP
060C00
0E0600
0C0300
180180
3FFFC0
600060
C00020
C00020
600060
3FFFC0
180180
0C0300
060600
020400
ENDCHAR
STARTCHAR 21E6
ENCODING 8678
SWIDTH 1000 0
DWIDTH 32 0
BBX 25 11 3 7
BITMAP
00800000
01800000
06800000
08800000
30FFFF80
40000080
C0000080
30FFFF00
0C800000
03800000
00800000
ENDCHAR
STARTCHAR 21E7
ENCODING 8679
SWIDTH 1000 0
DWIDTH 32 0
BBX 10 25 11 0
BITMAP
0800
0C00
1200
1200
2100
4080
4080
8040
7380
1200
1200
1200
1200
1200
1200
1200
1200
1200
1200
1200
1200
1200
1200
1200
1E00
ENDCHAR
STARTCHAR 21E8
ENCODING 8680
SWIDTH 1000 0
DWIDTH 32 0
BBX 25 11 4 7
BITMAP
00008000
0000C000
0000B000
00008800
FFFF8600
80000100
80000180
7FFF8600
00009800
0000E000
00008000
ENDCHAR
STARTCHAR 21E9
ENCODING 8681
SWIDTH 1000 0
DWIDTH 32 0
BBX 10 25 11 -1
BITMAP
1E00
1200
1200
1200
1200
1200
1200
1200
1200
1200
1200
1200
1200
1200
1200
1200
1200
F3C0
8040
4080
4100
2100
1200
1200
0C00
ENDCHAR
STARTCHAR 2200
ENCODING 8704
SWIDTH 750 0
DWIDTH 24 0
BBX 22 23 1 0
BITMAP
C0000C
C00018
600018
600030
300030
300060
180060
180040
0FFFC0
0C0080
060180
060100
020300
030200
010600
018400
008C00
00CC00
005800
007800
003000
003000
002000
ENDCHAR
STARTCHAR 2202
ENCODING 8706
SWIDTH 593 0
DWIDTH 19 0
BBX 15 25 2 -1
BITMAP
03E0
0430
0818
000C
000C
000C
000C
000E
000E
000E
0F8E
186E
302E
601C
600C
C00C
C01C
C018
C018
C038
C030
E060
60E0
31C0
1F00
ENDCHAR
STARTCHAR 2203
ENCODING 8707
SWIDTH 750 0
DWIDTH 24 0
BBX 16 23 3 0
BITMAP
FFFF
0001
0001
0001
0001
0001
0001
0001
0001
0001
0001
FFFF
0001
0001
0001
0001
0001
0001
0001
0001
0001
0001
FFFF
ENDCHAR
STARTCHAR 2205
ENCODING 8709
SWIDTH 781 0
DWIDTH 25 0
BBX 21 20 2 2
BITMAP
01FC10
070730
0C01E0
1000C0
3001E0
600330
400630
400C10
C01818
C03018
C06018
C0C018
418010
430010
660030
2C0060
380040
3C0180
670700
41FC00
ENDCHAR
STARTCHAR 2207
ENCODING 8711
SWIDTH 750 0
DWIDTH 24 0
BBX 20 23 2 0
BITMAP
FFFFF0
FFFFF0
E00020
600060
700040
3000C0
380080
180180
1C0180
0C0300
0E0300
0E0200
060600
070400
030C00
038800
019800
01D000
00F000
00F000
00E000
006000
004000
ENDCHAR
STARTCHAR 2208
ENCODING 8712
SWIDTH 687 0
DWIDTH 22 0
BBX 17 16 2 2
BITMAP
07FF80
1C0000
300000
600000
400000
C00000
C00000
FFFF80
C00000
C00000
C00000
400000
600000
300000
1C0000
07FF80
ENDCHAR
STARTCHAR 2209
ENCODING 8713
SWIDTH 687 0
DWIDTH 22 0
BBX 17 20 2 1
BITMAP
000C00
000C00
07FF80
1C1800
301000
603000
402000
C06000
C06000
FFFF80
C0C000
C08000
C18000
418000
610000
330000
1F0000
07FF80
060000
040000
ENDCHAR
STARTCHAR 220B
ENCODING 8715
SWIDTH 687 0
DWIDTH 22 0
BBX 18 16 2 2
BITMAP
FFF000
000C00
000200
000100
000180
000080
000080
FFFFC0
0000C0
0000C0
000080
000180
000100
000300
000E00
FFF800
ENDCHAR
STARTCHAR 2212
ENCODING 8722
SWIDTH 687 0
DWIDTH 22 0
BBX 17 1 2 10
BITMAP
FFFF80
ENDCHAR
STARTCHAR 2213
ENCODING 8723
SWIDTH 687 0
DWIDTH 22 0
BBX 17 18 2 1
BITMAP
FFFF80
000000
000000
00C000
00C000
00C000
00C000
00C000
00C000
00C000
FFFF80
00C000
00C000
00C000
00C000
00C000
00C000
00C000
ENDCHAR
STARTCHAR 2219
ENCODING 8729
SWIDTH 250 0
DWIDTH 8 0
BBX 4 3 2 8
BITMAP
60
F0
60
ENDCHAR
STARTCHAR 221A
ENCODING 8730
SWIDTH 531 0
DWIDTH 17 0
BBX 16 29 1 -2
BITMAP
0001
0003
0003
0002
0006
0004
0004
000C
0008
0008
0018
0010
0010
0030
0020
0060
2060
3040
30C0
30C0
5880
5980
8900
0D00
0F00
0600
0600
0600
0400
ENDCHAR
STARTCHAR 221D
ENCODING 8733
SWIDTH 687 0
DWIDTH 22 0
BBX 16 10 3 6
BITMAP
3C0E
7F19
E330
C1A0
80E0
80C0
80E0
C1E0
6330
3E0F
ENDCHAR
STARTCHAR 221E
ENCODING 8734
SWIDTH 687 0
DWIDTH 22 0
BBX 18 10 2 6
BITMAP
3C0F00
7E1180
C720C0
81E040
81C040
80C040
80E0C0
8171C0
433F80
3C1F00
ENDCHAR
STARTCHAR 221F
ENCODING 8735
SWIDTH 687 0
DWIDTH 22 0
BBX 16 19 3 2
BITMAP
C000
C000
C000
C000
C000
C000
C000
C000
C000
C000
C000
C000
C000
C000
C000
C000
C000
C000
FFFF
ENDCHAR
STARTCHAR 2220
ENCODING 8736
SWIDTH 687 0
DWIDTH 22 0
BBX 18 19 2 2
BITMAP
002000
006000
004000
00C000
018000
018000
030000
030000
060000
060000
0C0000
080000
180000
300000
300000
600000
600000
C00000
FFFFC0
ENDCHAR
STARTCHAR 2225
ENCODING 8741
SWIDTH 687 0
DWIDTH 22 0
BBX 15 28 3 -2
BITMAP
0062
0042
0046
00C4
0084
008C
0188
0108
0118
0310
0210
0230
0620
0420
0460
0C40
0840
08C0
1880
1180
1180
3100
2300
2300
6200
4600
C600
C400
ENDCHAR
STARTCHAR 2226
ENCODING 8742
SWIDTH 687 0
DWIDTH 22 0
BBX 15 29 3 -2
BITMAP
0002
0062
0042
0046
00C4
0084
008C
C188
6108
3118
1B10
0E30
0630
0720
05E0
0CE0
0C60
08E0
18D0
1888
1184
3186
3102
2300
6300
6200
4600
C400
C400
ENDCHAR
STARTCHAR 2227
ENCODING 8743
SWIDTH 687 0
DWIDTH 22 0
BBX 17 17 2 2
BITMAP
00C000
01C000
01E000
012000
033000
021000
061800
041800
0C0C00
080C00
180600
100600
300200
200300
600100
400180
C00080
ENDCHAR
STARTCHAR 2228
ENCODING 8744
SWIDTH 687 0
DWIDTH 22 0
BBX 16 17 3 2
BITMAP
8001
8003
C003
C006
6006
6004
300C
3008
1818
1810
0830
0C20
0460
0640
02C0
0380
0180
ENDCHAR
STARTCHAR 2229
ENCODING 8745
SWIDTH 687 0
DWIDTH 22 0
BBX 15 19 3 1
BITMAP
07E0
1838
300C
6004
6006
4002
C002
C002
C002
C002
C002
C002
C002
C002
C002
C002
C002
C002
C002
ENDCHAR
STARTCHAR 222A
ENCODING 8746
SWIDTH 687 0
DWIDTH 22 0
BBX 15 19 3 0
BITMAP
C002
C002
C002
C002
C002
C002
C002
C002
C002
C002
C002
C002
C002
4006
6006
6004
300C
1838
07E0
ENDCHAR
STARTCHAR 222B
ENCODING 8747
SWIDTH 562 0
DWIDTH 18 0
BBX 16 29 1 -6
BITMAP
001E
0023
0063
0043
00C0
00C0
00C0
00C0
00C0
0180
0180
0180
0180
0180
0180
0180
0180
0180
0180
0180
0180
0180
0100
0300
C300
E300
C200
4600
3800
ENDCHAR
STARTCHAR 222C
ENCODING 8748
SWIDTH 875 0
DWIDTH 28 0
BBX 27 29 1 -6
BITMAP
001E0780
00230CC0
006318E0
004310C0
00C03000
00C03000
00C03000
00C03000
00C03000
01803000
01803000
01806000
01806000
01806000
01806000
01806000
01806000
01806000
01806000
01806000
01806000
01806000
01006000
03004000
C338C000
E338C000
C2388000
46118000
380F0000
ENDCHAR
STARTCHAR 222E
ENCODING 8750
SWIDTH 562 0
DWIDTH 18 0
BBX 16 29 1 -6
BITMAP
001E
0023
0063
0043
00C0
00C0
00C0
00C0
0180
0180
07E0
0D90
0990
0988
0988
0990
0990
07E0
0180
0180
0180
0180
0100
0300
C300
E200
C200
4400
3800
ENDCHAR
STARTCHAR 2234
ENCODING 8756
SWIDTH 687 0
DWIDTH 22 0
BBX 17 16 2 2
BITMAP
01C000
01E000
01E000
01C000
000000
000000
000000
000000
000000
000000
000000
000000
700380
F00780
F00780
700380
ENDCHAR
STARTCHAR 2235
ENCODING 8757
SWIDTH 687 0
DWIDTH 22 0
BBX 17 16 2 2
BITMAP
700380
F00780
F00780
700380
000000
000000
000000
000000
000000
000000
000000
000000
01C000
01E000
01E000
01C000
ENDCHAR
STARTCHAR 223C
ENCODING 8764
SWIDTH 500 0
DWIDTH 16 0
BBX 9 3 4 20
BITMAP
7000
9880
8700
ENDCHAR
STARTCHAR 223D
ENCODING 8765
SWIDTH 687 0
DWIDTH 22 0
BBX 18 9 2 6
BITMAP
381F00
403F80
8070C0
80E0C0
80C040
818040
C380C0
7F0180
3C0700
ENDCHAR
STARTCHAR 2243
ENCODING 8771
SWIDTH 687 0
DWIDTH 22 0
BBX 18 8 2 6
BITMAP
3F00C0
7FE180
C1FF80
003E00
000000
000000
000000
FFFFC0
ENDCHAR
STARTCHAR 2245
ENCODING 8773
SWIDTH 687 0
DWIDTH 22 0
BBX 18 12 2 4
BITMAP
3E00C0
7FE180
C1FF80
003E00
000000
000000
FFFFC0
000000
000000
000000
000000
FFFFC0
ENDCHAR
STARTCHAR 2248
ENCODING 8776
SWIDTH 687 0
DWIDTH 22 0
BBX 18 10 2 5
BITMAP
1E0000
7F81C0
61FF80
C03F00
000000
000000
3E0000
7FE180
61FF80
803E00
ENDCHAR
STARTCHAR 2252
ENCODING 8786
SWIDTH 687 0
DWIDTH 22 0
BBX 17 20 2 0
BITMAP
380000
3C0000
3C0000
380000
000000
000000
FFFF80
000000
000000
000000
000000
000000
000000
FFFF80
000000
000000
000600
000F00
000F00
000600
ENDCHAR
STARTCHAR 2260
ENCODING 8800
SWIDTH 687 0
DWIDTH 22 0
BBX 17 19 2 0
BITMAP
001000
001800
001000
003000
002000
006000
FFFF80
004000
00C000
00C000
00C000
008000
018000
FFFF80
010000
030000
020000
060000
060000
ENDCHAR
STARTCHAR 2261
ENCODING 8801
SWIDTH 687 0
DWIDTH 22 0
BBX 17 12 2 4
BITMAP
FFFF80
000000
000000
000000
000000
FFFF80
000000
000000
000000
000000
000000
FFFF80
ENDCHAR
STARTCHAR 2262
ENCODING 8802
SWIDTH 687 0
DWIDTH 22 0
BBX 17 19 2 0
BITMAP
001000
001800
001000
003000
FFFF80
006000
006000
004000
00C000
FFFF80
008000
018000
018000
018000
010000
FFFF80
020000
060000
060000
ENDCHAR
STARTCHAR 2266
ENCODING 8806
SWIDTH 687 0
DWIDTH 22 0
BBX 18 19 2 1
BITMAP
000080
000780
003C00
01E000
1F0000
F80000
E00000
3C0000
078000
00F000
001E00
0003C0
000000
000000
FFFFC0
000000
000000
000000
FFFFC0
ENDCHAR
STARTCHAR 2267
ENCODING 8807
SWIDTH 687 0
DWIDTH 22 0
BBX 18 19 2 1
BITMAP
C00000
F80000
0F0000
01E000
003C00
000780
0001C0
000F00
007800
07C000
3E0000
F00000
800000
000000
FFFFC0
000000
000000
000000
FFFFC0
ENDCHAR
STARTCHAR 226A
ENCODING 8810
SWIDTH 687 0
DWIDTH 22 0
BBX 18 17 2 2
BITMAP
002000
0061C0
01C300
038600
061C00
1C3000
386000
61C000
C30000
C38000
70C000
187000
0C3800
070C00
018600
00C380
0060C0
ENDCHAR
STARTCHAR 226B
ENCODING 8811
SWIDTH 687 0
DWIDTH 22 0
BBX 18 17 2 2
BITMAP
810000
C38000
70C000
187000
0C3800
070C00
018700
00C380
0060C0
0061C0
01C300
038600
061C00
0C3800
386000
61C000
C38000
ENDCHAR
STARTCHAR 2276
ENCODING 8822
SWIDTH 687 0
DWIDTH 22 0
BBX 18 21 2 0
BITMAP
0003C0
001F00
00F000
0F8000
780000
E00000
3C0000
07C000
00F800
C00F80
F801C0
0F8000
01F000
001E00
000180
000780
007C00
03E000
3E0000
F00000
800000
ENDCHAR
STARTCHAR 2277
ENCODING 8823
SWIDTH 687 0
DWIDTH 22 0
BBX 18 20 2 0
BITMAP
E00000
3E0000
07C000
007800
000F80
000180
000F00
00F800
0F8000
7C00C0
E00F80
007C00
03C000
3E0000
E00000
F80000
0F0000
01F000
003E00
0003C0
ENDCHAR
STARTCHAR 2282
ENCODING 8834
SWIDTH 687 0
DWIDTH 22 0
BBX 17 16 2 2
BITMAP
07FF80
1C0000
300000
600000
400000
C00000
C00000
C00000
C00000
C00000
C00000
400000
600000
300000
1C0000
07FF80
ENDCHAR
STARTCHAR 2283
ENCODING 8835
SWIDTH 687 0
DWIDTH 22 0
BBX 18 16 2 2
BITMAP
FFF000
000C00
000200
000100
000180
000080
000080
0000C0
0000C0
0000C0
000080
000180
000100
000300
000E00
FFF800
ENDCHAR
STARTCHAR 2284
ENCODING 8836
SWIDTH 687 0
DWIDTH 22 0
BBX 17 20 2 1
BITMAP
000600
000600
07FF80
1C0C00
300800
601800
401000
C03000
C03000
C02000
C06000
C06000
C04000
40C000
608000
318000
1D8000
07FF80
030000
020000
ENDCHAR
STARTCHAR 2285
ENCODING 8837
SWIDTH 687 0
DWIDTH 22 0
BBX 18 20 2 1
BITMAP
003000
003000
FFF800
006E00
004300
00C100
008180
018080
018080
0100C0
0300C0
030080
020080
060180
040100
0C0300
0C0C00
FFF000
180000
100000
ENDCHAR
STARTCHAR 2286
ENCODING 8838
SWIDTH 687 0
DWIDTH 22 0
BBX 17 19 2 2
BITMAP
0FFF80
380000
600000
600000
C00000
C00000
C00000
C00000
C00000
400000
400000
200000
380000
0FFF80
000000
000000
000000
000000
FFFF80
ENDCHAR
STARTCHAR 2287
ENCODING 8839
SWIDTH 687 0
DWIDTH 22 0
BBX 18 19 2 2
BITMAP
FFF800
000600
000300
000180
000080
000080
0000C0
0000C0
000080
000080
000180
000300
000600
FFFC00
000000
000000
000000
000000
FFFF80
ENDCHAR
STARTCHAR 228A
ENCODING 8842
SWIDTH 687 0
DWIDTH 22 0
BBX 17 21 2 0
BITMAP
0FFF80
380000
600000
400000
C00000
C00000
C00000
C00000
C00000
400000
600000
380000
0FFF80
000000
000000
002000
006000
006000
FFFF80
018000
010000
ENDCHAR
STARTCHAR 228B
ENCODING 8843
SWIDTH 687 0
DWIDTH 22 0
BBX 18 21 2 0
BITMAP
FFF800
000600
000300
000180
000080
0000C0
0000C0
0000C0
000080
000180
000100
000600
FFFC00
000000
000000
002000
006000
006000
FFFF80
018000
010000
ENDCHAR
STARTCHAR 2295
ENCODING 8853
SWIDTH 843 0
DWIDTH 27 0
BBX 24 23 2 0
BITMAP
00FE00
038180
0C0060
181810
301808
201804
401804
401802
C01802
801802
8FFFF3
801803
801803
801802
C01802
C01806
60180C
60180C
301818
180030
0C0060
0701C0
00FE00
ENDCHAR
STARTCHAR 2296
ENCODING 8854
SWIDTH 843 0
DWIDTH 27 0
BBX 24 23 2 0
BITMAP
00FE00
038180
0C0060
180010
300008
200004
400004
400002
C00002
800002
8FFFF3
800003
800003
800002
C00002
C00006
60000C
60000C
300018
180030
0C0060
0701C0
00FE00
ENDCHAR
STARTCHAR 2297
ENCODING 8855
SWIDTH 843 0
DWIDTH 27 0
BBX 24 23 2 0
BITMAP
00FE00
038180
0C0060
180010
300048
2600EC
4301C4
418386
C0C702
806E02
803C03
803803
807C03
80E602
C1C302
C38186
6700C4
66004C
300018
180030
0C0060
0701C0
00FE00
ENDCHAR
STARTCHAR 22A5
ENCODING 8869
SWIDTH 687 0
DWIDTH 22 0
BBX 18 19 2 2
BITMAP
00C000
00C000
00C000
00C000
00C000
00C000
00C000
00C000
00C000
00C000
00C000
00C000
00C000
00C000
00C000
00C000
00C000
00C000
FFFFC0
ENDCHAR
STARTCHAR 22BF
ENCODING 8895
SWIDTH 687 0
DWIDTH 22 0
BBX 18 19 2 2
BITMAP
000040
000040
0000C0
0001C0
000340
000640
000C40
001840
003040
006040
00C040
018040
030040
060040
0C0040
180040
300040
600040
FFFFC0
ENDCHAR
STARTCHAR 22DA
ENCODING 8922
SWIDTH 687 0
DWIDTH 22 0
BBX 18 22 2 1
BITMAP
000FC0
00FC00
1F8000
F00000
F00000
1F8000
00FC00
000FC0
000000
000000
FFFFC0
000000
800000
F80000
1FC000
00FC00
0007C0
0003C0
007E00
0FE000
FC0000
C00000
ENDCHAR
STARTCHAR 22DB
ENCODING 8923
SWIDTH 687 0
DWIDTH 22 0
BBX 18 23 2 0
BITMAP
800000
FC0000
0FC000
007E00
0007C0
0007C0
00FE00
1FC000
F80000
800000
000000
FFFFC0
000000
000000
0007C0
00FE00
0FC000
F80000
F00000
3F8000
01F800
001FC0
000080
ENDCHAR
STARTCHAR 2305
ENCODING 8965
SWIDTH 687 0
DWIDTH 22 0
BBX 18 13 2 3
BITMAP
FFFFC0
01C000
01E000
016000
032000
023000
061000
061800
0C1800
0C0C00
080C00
180600
100600
ENDCHAR
STARTCHAR 2306
ENCODING 8966
SWIDTH 687 0
DWIDTH 22 0
BBX 18 19 2 0
BITMAP
FFFFC0
000000
000000
000000
FFFFC0
00C000
01E000
016000
032000
033000
023000
061800
041800
0C0800
0C0C00
080C00
180600
180600
000400
ENDCHAR
STARTCHAR 2312
ENCODING 8978
SWIDTH 1000 0
DWIDTH 32 0
BBX 30 7 1 19
BITMAP
003FF000
01C00E00
06000180
18000060
60000018
C000000C
80000004
ENDCHAR
STARTCHAR 2318
ENCODING 8984
SWIDTH 1000 0
DWIDTH 32 0
BBX 28 28 2 -2
BITMAP
3C0003C0
C2000420
83000810
81000810
81000810
81000810
C1000860
3FFFFFC0
01000800
01000800
01000800
01000800
01000800
01000800
01000800
01000800
01000800
01000800
01000800
01000800
3FFFFFC0
61000830
81000810
81000810
81000810
83000C10
C2000420
3C0003C0
ENDCHAR
STARTCHAR 23BE
ENCODING 9150
SWIDTH 1000 0
DWIDTH 32 0
BBX 17 32 15 -4
BITMAP
FFFF80
C00000
C00000
C00000
C00000
C00000
C00000
C00000
C00000
C00000
C00000
C00000
C00000
C00000
C00000
C00000
C00000
C00000
C00000
C00000
C00000
C00000
C00000
C00000
C00000
C00000
C00000
C00000
C00000
C00000
C00000
C00000
ENDCHAR
STARTCHAR 23BF
ENCODING 9151
SWIDTH 1000 0
DWIDTH 32 0
BBX 17 32 15 -4
BITMAP
C00000
C00000
C00000
C00000
C00000
C00000
C00000
C00000
C00000
C00000
C00000
C00000
C00000
C00000
C00000
C00000
C00000
C00000
C00000
C00000
C00000
C00000
C00000
C00000
C00000
C00000
C00000
C00000
C00000
C00000
C00000
FFFF80
ENDCHAR
STARTCHAR 23C0
ENCODING 9152
SWIDTH 1000 0
DWIDTH 32 0
BBX 24 32 4 -4
BITMAP
001800
001800
001800
001800
00FF00
0399C0
0C1830
181818
30180C
201804
401806
401802
C01803
801801
801801
801801
801801
801801
801801
C01803
401802
601806
201804
301808
181818
061860
03DBC0
007F00
001800
001800
001800
001800
ENDCHAR
STARTCHAR 23C1
ENCODING 9153
SWIDTH 1000 0
DWIDTH 32 0
BBX 32 32 0 -4
BITMAP
FFFFFFFF
00018000
00018000
00018000
001FF800
00718E00
00C18300
01818180
030180C0
06018040
04018020
04018020
0C018030
08018010
08018010
08018010
08018010
08018010
08018030
0C018030
04018020
06018060
02018040
01018080
00818300
00618600
003FFC00
0007E000
00018000
00018000
00018000
00018000
ENDCHAR
STARTCHAR 23C2
ENCODING 9154
SWIDTH 1000 0
DWIDTH 32 0
BBX 32 32 0 -4
BITMAP
00018000
00018000
00018000
00018000
0007E000
003FFC00
00618600
00C18100
01018080
020180C0
06018060
04018020
0C018030
08018010
08018010
08018010
08018010
08018010
08018010
0C018030
04018020
04018020
06018060
030180C0
01818180
00C18300
00718E00
001FF800
00018000
00018000
00018000
FFFFFFFF
ENDCHAR
STARTCHAR 23C3
ENCODING 9155
SWIDTH 1000 0
DWIDTH 32 0
BBX 26 32 3 -4
BITMAP
000C0000
000C0000
000C0000
000C0000
000C0000
000C0000
001E0000
001E0000
003F0000
002D0000
006D8000
00CCC000
008C4000
018C6000
010C2000
030C3000
060C1800
060C0800
0C0C0C00
080C0400
180C0600
300C0300
300C0300
600C0180
400C0080
C00C00C0
FFFFFFC0
000C0000
000C0000
000C0000
000C0000
000C0000
ENDCHAR
STARTCHAR 23C4
ENCODING 9156
SWIDTH 1000 0
DWIDTH 32 0
BBX 32 32 0 -4
BITMAP
FFFFFFFF
00018000
00018000
00018000
00018000
00018000
0003C000
0007C000
0007E000
000DB000
00099000
00199800
00118800
00318C00
00618600
00618600
00C18300
00818100
01818180
01018080
030180C0
06018060
06018020
0C018030
08018010
18018018
1FFFFFF8
00018000
00018000
00018000
00018000
00018000
ENDCHAR
STARTCHAR 23C5
ENCODING 9157
SWIDTH 1000 0
DWIDTH 32 0
BBX 32 32 0 -4
BITMAP
00018000
00018000
00018000
00018000
00018000
00018000
0003C000
0003C000
0007E000
0005A000
000DB000
00199800
00118800
00318C00
00218400
00618600
00C18300
00C18100
01818180
01018080
030180C0
06018060
06018060
0C018030
08018010
18018018
1FFFFFF8
00018000
00018000
00018000
00018000
FFFFFFFF
ENDCHAR
STARTCHAR 23C6
ENCODING 9158
SWIDTH 1000 0
DWIDTH 32 0
BBX 28 32 2 -4
BITMAP
00060000
00060000
00060000
00060000
00060000
00060000
00060000
00060000
00060000
00060000
00060000
00060000
1F860000
70660000
C01E0000
800E0000
00070010
00078030
000660C0
00061F80
00060000
00060000
00060000
00060000
00060000
00060000
00060000
00060000
00060000
00060000
00060000
00060000
ENDCHAR
STARTCHAR 23C7
ENCODING 9159
SWIDTH 1000 0
DWIDTH 32 0
BBX 32 32 0 -4
BITMAP
FFFFFFFF
00018000
00018000
00018000
00018000
00018000
00018000
00018000
00018000
00018000
00018000
00018000
07E18000
1C198000
30078000
00038000
0001C004
0001F00C
00019C30
000187E0
00018000
00018000
00018000
00018000
00018000
00018000
00018000
00018000
00018000
00018000
00018000
00018000
ENDCHAR
STARTCHAR 23C8
ENCODING 9160
SWIDTH 1000 0
DWIDTH 32 0
BBX 32 32 0 -4
BITMAP
00018000
00018000
00018000
00018000
00018000
00018000
00018000
00018000
00018000
00018000
00018000
00018000
03E18000
0C398000
300D8000
20038000
00018000
0001E00C
0001B838
000187E0
00018000
00018000
00018000
00018000
00018000
00018000
00018000
00018000
00018000
00018000
00018000
FFFFFFFF
ENDCHAR
STARTCHAR 23C9
ENCODING 9161
SWIDTH 1000 0
DWIDTH 32 0
BBX 32 32 0 -4
BITMAP
FFFFFFFF
00018000
00018000
00018000
00018000
00018000
00018000
00018000
00018000
00018000
00018000
00018000
00018000
00018000
00018000
00018000
00018000
00018000
00018000
00018000
00018000
00018000
00018000
00018000
00018000
00018000
00018000
00018000
00018000
00018000
00018000
00018000
ENDCHAR
STARTCHAR 23CA
ENCODING 9162
SWIDTH 1000 0
DWIDTH 32 0
BBX 32 32 0 -4
BITMAP
00018000
00018000
00018000
00018000
00018000
00018000
00018000
00018000
00018000
00018000
00018000
00018000
00018000
00018000
00018000
00018000
00018000
00018000
00018000
00018000
00018000
00018000
00018000
00018000
00018000
00018000
00018000
00018000
00018000
00018000
00018000
FFFFFFFF
ENDCHAR
STARTCHAR 23CB
ENCODING 9163
SWIDTH 1000 0
DWIDTH 32 0
BBX 17 32 0 -4
BITMAP
FFFF80
000180
000180
000180
000180
000180
000180
000180
000180
000180
000180
000180
000180
000180
000180
000180
000180
000180
000180
000180
000180
000180
000180
000180
000180
000180
000180
000180
000180
000180
000180
000180
ENDCHAR
STARTCHAR 23CC
ENCODING 9164
SWIDTH 1000 0
DWIDTH 32 0
BBX 17 32 0 -4
BITMAP
000180
000180
000180
000180
000180
000180
000180
000180
000180
000180
000180
000180
000180
000180
000180
000180
000180
000180
000180
000180
000180
000180
000180
000180
000180
000180
000180
000180
000180
000180
000180
FFFF80
ENDCHAR
STARTCHAR 23CE
ENCODING 9166
SWIDTH 1000 0
DWIDTH 32 0
BBX 27 27 2 -2
BITMAP
00007FE0
00004020
00004020
00004020
00004020
00004020
00004020
00004020
00404020
00404020
01C04020
03404020
06404020
0C7FC020
18000060
30000060
C0000060
C0000040
60000040
30000080
18000380
0C7FFE00
06400000
03400000
00C00000
00400000
00400000
ENDCHAR
STARTCHAR 2423
ENCODING 9251
SWIDTH 1000 0
DWIDTH 32 0
BBX 24 6 4 -1
BITMAP
800001
800001
800001
800001
800001
FFFFFF
ENDCHAR
STARTCHAR 2460
ENCODING 9312
SWIDTH 1000 0
DWIDTH 32 0
BBX 28 29 2 -2
BITMAP
003FC000
00C03000
03000C00
04000200
08000100
100E0080
203E0040
40060020
40060020
80060010
80060010
80060010
80060010
80060010
80060010
80060010
80060010
80060010
80060010
80060030
40060020
60060060
20070040
103FC080
08000100
04000200
03000C00
00C03000
003FC000
ENDCHAR
STARTCHAR 2461
ENCODING 9313
SWIDTH 1000 0
DWIDTH 32 0
BBX 28 28 2 -2
BITMAP
003FC000
01C03800
02000C00
0C000300
181F8180
3030C0C0
20606040
40C03020
40E03020
80E03010
80E03010
80007010
8000E010
8000C010
80018010
80030010
80060010
800C0010
80180810
40300820
40601820
20C03840
10FFF880
08000100
04000200
03000C00
00C03000
003FC000
ENDCHAR
STARTCHAR 2462
ENCODING 9314
SWIDTH 1000 0
DWIDTH 32 0
BBX 28 29 2 -2
BITMAP
003F8000
00E07000
03000800
06000600
08000100
101F8080
2070E040
60407040
40E03020
C0E03020
80E03010
80003010
80006010
8001C010
800F0010
8000E010
80003010
80003010
80003810
80C03810
41E03820
40C03020
20C07040
1060E080
081F8100
04000200
03000400
00C03800
003FC000
ENDCHAR
STARTCHAR 2463
ENCODING 9315
SWIDTH 1000 0
DWIDTH 32 0
BBX 28 29 2 -2
BITMAP
003FC000
00C03000
03000C00
04000200
18018100
10018080
20038040
40078060
400D8020
80098010
80118010
80218010
80618010
80C18010
80818010
81018010
83018010
83FFF810
80018010
C0018010
40018020
60018040
20018040
100FF080
08000100
04000200
03000C00
00E03000
003FC000
ENDCHAR
STARTCHAR 2464
ENCODING 9316
SWIDTH 1000 0
DWIDTH 32 0
BBX 28 28 2 -1
BITMAP
003F8000
00E03000
03000C00
04000200
08000100
107FE080
20400040
40400020
40400020
80400010
80400010
804F8010
8070E010
80E07010
80403010
80003010
80003810
80003810
80C03810
40E03020
40C03020
20C06040
1060C080
181F8180
04000200
03000400
00C03800
003FC000
ENDCHAR
STARTCHAR 2465
ENCODING 9317
SWIDTH 1000 0
DWIDTH 32 0
BBX 28 29 2 -2
BITMAP
003F8000
00E07000
03000800
06000600
08000100
10078080
20186040
60307040
40607020
C0606020
80C00010
80C00010
80CF8010
80D0E010
81E06010
81C03010
81C03010
80C03010
80C03010
80C03010
40C03020
40607020
20606040
1030C080
080F8100
04000200
03000400
00C03800
003FC000
ENDCHAR
STARTCHAR 2466
ENCODING 9318
SWIDTH 1000 0
DWIDTH 32 0
BBX 28 28 2 -2
BITMAP
003FC000
00C03000
03000C00
0C000200
18000180
30FFF880
20E01040
40C03020
40802020
80806010
80804010
8000C010
80008010
80018010
80018010
80030010
80030010
80030010
80070010
40060020
40060020
20060040
10060080
18060100
04000200
03000C00
00C03000
003FC000
ENDCHAR
STARTCHAR 2467
ENCODING 9319
SWIDTH 1000 0
DWIDTH 32 0
BBX 28 29 2 -2
BITMAP
003F8000
00E07000
03000800
06000600
08000100
101F8080
2030C040
60606040
40C03020
C0C03020
80C03010
80606010
8030C010
801D8010
800F0010
8031C010
8060E010
80C03010
81803010
81803810
41803820
41C03020
20C07040
1070E080
081F8100
04000200
03000400
00C03800
003FC000
ENDCHAR
STARTCHAR 2468
ENCODING 9320
SWIDTH 1000 0
DWIDTH 32 0
BBX 28 29 2 -2
BITMAP
003F8000
00E07000
03000800
06000600
08000100
101F8080
2030C040
60606040
40C06020
C0C03020
80C03010
80C03010
80C03010
80C03810
80607810
8070F810
801F3010
80003010
80003010
80E03010
40E07020
40E06020
2060C040
10618080
081F0100
04000200
03000400
00C03800
003FC000
ENDCHAR
STARTCHAR 2469
ENCODING 9321
SWIDTH 1000 0
DWIDTH 32 0
BBX 28 29 2 -2
BITMAP
003F8000
00E07000
03000C00
06000200
08000100
1000F080
27819840
61830C40
40830C20
C0830620
80870610
80860610
80860610
80860610
80860610
80860610
80860610
80860610
80860610
80830610
40830C20
40830C20
21C19840
17F0F080
08000100
04000200
03000C00
00C03000
003FC000
ENDCHAR
STARTCHAR 246A
ENCODING 9322
SWIDTH 1000 0
DWIDTH 32 0
BBX 28 29 2 -2
BITMAP
003F8000
00E07000
03000C00
06000200
08000100
10400080
27C0F040
61C03040
40C01020
C0C01020
80C01010
80C01010
80C01010
80C01010
80C01010
80C01010
80C01010
80C01010
80C01010
80C01010
40C01020
40C01020
21C03840
17F0FE80
08000100
04000200
03000C00
00C03000
003FC000
ENDCHAR
STARTCHAR 246B
ENCODING 9323
SWIDTH 1000 0
DWIDTH 32 0
BBX 28 28 2 -2
BITMAP
003FC000
00C03000
03000C00
04000200
18000100
1081F080
27831840
41820C20
40870C20
80830C10
80800C10
80800C10
80801C10
80801810
80803010
80803010
80806010
8080C010
80808210
40810220
40830220
21C20640
23E7FE80
10000100
0C000200
03000C00
00C03000
003FC000
ENDCHAR
STARTCHAR 246C
ENCODING 9324
SWIDTH 1000 0
DWIDTH 32 0
BBX 28 29 2 -2
BITMAP
003F8000
00E07000
03000C00
06000200
08000100
1000F080
27831840
61820C40
40870C20
C0870C20
80830C10
80800C10
80800C10
80803010
8080E010
80801810
80800C10
80800610
80800610
80860610
40870620
40860C20
21C31840
17F1F080
08000100
04000200
03000C00
00C03000
003FC000
ENDCHAR
STARTCHAR 246D
ENCODING 9325
SWIDTH 1000 0
DWIDTH 32 0
BBX 28 28 2 -2
BITMAP
003FC000
01C03800
02000C00
0C000300
18000180
318030C0
27803040
40807020
40805020
80809010
80809010
80811010
80831010
80821010
80861010
80841010
80881010
808FFF10
80801010
40801020
40801020
21C03840
17F0FE80
08000100
04000200
03000C00
00C03000
003FC000
ENDCHAR
STARTCHAR 246E
ENCODING 9326
SWIDTH 1000 0
DWIDTH 32 0
BBX 28 28 2 -2
BITMAP
003FC000
01C03800
03000C00
0C000300
18000180
3783FC80
21820040
41820020
41820020
81820010
81820010
8186F010
81871C10
81860C10
81800610
81800610
81800610
81800610
81860610
41870E20
41860C20
21C31840
17F1F080
08000100
04000200
03000C00
00C03000
003FC000
ENDCHAR
STARTCHAR 246F
ENCODING 9327
SWIDTH 1000 0
DWIDTH 32 0
BBX 28 29 2 -2
BITMAP
003F8000
00E07000
03000C00
06000200
08000100
10807880
27818C40
61818C40
41830E20
C1830C20
81820010
81860010
81860010
8186F810
81878C10
81860C10
81860610
81860610
81860610
81860610
41820620
41830C20
21C18C40
17F0F080
08000100
04000200
03000C00
00C03000
003FC000
ENDCHAR
STARTCHAR 2470
ENCODING 9328
SWIDTH 1000 0
DWIDTH 32 0
BBX 28 28 2 -2
BITMAP
003FC000
01C03800
03000C00
0C000300
18000180
3387FE80
21860440
40840420
40840C20
80840810
80801810
80801010
80801010
80803010
80803010
80806010
80806010
80806010
80806010
40806020
4080E020
21C0E040
17F04080
08000100
04000200
03000C00
00C03000
003FC000
ENDCHAR
STARTCHAR 2471
ENCODING 9329
SWIDTH 1000 0
DWIDTH 32 0
BBX 28 29 2 -2
BITMAP
003F8000
00E07000
03000C00
06000200
08000100
1000F080
27838840
61830C40
40820420
C0860420
80830410
80830C10
80819810
8080F010
8080F010
80813810
80821C10
80860E10
80840610
80840610
40860620
40860620
21C30C40
17F1F080
08000100
04000200
03000C00
00C03000
003FC000
ENDCHAR
STARTCHAR 2472
ENCODING 9330
SWIDTH 1000 0
DWIDTH 32 0
BBX 28 29 2 -2
BITMAP
003F8000
00E07000
03000C00
06000200
08000100
1000F080
27819840
61830C40
40860C20
C0860420
80860610
80860610
80860610
80860610
80830610
80831E10
8080E610
80800610
80800410
80830C10
40870C20
40871820
21C31840
17F1E080
08000100
04000200
03000C00
00C03000
003FC000
ENDCHAR
STARTCHAR 2473
ENCODING 9331
SWIDTH 1000 0
DWIDTH 32 0
BBX 28 28 2 -2
BITMAP
003FC000
00C03000
03000C00
04000200
18000100
11E03880
26304C40
4418C620
46188620
86198610
80198310
80198310
80318310
80318310
80618310
80418310
80C18310
81818310
81098610
43088620
4208C620
24084C40
27F83880
10000100
0C000200
03000C00
00C03000
003FC000
ENDCHAR
STARTCHAR 24D0
ENCODING 9424
SWIDTH 1000 0
DWIDTH 32 0
BBX 28 29 2 -2
BITMAP
003F8000
00E07000
03000800
06000600
08000100
10000080
20000040
60000040
401F0020
C0318020
8060C010
8060C010
8060C010
8001C010
801E4010
80304010
80604010
80C04010
80C04010
8061C810
403E7020
40000020
20000040
10000080
08000100
04000200
03000400
00C03800
003FC000
ENDCHAR
STARTCHAR 24D1
ENCODING 9425
SWIDTH 1000 0
DWIDTH 32 0
BBX 28 29 2 -2
BITMAP
003F8000
00E07000
03000800
06000600
08000100
10E00080
20600040
60200040
40200020
C0200020
8023C010
802C6010
80303010
80203010
80201810
80201810
80201810
80201810
80201810
80201810
40203020
40303020
20286040
1007C080
08000100
04000200
03000400
00C03800
003FC000
ENDCHAR
STARTCHAR 24D2
ENCODING 9426
SWIDTH 1000 0
DWIDTH 32 0
BBX 28 29 2 -2
BITMAP
003F8000
00E07000
03000800
06000600
08000100
10000080
20000040
60000040
400F8020
C030C020
80606010
8060E010
80C06010
80C00010
80C00010
80C00010
80C00010
80E00010
80602010
80304010
401F8020
40000020
20000040
10000080
08000100
04000200
03000400
00C03800
003FC000
ENDCHAR
STARTCHAR 24D3
ENCODING 9427
SWIDTH 1000 0
DWIDTH 32 0
BBX 28 29 2 -2
BITMAP
003F8000
00E07000
03000800
06000600
08000100
1001C080
2000C040
6000C040
4000C020
C000C020
801EC010
8061C010
80C0C010
80C0C010
8180C010
8180C010
8180C010
8180C010
8180C010
8180C010
40C0C020
40C0C020
20617040
101E0080
08000100
04000200
03000400
00C03800
003FC000
ENDCHAR
STARTCHAR 24D4
ENCODING 9428
SWIDTH 1000 0
DWIDTH 32 0
BBX 28 28 2 -2
BITMAP
003FC000
01C03800
02000C00
0C000300
18000180
30000080
20000040
40000020
401F8020
80204010
80606010
80C03010
80C03010
80FFC010
80C00010
80C00010
80E01010
80602010
80384010
401F8020
60000060
20000040
10000080
08000100
04000200
03000C00
00C07000
003FC000
ENDCHAR
STARTCHAR 24D5
ENCODING 9429
SWIDTH 1000 0
DWIDTH 32 0
BBX 28 29 2 -3
BITMAP
003FC000
00C03000
03000C00
04000200
18000100
1003C080
20066040
40046020
400C0020
800C0010
800C0010
803F0010
800C0010
800C0010
800C0010
800C0010
800C0010
800C0010
800C0010
C00C0030
400C0020
600C0060
203F00C0
10000080
08000300
06000600
03001C00
00E07000
003FC000
ENDCHAR
STARTCHAR 24D6
ENCODING 9430
SWIDTH 1000 0
DWIDTH 32 0
BBX 28 29 2 -2
BITMAP
003F8000
00E07000
03000800
06000600
08000100
10000080
20000040
601F7840
40319820
C060C020
8060C010
8060C010
8060C010
80318010
802F0010
80600010
807F8010
803FE010
80C03010
80C01010
40C03020
40607020
203FC040
10000080
08000100
04000200
03000400
00C03800
003FC000
ENDCHAR
STARTCHAR 24D7
ENCODING 9431
SWIDTH 1000 0
DWIDTH 32 0
BBX 28 29 2 -3
BITMAP
003FC000
01C03800
06000C00
0C000300
18000180
31E00080
20600040
40600020
40600020
80600010
8067C010
80686010
80702010
80603010
80603010
80603010
80603010
80603010
80603010
C0603020
40603020
60603060
21F8FCC0
10000080
08000100
06000600
03000C00
00E07000
003FC000
ENDCHAR
STARTCHAR 24D8
ENCODING 9432
SWIDTH 1000 0
DWIDTH 32 0
BBX 28 29 2 -3
BITMAP
003FC000
01C03800
06000C00
0C000300
18000180
30060080
20060040
40060020
40000020
80000010
80020010
801E0010
80060010
80060010
80060010
80060010
80060010
80060010
80060010
C0060020
40060020
60060060
201F80C0
10000080
08000300
06000600
03001C00
00E07000
003FC000
ENDCHAR
STARTCHAR 24D9
ENCODING 9433
SWIDTH 1000 0
DWIDTH 32 0
BBX 28 29 2 -2
BITMAP
003F8000
00E07000
03000800
06000600
08030100
10030080
20030040
60000040
40000020
C0010020
800F0010
80030010
80030010
80030010
80030010
80030010
80030010
80030010
80030010
80030010
40030020
40030020
20630040
10630080
08660100
043C0200
03000400
00C03800
003FC000
ENDCHAR
STARTCHAR 24DA
ENCODING 9434
SWIDTH 1000 0
DWIDTH 32 0
BBX 28 29 2 -2
BITMAP
003F8000
00E07000
03000800
06000600
08000100
10700080
20F00040
60300040
40300020
C0300020
80300010
8031F810
80306010
80308010
80310010
80360010
803E0010
80330010
80318010
8030C030
40306020
40307060
20FCFC40
10000080
08000100
04000200
03000C00
00C03000
003FC000
ENDCHAR
STARTCHAR 24DB
ENCODING 9435
SWIDTH 1000 0
DWIDTH 32 0
BBX 28 29 2 -3
BITMAP
003FC000
01C03800
06000C00
0C000300
18000180
301E0080
20060040
40060020
40060020
80060010
80060010
80060010
80060010
80060010
80060010
80060010
80060010
80060010
80060010
C0060020
40060020
60060060
201F80C0
10000080
08000300
06000600
03001C00
00E07000
003FC000
ENDCHAR
STARTCHAR 24DC
ENCODING 9436
SWIDTH 1000 0
DWIDTH 32 0
BBX 28 29 2 -2
BITMAP
003F8000
00E07000
03000800
06000600
08000100
10000080
20000040
60000040
41387820
CF448C20
83870410
83020410
83020610
83020610
83020610
83020610
83020610
83020610
83020610
83060610
4FCF9FA0
40000020
20000040
10000080
08000100
04000200
03000400
00C03800
003FC000
ENDCHAR
STARTCHAR 24DD
ENCODING 9437
SWIDTH 1000 0
DWIDTH 32 0
BBX 28 29 2 -2
BITMAP
003F8000
00E07000
03000800
06000600
08000100
10000080
20000040
60000040
40278020
C1E86020
80706010
80702010
80603010
80603010
80603010
80603010
80603010
80603010
80603010
80603010
41F8FC20
40000020
20000040
10000080
08000100
04000200
03000400
00C03800
003FC000
ENDCHAR
STARTCHAR 24DE
ENCODING 9438
SWIDTH 1000 0
DWIDTH 32 0
BBX 28 29 2 -2
BITMAP
003F8000
00E07000
03000800
06000600
08000100
10000080
20000040
60000040
400F0020
C030C020
80606010
80606010
80C03010
80C03010
80C03010
80C03010
80C03010
80C03010
80606010
8030C010
401F8020
40000020
20000040
10000080
08000100
04000200
03000400
00C03800
003FC000
ENDCHAR
STARTCHAR 24DF
ENCODING 9439
SWIDTH 1000 0
DWIDTH 32 0
BBX 28 28 2 -2
BITMAP
003FC000
01C03800
06000E00
0C000300
18000180
300000C0
2013C040
40FC6020
C0303020
80301810
80301810
80301810
80301810
80301810
80301810
80303010
80386010
8037C010
80300010
40300020
40300020
20300040
10FC0080
08000100
04000200
03000400
00C03800
003FC000
ENDCHAR
STARTCHAR 24E0
ENCODING 9440
SWIDTH 1000 0
DWIDTH 32 0
BBX 28 28 2 -2
BITMAP
003FC000
01C03800
06000E00
0C000300
18000180
300000C0
203E0040
40614020
C0C0C020
8180C010
8180C010
8180C010
8180C010
8180C010
8180C010
80C0C010
8061C010
803EC010
8000C010
4000C020
4000C020
2000C040
1003F080
08000100
04000200
03000400
00C03800
003FC000
ENDCHAR
STARTCHAR 24E1
ENCODING 9441
SWIDTH 1000 0
DWIDTH 32 0
BBX 28 29 2 -2
BITMAP
003F8000
00E07000
03000800
06000600
08000100
10000080
20000040
60000040
4008E020
C0393020
800A3010
800C0010
80080010
80080010
80080010
80080010
80080010
80080010
80080010
801C0010
403E0020
40000020
20000040
10000080
08000100
04000200
03000400
00C03800
003FC000
ENDCHAR
STARTCHAR 24E2
ENCODING 9442
SWIDTH 1000 0
DWIDTH 32 0
BBX 28 29 2 -2
BITMAP
003F8000
00E07000
03000800
06000600
08000100
10000080
20000040
60000040
401F0020
C030E020
80206010
80202010
80302010
803C0010
800F8010
8003C010
8040E010
80406010
80602010
80606010
40588020
40070020
20000040
10000080
08000100
04000200
03000400
00C03800
003FC000
ENDCHAR
STARTCHAR 24E3
ENCODING 9443
SWIDTH 1000 0
DWIDTH 32 0
BBX 28 29 2 -2
BITMAP
003F8000
00E07000
03000800
06000600
08000100
10000080
30000040
60080040
40080020
C0180020
807FC010
80080010
80080010
80080010
80080010
80080010
80080010
80080010
80080010
80080010
400C2020
400C4020
20078040
10000080
08000100
04000200
03000400
00C03800
003FC000
ENDCHAR
STARTCHAR 24E4
ENCODING 9444
SWIDTH 1000 0
DWIDTH 32 0
BBX 28 29 2 -2
BITMAP
003F8000
00E07000
03000800
06000600
08000100
10000080
20000040
60000040
40602020
C1E1E020
80606010
80606010
80606010
80606010
80606010
80606010
80606010
80606010
80606010
8030A010
401F3820
40000020
20000040
10000080
08000100
04000200
03000400
00C03800
003FC000
ENDCHAR
STARTCHAR 24E5
ENCODING 9445
SWIDTH 1000 0
DWIDTH 32 0
BBX 28 29 2 -2
BITMAP
003FC000
00C03000
03000C00
04000200
08000100
10000080
20000040
60000020
40000020
83F0FC20
80E03010
80602010
80602010
80304010
80304010
80188010
80188010
800D0010
800D0010
80060030
40060020
60000060
20000040
10000080
08000100
04000200
03000C00
00C03000
003FC000
ENDCHAR
STARTCHAR 24E6
ENCODING 9446
SWIDTH 1000 0
DWIDTH 32 0
BBX 28 29 2 -2
BITMAP
003FC000
00C03000
03000C00
04000200
08000100
10000080
20000040
60000020
40000020
8FCF9F20
83020410
81030410
81870810
81850810
80C58810
80C99010
80C89010
8068D010
8070E010
80706030
40306020
60204060
20000040
10000080
08000100
04000200
03000C00
00C03000
003FC000
ENDCHAR
STARTCHAR 24E7
ENCODING 9447
SWIDTH 1000 0
DWIDTH 32 0
BBX 28 28 2 -2
BITMAP
003FC000
01C03800
06000C00
0C000300
18000180
300000C0
20000040
40000020
41F9F820
80606010
8030C010
80198010
800F0010
80060010
80070010
80098010
8010C010
80206010
80C07010
43F9FC20
40000020
20000040
10000080
08000100
04000200
03000400
00C03800
003FC000
ENDCHAR
STARTCHAR 24E8
ENCODING 9448
SWIDTH 1000 0
DWIDTH 32 0
BBX 28 29 2 -3
BITMAP
003FC000
01C03800
06000C00
0C000300
18000180
30000080
20000040
41F8FC20
40603020
80303010
80302010
80186010
800C4010
800C4010
80068010
80068010
80030010
80030010
80020010
C0020020
40640020
606C0060
207800C0
10000080
08000300
06000600
03001C00
00E07000
003FC000
ENDCHAR
STARTCHAR 24E9
ENCODING 9449
SWIDTH 1000 0
DWIDTH 32 0
BBX 28 28 2 -2
BITMAP
003FC000
01C03800
06000C00
0C000300
18000180
300000C0
20000040
40000020
407FE020
8060E010
8040C010
80418010
80030010
80060010
800C0010
80181010
80181010
80303010
80607010
40FFF020
40000020
20000040
10000080
08000100
04000200
03000400
00C03800
003FC000
ENDCHAR
STARTCHAR 24EB
ENCODING 9451
SWIDTH 1000 0
DWIDTH 32 0
BBX 28 29 2 -2
BITMAP
003F8000
00FFF000
03FFFC00
07FFFE00
0FFFFF00
1F7FF780
387F07C0
7E7FE7C0
7E7FE7E0
FE7FE7E0
FE7FE7F0
FE7FE7F0
FE7FE7F0
FE7FE7F0
FE7FE7F0
FE7FE7F0
FE7FE7F0
FE7FE7F0
FE7FE7F0
FE7FE7F0
7E7FE7E0
7E7FE7E0
3E7FE7C0
180F0180
0FFFFF00
07FFFE00
03FFFC00
00FFF000
003FC000
ENDCHAR
STARTCHAR 24EC
ENCODING 9452
SWIDTH 1000 0
DWIDTH 32 0
BBX 28 29 2 -2
BITMAP
003FC000
00FFF000
03FFFC00
07FFFE00
0FFFFF00
1E7F0F80
387EE3C0
7E7CF3E0
7E7CF9E0
FE7CF9F0
FE7CF1F0
FE7FF3F0
FE7FF3F0
FE7FE7F0
FE7FE7F0
FE7FCFF0
FE7F9FF0
FE7FBFF0
FE7F7DF0
FE7E7DF0
7E7EFDE0
7E7DF9E0
3E3801C0
18180180
0FFFFF00
07FFFE00
03FFFC00
00FFF000
003FC000
ENDCHAR
STARTCHAR 24ED
ENCODING 9453
SWIDTH 1000 0
DWIDTH 32 0
BBX 28 29 2 -2
BITMAP
003F8000
00FFF000
03FFFC00
07FFFE00
0FFFFF00
1F7F0F80
387EF3C0
7E7CF3C0
7E7CF9E0
FE7CF9E0
FE7CF9F0
FE7FF3F0
FE7FF3F0
FE7FE7F0
FE7F0FF0
FE7FF3F0
FE7FF9F0
FE7FF9F0
FE7FF9F0
FE7CF9F0
7E78F9E0
7E79F3E0
3E7CF3C0
181F0F80
0FFFFF00
07FFFE00
03FFFC00
00FFF000
003FC000
ENDCHAR
STARTCHAR 24EE
ENCODING 9454
SWIDTH 1000 0
DWIDTH 32 0
BBX 28 28 2 -2
BITMAP
003FC000
01FFF800
03FFFC00
0FFFFF00
1FFFFF80
3E7FE7C0
387FC7C0
7E7FC7E0
7E7FA7E0
FE7FA7F0
FE7F67F0
FE7E67F0
FE7EE7F0
FE7DE7F0
FE7DE7F0
FE7BE7F0
FE7BE7F0
FE7000F0
FE7FE7F0
7E7FE7E0
7E7FE7E0
3E7FE7C0
181F0180
0FFFFF00
07FFFE00
03FFFC00
00FFF000
003FC000
ENDCHAR
STARTCHAR 24EF
ENCODING 9455
SWIDTH 1000 0
DWIDTH 32 0
BBX 28 28 2 -2
BITMAP
003FC000
01FFF800
03FFFC00
0FFFFF00
1FFFFF80
387C0380
3E7DFFC0
7E7DFFE0
7E7DFFE0
FE7DFFF0
FE7DFFF0
FE7D07F0
FE7C73F0
FE7DF9F0
FE7FF9F0
FE7FF9F0
FE7FF9F0
FE7FF9F0
FE78F9F0
7E78F9E0
7E79F3E0
3E7CE3C0
181F0F80
1FFFFF00
07FFFE00
03FFFC00
00FFF000
003FC000
ENDCHAR
STARTCHAR 24F0
ENCODING 9456
SWIDTH 1000 0
DWIDTH 32 0
BBX 28 29 2 -2
BITMAP
003F8000
00FFF000
03FFFC00
07FFFE00
0FFFFF00
1F7F8780
387F33C0
7E7E79C0
7E7EF1E0
FE7CF1E0
FE7CFFF0
FE7CFFF0
FE7DFFF0
FE7987F0
FE7873F0
FE78F9F0
FE79F9F0
FE79F9F0
FE7CF9F0
FE7CF9F0
7E7CF9E0
7E7CF9E0
3E7E73C0
181F0780
0FFFFF00
07FFFE00
03FFFC00
00FFF000
003FC000
ENDCHAR
STARTCHAR 24F1
ENCODING 9457
SWIDTH 1000 0
DWIDTH 32 0
BBX 28 28 2 -2
BITMAP
003FC000
01FFF800
03FFFC00
0FFFFF00
1FFFFF80
38780180
3E79FDC0
7E79FBE0
7E7BFBE0
FE7BF7F0
FE7FF7F0
FE7FE7F0
FE7FEFF0
FE7FEFF0
FE7FCFF0
FE7FCFF0
FE7FDFF0
FE7F9FF0
FE7F9FF0
7E7F9FE0
7E7F9FE0
3E7F9FC0
181F9F80
1FFFFF00
07FFFE00
03FFFC00
00FFF000
003FC000
ENDCHAR
STARTCHAR 24F2
ENCODING 9458
SWIDTH 1000 0
DWIDTH 32 0
BBX 28 29 2 -2
BITMAP
003F8000
00FFF000
03FFFC00
07FFFE00
0FFFFF00
1F7F0F80
387E73C0
7E7CFBC0
7E7CF9E0
FE7CF9E0
FE7CF9F0
FE7CFBF0
FE7E77F0
FE7F0FF0
FE7F8FF0
FE7E67F0
FE7CF3F0
FE79F9F0
FE79F9F0
FE79F9F0
7E79F9E0
7E7DF9E0
3E7CF3C0
181F0780
0FFFFF00
07FFFE00
03FFFC00
00FFF000
003FC000
ENDCHAR
STARTCHAR 24F3
ENCODING 9459
SWIDTH 1000 0
DWIDTH 32 0
BBX 28 29 2 -2
BITMAP
003F8000
00FFF000
03FFFC00
07FFFE00
0FFFFF00
1F7F0F80
387E67C0
7E7CF3C0
7E7CF9E0
FE79F9E0
FE79F9F0
FE79F9F0
FE79F9F0
FE7CF9F0
FE7CF9F0
FE7E71F0
FE7F09F0
FE7FF9F0
FE7FF9F0
FE7CF9F0
7E7CF3E0
7E7CF3E0
3E7CE7C0
181E0F80
0FFFFF00
07FFFE00
03FFFC00
00FFF000
003FC000
ENDCHAR
STARTCHAR 24F4
ENCODING 9460
SWIDTH 1000 0
DWIDTH 32 0
BBX 28 29 2 -2
BITMAP
003FC000
00FFF000
03FFFC00
07FFFE00
0FFFFF00
1C1FC780
39CF99C0
73E739E0
71E73DE0
F9E73CF0
FFE73CF0
FFCE7CF0
FFCE7CF0
FFDE7CF0
FF9E7CF0
FF3E7CF0
FF7E7CF0
FE7E7CF0
FEF73CF0
FDF73CF0
7BF73DE0
7BE739E0
300799C0
1007C780
0FFFFF00
07FFFE00
03FFFC00
00FFF000
003FC000
ENDCHAR
STARTCHAR 24F5
ENCODING 9461
SWIDTH 1000 0
DWIDTH 32 0
BBX 30 30 1 -3
BITMAP
003FE000
00C01800
031FC600
04703980
09800440
13000320
261F01A0
2C030090
48030048
50030028
90030028
A0030024
A0030014
A0030014
A0030014
A0030014
A0030014
A0030014
A0030024
50030028
50030028
68030050
24038090
141FE1A0
1B000340
0D800680
06703900
018FC600
00601800
001FE000
ENDCHAR
STARTCHAR 24F6
ENCODING 9462
SWIDTH 1000 0
DWIDTH 32 0
BBX 30 30 1 -3
BITMAP
001FE000
00601800
01800600
061FE100
0CE018C0
19000640
120FC120
24186090
48303050
50601848
50701828
A0301824
A0003814
A0003014
A0007014
A000E014
A001C014
A0038014
A0060014
900C0028
50180828
48300848
2C6008D0
147FF9B0
1B000360
0D8006C0
06703980
019FE600
00601C00
001FE000
ENDCHAR
STARTCHAR 24F7
ENCODING 9463
SWIDTH 1000 0
DWIDTH 32 0
BBX 30 30 1 -3
BITMAP
001FE000
00601800
019FC600
06703980
0D8004C0
1B0FC360
161861A0
2C303090
48601848
50701828
50301828
A0003824
A0003014
A000E014
A0078014
A0007014
A0001814
A0001814
A0001C24
90601C28
50701828
48603850
24307090
140FC1A0
1B000340
0D8006C0
06703900
018FC600
00601800
001FE000
ENDCHAR
STARTCHAR 24F8
ENCODING 9464
SWIDTH 1000 0
DWIDTH 32 0
BBX 30 31 1 -3
BITMAP
001FE000
00601800
01800600
021FC100
0CE03880
09000440
1200C320
2401C090
2803C090
5002C048
5004C028
900CC024
A018C024
A030C014
A020C014
A040C014
A0C0C014
A180C014
A1FFFC14
A000C024
5000C028
5000C028
2800C050
2400C090
1607F9A0
0B000340
0D800680
02703900
018FC600
00601800
001FE000
ENDCHAR
STARTCHAR 24F9
ENCODING 9465
SWIDTH 1000 0
DWIDTH 32 0
BBX 30 30 1 -3
BITMAP
001FE000
00601800
019FC600
06703980
0D8004C0
1B000360
163FF1A0
2C200090
48200048
50200028
50200028
A0200024
A027C014
A0387014
A0303814
A0001814
A0001814
A0001C14
A0001C24
90701828
50701828
48603050
24306090
140FC1A0
1B000340
0D800680
06703900
018FC600
00601800
001FE000
ENDCHAR
STARTCHAR 24FA
ENCODING 9466
SWIDTH 1000 0
DWIDTH 32 0
BBX 30 30 1 -3
BITMAP
001FE000
00601800
019FC600
06703980
0D8004C0
1B03C360
160C31A0
2C183090
48303848
50303028
50700028
A0600024
A063C014
A06C7014
A0703014
A0601814
A0601814
A0601814
A0601824
90601828
50303828
48303050
24186090
1407C1A0
1B000340
0D8006C0
06703900
018FC600
00601800
001FE000
ENDCHAR
STARTCHAR 24FB
ENCODING 9467
SWIDTH 1000 0
DWIDTH 32 0
BBX 30 30 1 -3
BITMAP
001FE000
00601800
019FC600
06703980
0D8004C0
1B000360
163FFDA0
2C300890
48201048
50203028
50402028
A0006024
A0006014
A0004014
A000C014
A0008014
A0018014
A0018014
A0018024
90030028
50030028
48030050
24030090
140301A0
1B030340
0D800680
06703900
018FC600
00601800
001FE000
ENDCHAR
STARTCHAR 24FC
ENCODING 9468
SWIDTH 1000 0
DWIDTH 32 0
BBX 30 30 1 -3
BITMAP
001FE000
00601800
019FC600
06703980
0D8004C0
1B0F8360
161861A0
2C303090
48201048
50601828
50301028
A0303024
A0186014
A00EC014
A0078014
A018E014
A0207014
A0601814
A0C01824
90C01828
50401828
48601850
24387090
140FC1A0
1B000340
0D8006C0
06703900
018FC600
00601800
001FE000
ENDCHAR
STARTCHAR 24FD
ENCODING 9469
SWIDTH 1000 0
DWIDTH 32 0
BBX 30 30 1 -3
BITMAP
001FE000
00601800
019FC600
06703980
0D8004C0
1B078360
161861A0
2C303090
48303048
50601828
50601828
A0601824
A0601814
A0601814
A0303814
A0187814
A00F9814
A0001814
A0001824
90303028
50703028
48306050
2430C090
140F81A0
1B000340
0D8006C0
06703900
018FC600
00601800
001FE000
ENDCHAR
STARTCHAR 24FE
ENCODING 9470
SWIDTH 1000 0
DWIDTH 32 0
BBX 30 30 1 -3
BITMAP
001FE000
00601800
019FC600
06703980
0D8004C0
1B000340
166079A0
2DE0CC90
48618650
50618628
50618628
A0630324
A0630314
A0630314
A0630314
A0630314
A0630314
A0630314
A0630324
90618628
50618628
48618648
2460CC90
15F879A0
1B000360
0D8006C0
06703980
018FC600
00601C00
001FE000
ENDCHAR
STARTCHAR 2500
ENCODING 9472
SWIDTH 1000 0
DWIDTH 32 0
BBX 32 1 0 12
BITMAP
FFFFFFFF
ENDCHAR
STARTCHAR 2501
ENCODING 9473
SWIDTH 1000 0
DWIDTH 32 0
BBX 32 4 0 10
BITMAP
FFFFFFFF
FFFFFFFF
FFFFFFFF
FFFFFFFF
ENDCHAR
STARTCHAR 2502
ENCODING 9474
SWIDTH 1000 0
DWIDTH 32 0
BBX 2 32 15 -4
BITMAP
C0
C0
C0
C0
C0
C0
C0
C0
C0
C0
C0
C0
C0
C0
C0
C0
C0
C0
C0
C0
C0
C0
C0
C0
C0
C0
C0
C0
C0
C0
C0
C0
ENDCHAR
STARTCHAR 2503
ENCODING 9475
SWIDTH 1000 0
DWIDTH 32 0
BBX 4 32 14 -4
BITMAP
F0
F0
F0
F0
F0
F0
F0
F0
F0
F0
F0
F0
F0
F0
F0
F0
F0
F0
F0
F0
F0
F0
F0
F0
F0
F0
F0
F0
F0
F0
F0
F0
ENDCHAR
STARTCHAR 250C
ENCODING 9484
SWIDTH 1000 0
DWIDTH 32 0
BBX 17 16 15 -3
BITMAP
FFFF80
C00000
C00000
C00000
C00000
C00000
C00000
C00000
C00000
C00000
C00000
C00000
C00000
C00000
C00000
C00000
ENDCHAR
STARTCHAR 250F
ENCODING 9487
SWIDTH 1000 0
DWIDTH 32 0
BBX 18 18 14 -4
BITMAP
FFFFC0
FFFFC0
FFFFC0
FFFFC0
F00000
F00000
F00000
F00000
F00000
F00000
F00000
F00000
F00000
F00000
F00000
F00000
F00000
F00000
ENDCHAR
STARTCHAR 2510
ENCODING 9488
SWIDTH 1000 0
DWIDTH 32 0
BBX 17 16 0 -3
BITMAP
FFFF80
000180
000180
000180
000180
000180
000180
000180
000180
000180
000180
000180
000180
000180
000180
000180
ENDCHAR
STARTCHAR 2513
ENCODING 9491
SWIDTH 1000 0
DWIDTH 32 0
BBX 18 18 0 -4
BITMAP
FFFFC0
FFFFC0
FFFFC0
FFFFC0
0003C0
0003C0
0003C0
0003C0
0003C0
0003C0
0003C0
0003C0
0003C0
0003C0
0003C0
0003C0
0003C0
0003C0
ENDCHAR
STARTCHAR 2514
ENCODING 9492
SWIDTH 1000 0
DWIDTH 32 0
BBX 17 16 15 12
BITMAP
C00000
C00000
C00000
C00000
C00000
C00000
C00000
C00000
C00000
C00000
C00000
C00000
C00000
C00000
C00000
FFFF80
ENDCHAR
STARTCHAR 2517
ENCODING 9495
SWIDTH 1000 0
DWIDTH 32 0
BBX 18 18 14 10
BITMAP
F00000
F00000
F00000
F00000
F00000
F00000
F00000
F00000
F00000
F00000
F00000
F00000
F00000
F00000
FFFFC0
FFFFC0
FFFFC0
FFFFC0
ENDCHAR
STARTCHAR 2518
ENCODING 9496
SWIDTH 1000 0
DWIDTH 32 0
BBX 17 16 0 12
BITMAP
000180
000180
000180
000180
000180
000180
000180
000180
000180
000180
000180
000180
000180
000180
000180
FFFF80
ENDCHAR
STARTCHAR 251B
ENCODING 9499
SWIDTH 1000 0
DWIDTH 32 0
BBX 18 18 0 10
BITMAP
0003C0
0003C0
0003C0
0003C0
0003C0
0003C0
0003C0
0003C0
0003C0
0003C0
0003C0
0003C0
0003C0
0003C0
FFFFC0
FFFFC0
FFFFC0
FFFFC0
ENDCHAR
STARTCHAR 251C
ENCODING 9500
SWIDTH 1000 0
DWIDTH 32 0
BBX 17 31 15 -3
BITMAP
C00000
C00000
C00000
C00000
C00000
C00000
C00000
C00000
C00000
C00000
C00000
C00000
C00000
C00000
C00000
FFFF80
C00000
C00000
C00000
C00000
C00000
C00000
C00000
C00000
C00000
C00000
C00000
C00000
C00000
C00000
C00000
ENDCHAR
STARTCHAR 251D
ENCODING 9501
SWIDTH 1000 0
DWIDTH 32 0
BBX 17 32 15 -4
BITMAP
C00000
C00000
C00000
C00000
C00000
C00000
C00000
C00000
C00000
C00000
C00000
C00000
C00000
C00000
FFFF80
FFFF80
FFFF80
FFFF80
C00000
C00000
C00000
C00000
C00000
C00000
C00000
C00000
C00000
C00000
C00000
C00000
C00000
C00000
ENDCHAR
STARTCHAR 2520
ENCODING 9504
SWIDTH 1000 0
DWIDTH 32 0
BBX 18 32 14 -4
BITMAP
F00000
F00000
F00000
F00000
F00000
F00000
F00000
F00000
F00000
F00000
F00000
F00000
F00000
F00000
F00000
FFFFC0
F00000
F00000
F00000
F00000
F00000
F00000
F00000
F00000
F00000
F00000
F00000
F00000
F00000
F00000
F00000
F00000
ENDCHAR
STARTCHAR 2523
ENCODING 9507
SWIDTH 1000 0
DWIDTH 32 0
BBX 18 32 14 -4
BITMAP
F00000
F00000
F00000
F00000
F00000
F00000
F00000
F00000
F00000
F00000
F00000
F00000
F00000
F00000
FFFFC0
FFFFC0
FFFFC0
FFFFC0
F00000
F00000
F00000
F00000
F00000
F00000
F00000
F00000
F00000
F00000
F00000
F00000
F00000
F00000
ENDCHAR
STARTCHAR 2524
ENCODING 9508
SWIDTH 1000 0
DWIDTH 32 0
BBX 17 31 0 -3
BITMAP
000180
000180
000180
000180
000180
000180
000180
000180
000180
000180
000180
000180
000180
000180
000180
FFFF80
000180
000180
000180
000180
000180
000180
000180
000180
000180
000180
000180
000180
000180
000180
000180
ENDCHAR
STARTCHAR 2525
ENCODING 9509
SWIDTH 1000 0
DWIDTH 32 0
BBX 17 32 0 -4
BITMAP
000180
000180
000180
000180
000180
000180
000180
000180
000180
000180
000180
000180
000180
000180
FFFF80
FFFF80
FFFF80
FFFF80
000180
000180
000180
000180
000180
000180
000180
000180
000180
000180
000180
000180
000180
000180
ENDCHAR
STARTCHAR 2528
ENCODING 9512
SWIDTH 1000 0
DWIDTH 32 0
BBX 18 32 0 -4
BITMAP
0003C0
0003C0
0003C0
0003C0
0003C0
0003C0
0003C0
0003C0
0003C0
0003C0
0003C0
0003C0
0003C0
0003C0
0003C0
FFFFC0
0003C0
0003C0
0003C0
0003C0
0003C0
0003C0
0003C0
0003C0
0003C0
0003C0
0003C0
0003C0
0003C0
0003C0
0003C0
0003C0
ENDCHAR
STARTCHAR 252B
ENCODING 9515
SWIDTH 1000 0
DWIDTH 32 0
BBX 18 32 0 -4
BITMAP
0003C0
0003C0
0003C0
0003C0
0003C0
0003C0
0003C0
0003C0
0003C0
0003C0
0003C0
0003C0
0003C0
0003C0
FFFFC0
FFFFC0
FFFFC0
FFFFC0
0003C0
0003C0
0003C0
0003C0
0003C0
0003C0
0003C0
0003C0
0003C0
0003C0
0003C0
0003C0
0003C0
0003C0
ENDCHAR
STARTCHAR 252C
ENCODING 9516
SWIDTH 1000 0
DWIDTH 32 0
BBX 32 16 0 -3
BITMAP
FFFFFFFF
00018000
00018000
00018000
00018000
00018000
00018000
00018000
00018000
00018000
00018000
00018000
00018000
00018000
00018000
00018000
ENDCHAR
STARTCHAR 252F
ENCODING 9519
SWIDTH 1000 0
DWIDTH 32 0
BBX 32 18 0 -4
BITMAP
FFFFFFFF
FFFFFFFF
FFFFFFFF
FFFFFFFF
00018000
00018000
00018000
00018000
00018000
00018000
00018000
00018000
00018000
00018000
00018000
00018000
00018000
00018000
ENDCHAR
STARTCHAR 2530
ENCODING 9520
SWIDTH 1000 0
DWIDTH 32 0
BBX 32 17 0 -4
BITMAP
FFFFFFFF
0003C000
0003C000
0003C000
0003C000
0003C000
0003C000
0003C000
0003C000
0003C000
0003C000
0003C000
0003C000
0003C000
0003C000
0003C000
0003C000
ENDCHAR
STARTCHAR 2533
ENCODING 9523
SWIDTH 1000 0
DWIDTH 32 0
BBX 32 18 0 -4
BITMAP
FFFFFFFF
FFFFFFFF
FFFFFFFF
FFFFFFFF
0003C000
0003C000
0003C000
0003C000
0003C000
0003C000
0003C000
0003C000
0003C000
0003C000
0003C000
0003C000
0003C000
0003C000
ENDCHAR
STARTCHAR 2534
ENCODING 9524
SWIDTH 1000 0
DWIDTH 32 0
BBX 32 16 0 12
BITMAP
00018000
00018000
00018000
00018000
00018000
00018000
00018000
00018000
00018000
00018000
00018000
00018000
00018000
00018000
00018000
FFFFFFFF
ENDCHAR
STARTCHAR 2537
ENCODING 9527
SWIDTH 1000 0
DWIDTH 32 0
BBX 32 18 0 10
BITMAP
00018000
00018000
00018000
00018000
00018000
00018000
00018000
00018000
00018000
00018000
00018000
00018000
00018000
00018000
FFFFFFFF
FFFFFFFF
FFFFFFFF
FFFFFFFF
ENDCHAR
STARTCHAR 2538
ENCODING 9528
SWIDTH 1000 0
DWIDTH 32 0
BBX 32 16 0 12
BITMAP
0003C000
0003C000
0003C000
0003C000
0003C000
0003C000
0003C000
0003C000
0003C000
0003C000
0003C000
0003C000
0003C000
0003C000
0003C000
FFFFFFFF
ENDCHAR
STARTCHAR 253B
ENCODING 9531
SWIDTH 1000 0
DWIDTH 32 0
BBX 32 18 0 10
BITMAP
0003C000
0003C000
0003C000
0003C000
0003C000
0003C000
0003C000
0003C000
0003C000
0003C000
0003C000
0003C000
0003C000
0003C000
FFFFFFFF
FFFFFFFF
FFFFFFFF
FFFFFFFF
ENDCHAR
STARTCHAR 253C
ENCODING 9532
SWIDTH 1000 0
DWIDTH 32 0
BBX 32 31 0 -3
BITMAP
00018000
00018000
00018000
00018000
00018000
00018000
00018000
00018000
00018000
00018000
00018000
00018000
00018000
00018000
00018000
FFFFFFFF
00018000
00018000
00018000
00018000
00018000
00018000
00018000
00018000
00018000
00018000
00018000
00018000
00018000
00018000
00018000
ENDCHAR
STARTCHAR 253F
ENCODING 9535
SWIDTH 1000 0
DWIDTH 32 0
BBX 32 32 0 -4
BITMAP
00018000
00018000
00018000
00018000
00018000
00018000
00018000
00018000
00018000
00018000
00018000
00018000
00018000
00018000
FFFFFFFF
FFFFFFFF
FFFFFFFF
FFFFFFFF
00018000
00018000
00018000
00018000
00018000
00018000
00018000
00018000
00018000
00018000
00018000
00018000
00018000
00018000
ENDCHAR
STARTCHAR 2542
ENCODING 9538
SWIDTH 1000 0
DWIDTH 32 0
BBX 32 32 0 -4
BITMAP
0003C000
0003C000
0003C000
0003C000
0003C000
0003C000
0003C000
0003C000
0003C000
0003C000
0003C000
0003C000
0003C000
0003C000
0003C000
FFFFFFFF
0003C000
0003C000
0003C000
0003C000
0003C000
0003C000
0003C000
0003C000
0003C000
0003C000
0003C000
0003C000
0003C000
0003C000
0003C000
0003C000
ENDCHAR
STARTCHAR 254B
ENCODING 9547
SWIDTH 1000 0
DWIDTH 32 0
BBX 32 32 0 -4
BITMAP
0003C000
0003C000
0003C000
0003C000
0003C000
0003C000
0003C000
0003C000
0003C000
0003C000
0003C000
0003C000
0003C000
0003C000
FFFFFFFF
FFFFFFFF
FFFFFFFF
FFFFFFFF
0003C000
0003C000
0003C000
0003C000
0003C000
0003C000
0003C000
0003C000
0003C000
0003C000
0003C000
0003C000
0003C000
0003C000
ENDCHAR
STARTCHAR 25A0
ENCODING 9632
SWIDTH 1000 0
DWIDTH 32 0
BBX 24 24 4 0
BITMAP
FFFFFF
FFFFFF
FFFFFF
FFFFFF
FFFFFF
FFFFFF
FFFFFF
FFFFFF
FFFFFF
FFFFFF
FFFFFF
FFFFFF
FFFFFF
FFFFFF
FFFFFF
FFFFFF
FFFFFF
FFFFFF
FFFFFF
FFFFFF
FFFFFF
FFFFFF
FFFFFF
FFFFFF
ENDCHAR
STARTCHAR 25A1
ENCODING 9633
SWIDTH 1000 0
DWIDTH 32 0
BBX 24 24 4 0
BITMAP
FFFFFF
800001
800001
800001
800001
800001
800001
800001
800001
800001
800001
800001
800001
800001
800001
800001
800001
800001
800001
800001
800001
800001
800001
FFFFFF
ENDCHAR
STARTCHAR 25B1
ENCODING 9649
SWIDTH 1000 0
DWIDTH 32 0
BBX 28 12 2 6
BITMAP
07FFFFF0
04000030
0C000020
08000060
18000040
100000C0
30000080
20000180
60000100
40000300
C0000200
FFFFFE00
ENDCHAR
STARTCHAR 25B2
ENCODING 9650
SWIDTH 1000 0
DWIDTH 32 0
BBX 26 24 3 1
BITMAP
000C0000
000C0000
001E0000
001E0000
003F0000
003F0000
007F8000
007F8000
00FFC000
00FFC000
01FFE000
01FFE000
03FFF000
03FFF000
07FFF800
0FFFFC00
0FFFFC00
1FFFFE00
1FFFFE00
3FFFFF00
3FFFFF00
7FFFFF80
7FFFFF80
FFFFFFC0
ENDCHAR
STARTCHAR 25B3
ENCODING 9651
SWIDTH 1000 0
DWIDTH 32 0
BBX 26 24 3 1
BITMAP
000C0000
000C0000
001E0000
00120000
00330000
00210000
00618000
00408000
00C0C000
00804000
01806000
01002000
03003000
02001000
06001800
04000800
0C000C00
18000600
18000600
30000300
30000300
60000180
60000180
FFFFFFC0
ENDCHAR
STARTCHAR 25B6
ENCODING 9654
SWIDTH 1000 0
DWIDTH 32 0
BBX 24 25 4 -1
BITMAP
800000
E00000
F80000
FE0000
FF8000
FFE000
FFF800
FFFE00
FFFF00
FFFFC0
FFFFF0
FFFFFC
FFFFFF
FFFFFF
FFFFFC
FFFFF0
FFFFC0
FFFF00
FFFC00
FFF000
FFC000
FF0000
FC0000
F00000
C00000
ENDCHAR
STARTCHAR 25B7
ENCODING 9655
SWIDTH 1000 0
DWIDTH 32 0
BBX 24 25 4 -1
BITMAP
800000
E00000
B80000
8E0000
838000
80E000
803800
800E00
800700
8001C0
800070
80001C
800007
800007
80001C
800070
8001C0
800700
801C00
807000
81C000
870000
9C0000
F00000
C00000
ENDCHAR
STARTCHAR 25BC
ENCODING 9660
SWIDTH 1000 0
DWIDTH 32 0
BBX 26 24 3 -1
BITMAP
FFFFFFC0
7FFFFF80
7FFFFF80
3FFFFF00
3FFFFF00
1FFFFE00
1FFFFE00
0FFFFC00
0FFFFC00
07FFF800
03FFF800
03FFF000
01FFE000
01FFE000
00FFC000
00FFC000
007F8000
007F8000
003F0000
003F0000
001E0000
001E0000
000C0000
000C0000
ENDCHAR
STARTCHAR 25BD
ENCODING 9661
SWIDTH 1000 0
DWIDTH 32 0
BBX 26 24 3 -1
BITMAP
FFFFFFC0
60000180
60000180
30000300
30000300
18000600
18000600
0C000C00
04000C00
06001800
02001000
03003000
01002000
01806000
00804000
00C0C000
00408000
00618000
00210000
00330000
00120000
001E0000
000C0000
000C0000
ENDCHAR
STARTCHAR 25C0
ENCODING 9664
SWIDTH 1000 0
DWIDTH 32 0
BBX 24 25 4 -1
BITMAP
000001
000007
00001F
00007F
0001FF
0007FF
001FFF
007FFF
00FFFF
03FFFF
0FFFFF
3FFFFF
FFFFFF
FFFFFF
3FFFFF
0FFFFF
03FFFF
00FFFF
003FFF
000FFF
0003FF
0000FF
00003F
00000F
000003
ENDCHAR
STARTCHAR 25C1
ENCODING 9665
SWIDTH 1000 0
DWIDTH 32 0
BBX 24 25 4 -1
BITMAP
000001
000007
00001D
000071
0001C1
000701
001C01
007001
00E001
038001
0E0001
380001
E00001
E00001
380001
0E0001
038001
00E001
003801
000E01
000381
0000E1
000039
00000F
000003
ENDCHAR
STARTCHAR 25C6
ENCODING 9670
SWIDTH 1000 0
DWIDTH 32 0
BBX 28 28 2 -1
BITMAP
00060000
000F0000
001F8000
003FC000
007FE000
00FFF000
01FFF800
03FFFC00
07FFFE00
0FFFFF00
1FFFFF80
3FFFFFC0
7FFFFFE0
FFFFFFF0
FFFFFFF0
7FFFFFE0
3FFFFFC0
1FFFFF80
0FFFFF00
07FFFE00
03FFFC00
01FFF800
00FFF000
007FE000
003FC000
001F8000
000F0000
00060000
ENDCHAR
STARTCHAR 25C7
ENCODING 9671
SWIDTH 1000 0
DWIDTH 32 0
BBX 28 28 2 -1
BITMAP
00060000
000F0000
00198000
0030C000
00606000
00C03000
01801800
03000C00
06000600
0C000300
18000180
300000C0
60000060
C0000030
C0000030
60000060
300000C0
18000180
0C000300
06000600
03000C00
01801800
00C03000
00606000
0030C000
00198000
000F0000
00060000
ENDCHAR
STARTCHAR 25C9
ENCODING 9673
SWIDTH 1000 0
DWIDTH 32 0
BBX 27 27 3 -1
BITMAP
007F8000
01C0E000
06001800
0C000C00
18000600
30000300
603F0100
40FFC080
C1FFE080
83FFF040
83FFF040
87FFF840
87FFF840
87FFF860
87FFF860
87FFF840
87FFF840
83FFF040
C3FFF0C0
41FFE080
60FFC180
303F0300
18000200
0C000C00
06001800
03C0E000
007F8000
ENDCHAR
STARTCHAR 25CB
ENCODING 9675
SWIDTH 1000 0
DWIDTH 32 0
BBX 26 27 3 -1
BITMAP
007F0000
01C0E000
06001800
0C000C00
18000600
30000300
60000100
40000080
40000080
C0000040
80000040
80000040
80000040
80000040
80000040
80000040
80000040
800000C0
40000080
40000080
20000100
30000300
18000600
0C000C00
06001800
01C0E000
007F8000
ENDCHAR
STARTCHAR 25CE
ENCODING 9678
SWIDTH 1000 0
DWIDTH 32 0
BBX 27 27 3 -1
BITMAP
007F8000
01C0E000
06001800
0C000C00
18000600
30000300
603F0100
40E1C080
C1806080
83003040
82001040
86001840
84000840
84000860
84000860
84000840
86001840
82001040
C30030C0
41806080
60C1C180
303F0300
18000200
0C000C00
06001800
03C0E000
007F8000
ENDCHAR
STARTCHAR 25CF
ENCODING 9679
SWIDTH 1000 0
DWIDTH 32 0
BBX 26 27 3 -1
BITMAP
007F0000
01FFE000
07FFF800
0FFFFC00
1FFFFE00
3FFFFF00
7FFFFF00
7FFFFF80
7FFFFF80
FFFFFFC0
FFFFFFC0
FFFFFFC0
FFFFFFC0
FFFFFFC0
FFFFFFC0
FFFFFFC0
FFFFFFC0
FFFFFFC0
7FFFFF80
7FFFFF80
3FFFFF00
3FFFFF00
1FFFFE00
0FFFFC00
07FFF800
01FFE000
007F8000
ENDCHAR
STARTCHAR 25D0
ENCODING 9680
SWIDTH 1000 0
DWIDTH 32 0
BBX 27 27 3 -1
BITMAP
007F8000
01FFE000
07F83800
0FF81C00
1FF80600
3FF80300
7FF80100
7FF80080
FFF80080
FFF80040
FFF80040
FFF80040
FFF80040
FFF80060
FFF80060
FFF80040
FFF80040
FFF80040
FFF800C0
7FF80080
7FF80180
3FF80300
1FF80200
0FF80400
07F81800
03F86000
007F8000
ENDCHAR
STARTCHAR 25D1
ENCODING 9681
SWIDTH 1000 0
DWIDTH 32 0
BBX 26 27 3 -1
BITMAP
007F0000
01FFE000
0707F000
0C07F800
1807FE00
3007FE00
6007FF00
6007FF80
C007FF80
C007FFC0
8007FFC0
8007FFC0
8007FFC0
8007FFC0
8007FFC0
8007FFC0
8007FFC0
8007FFC0
C007FFC0
4007FF80
6007FF80
2007FF00
1007FE00
0807FC00
0607F800
0387E000
007F8000
ENDCHAR
STARTCHAR 25D2
ENCODING 9682
SWIDTH 1000 0
DWIDTH 32 0
BBX 27 28 3 -2
BITMAP
007F8000
01C0E000
06001800
0C000C00
18000600
30000300
20000100
40000080
C0000080
80000040
80000040
80000040
80000040
80000060
FFFFFFE0
FFFFFFC0
FFFFFFC0
FFFFFFC0
FFFFFFC0
7FFFFF80
7FFFFF80
3FFFFF00
1FFFFF00
0FFFFE00
07FFFC00
03FFF000
00FFE000
003F0000
ENDCHAR
STARTCHAR 25D3
ENCODING 9683
SWIDTH 1000 0
DWIDTH 32 0
BBX 27 28 3 -2
BITMAP
007F8000
01FFE000
07FFF800
0FFFFC00
1FFFFE00
3FFFFF00
3FFFFF00
7FFFFF80
FFFFFF80
FFFFFFC0
FFFFFFC0
FFFFFFC0
FFFFFFC0
FFFFFFE0
80000060
80000040
80000040
80000040
800000C0
40000080
40000080
20000100
10000300
08000600
04000C00
02001000
01C0E000
003F0000
ENDCHAR
STARTCHAR 25E6
ENCODING 9702
SWIDTH 1000 0
DWIDTH 32 0
BBX 10 11 11 7
BITMAP
1E00
6180
C0C0
8040
8040
8040
8040
8040
C0C0
6180
1E00
ENDCHAR
STARTCHAR 25EF
ENCODING 9711
SWIDTH 1000 0
DWIDTH 32 0
BBX 28 29 2 -2
BITMAP
003F8000
00E07000
03000800
06000600
08000100
10000080
20000040
60000040
40000020
C0000020
80000010
80000010
80000010
80000010
80000010
80000010
80000010
80000010
80000010
80000010
40000020
40000020
20000040
10000080
08000100
04000200
03000400
00C03800
003FC000
ENDCHAR
STARTCHAR 2600
ENCODING 9728
SWIDTH 1000 0
DWIDTH 32 0
BBX 30 29 1 -2
BITMAP
00030000
00030000
00030000
00030000
0C0300C0
06000180
030FC300
01BFF600
007FF800
00FFFC00
00FFFC00
01FFFE00
01FFFE00
01FFFE00
FDFFFEFC
01FFFE00
01FFFE00
00FFFC00
00FFFC00
007FF800
003FF000
018FC600
03000300
06000180
0C0300C0
00030000
00030000
00030000
00030000
ENDCHAR
STARTCHAR 2601
ENCODING 9729
SWIDTH 1000 0
DWIDTH 32 0
BBX 28 22 2 -1
BITMAP
003E0000
00FF0000
01FF8000
01FFC000
03FFE000
03FFE000
03FFF3C0
03FFF7E0
07FFFFF0
07FFFFF0
1FFFFFF0
3FFFFFF0
7FFFFFE0
FFFFFF80
FFFFFFE0
FFFFFFF0
FFFFFFF0
FFFBFFF0
7FF3FFF0
3FC1FFE0
1F80FFC0
00003F00
ENDCHAR
STARTCHAR 2602
ENCODING 9730
SWIDTH 1000 0
DWIDTH 32 0
BBX 30 29 1 -2
BITMAP
00020000
00030000
00030000
003FF000
00FFFC00
03FFFF00
0FFFFFC0
1FFFFFE0
1FFFFFE0
3FFFFFF0
7FFFFFF8
63C78F18
41830608
81030204
81030404
00030000
00030000
00030000
00030000
00030000
00030000
00030000
00030000
00030000
00030000
00030000
00230000
00220000
001E0000
ENDCHAR
STARTCHAR 2603
ENCODING 9731
SWIDTH 1000 0
DWIDTH 32 0
BBX 30 29 1 -2
BITMAP
C00E1018
C00E2818
01802418
02804200
01008100
000100C0
30020080
303E0100
00C10130
0100E230
02001D00
021CE100
021CE100
721CE100
52000100
21084200
0087841C
0300030C
C4000080
C8000040
10030040
10030020
10030020
10000020
10030020
08030040
08030040
06000180
01FFFE00
ENDCHAR
STARTCHAR 2605
ENCODING 9733
SWIDTH 1000 0
DWIDTH 32 0
BBX 30 28 1 -2
BITMAP
00020000
00030000
00030000
00030000
00078000
00078000
00078000
000FC000
000FC000
000FC000
FFFFFFFC
3FFFFFF0
1FFFFFE0
07FFFF80
03FFFF00
01FFFE00
007FF800
007FF800
00FFFC00
00FFFC00
00FFFC00
01FCFE00
01F87E00
01F03E00
03C00F00
03800700
03000300
04000080
ENDCHAR
STARTCHAR 2606
ENCODING 9734
SWIDTH 1000 0
DWIDTH 32 0
BBX 30 28 1 -1
BITMAP
00020000
00030000
00030000
00030000
00048000
00048000
00048000
000C4000
00084000
00084000
FFF87FFC
30000030
18000060
06000180
03000300
00C00C00
00400800
00400800
00C00C00
00800400
00830400
018CC600
01186200
01303200
03C00F00
03800700
03000300
04000080
ENDCHAR
STARTCHAR 260E
ENCODING 9742
SWIDTH 1000 0
DWIDTH 32 0
BBX 30 24 1 0
BITMAP
03FFFF00
1FFFFFC0
3FFFFFF0
3FFFFFF0
7F703BF8
7C7038F8
7C7038F8
F87FF8FC
00FFFC00
01FFFE00
01F87E00
03E01F00
03C00F00
03C00F00
07800780
0F800780
1F800FC0
1FC00FE0
3FC00FF0
3FE01FF0
3FF87FF0
7FFFFFF0
7FFFFFF8
7FFFFFF8
ENDCHAR
STARTCHAR 2616
ENCODING 9750
SWIDTH 1000 0
DWIDTH 32 0
BBX 26 25 3 1
BITMAP
001E0000
00330000
00C0C000
03807000
0E001C00
18000600
30000300
30000300
30000300
20000100
20000100
20000100
20000100
20000100
60000180
60000180
60000180
60000180
40000080
40000080
40000080
40000080
C00000C0
C00000C0
FFFFFFC0
ENDCHAR
STARTCHAR 2617
ENCODING 9751
SWIDTH 1000 0
DWIDTH 32 0
BBX 26 26 3 0
BITMAP
000C0000
001E0000
007F8000
01FFE000
03FFF000
0FFFFC00
3FFFFF00
3FFFFF00
3FFFFF00
3FFFFF00
3FFFFF00
3FFFFF00
3FFFFF00
3FFFFF00
3FFFFF00
7FFFFF80
7FFFFF80
7FFFFF80
7FFFFF80
7FFFFF80
7FFFFF80
7FFFFF80
7FFFFF80
FFFFFFC0
FFFFFFC0
FFFFFFC0
ENDCHAR
STARTCHAR 261E
ENCODING 9758
SWIDTH 1000 0
DWIDTH 32 0
BBX 28 13 2 5
BITMAP
7C7FFFE0
47804010
86006010
84049FE0
843BE400
87C1C200
8802B200
84028C00
86058400
89056400
8AC23800
44391000
3807E000
ENDCHAR
STARTCHAR 2640
ENCODING 9792
SWIDTH 1000 0
DWIDTH 32 0
BBX 20 28 6 -2
BITMAP
01F800
030C00
040200
080100
180180
100080
100080
100080
180180
180180
0C0300
070E00
03FC00
00F000
006000
006000
006000
006000
FFFFF0
006000
006000
006000
006000
006000
006000
006000
006000
006000
ENDCHAR
STARTCHAR 2642
ENCODING 9794
SWIDTH 1000 0
DWIDTH 32 0
BBX 25 25 3 0
BITMAP
0003FF80
00000380
00000680
00000C80
00001880
00003080
00006080
0000C080
00018080
00030080
00060080
0FCC0000
18780000
20180000
40080000
C00C0000
C0040000
80040000
80040000
80040000
C00C0000
40080000
20100000
18600000
0FC00000
ENDCHAR
STARTCHAR 2660
ENCODING 9824
SWIDTH 1000 0
DWIDTH 32 0
BBX 24 29 4 -2
BITMAP
001800
003C00
007E00
00FF00
01FF80
03FFC0
03FFC0
07FFE0
0FFFF0
1FFFF8
1FFFF8
3FFFFC
7FFFFE
7FFFFE
FFFFFF
FFFFFF
FFFFFF
FFFFFF
FFFFFF
FFFFFF
7FDBFE
3F99FC
1F18F8
001800
003C00
003C00
007C00
007E00
008100
ENDCHAR
STARTCHAR 2661
ENCODING 9825
SWIDTH 1000 0
DWIDTH 32 0
BBX 26 26 3 -2
BITMAP
0FC0FC00
30618200
20120100
400C0080
C00C00C0
80000040
80000040
80000040
C00000C0
C00000C0
40000080
60000180
20000100
30000300
10000200
08000400
0C000C00
06001800
02001000
01002000
01806000
00C0C000
00618000
00330000
001E0000
000C0000
ENDCHAR
STARTCHAR 2662
ENCODING 9826
SWIDTH 1000 0
DWIDTH 32 0
BBX 24 30 4 -3
BITMAP
001800
003C00
006600
004200
008100
018180
0300C0
020040
040020
0C0030
180018
30000C
200004
600006
C00003
400002
200004
30000C
180018
080010
040020
060060
0300C0
010080
018100
00C300
004600
002400
003800
001800
ENDCHAR
STARTCHAR 2663
ENCODING 9827
SWIDTH 1000 0
DWIDTH 32 0
BBX 28 30 2 -3
BITMAP
000F0000
003FC000
007FE000
00FFE000
00FFF000
00FFF000
00FFF000
00FFF000
00FFF000
00FFF000
007FE000
0F3FCF00
3F9FBFC0
7FEF7FE0
7FFFFFE0
FFFFFFF0
FFFFFFF0
FFFFFFF0
FFFFFFF0
FFFFFFF0
7FF6FFE0
7FE67FE0
3FC63FC0
0F061F00
00060000
000F0000
000F0000
001F0000
001F8000
00204000
ENDCHAR
STARTCHAR 2664
ENCODING 9828
SWIDTH 1000 0
DWIDTH 32 0
BBX 24 30 4 -3
BITMAP
001800
003800
002400
004200
008100
018180
0300C0
060060
0C0020
080010
180018
30000C
200004
600006
400002
C00003
800001
800001
800001
800001
C02403
406602
30E70C
1F24F8
002400
006600
004200
004200
00FF00
000100
ENDCHAR
STARTCHAR 2665
ENCODING 9829
SWIDTH 1000 0
DWIDTH 32 0
BBX 26 26 3 -1
BITMAP
0F807C00
3FE1FF00
7FF3FF80
7FF3FF80
FFFFFFC0
FFFFFFC0
FFFFFFC0
FFFFFFC0
FFFFFFC0
7FFFFF80
7FFFFF80
7FFFFF80
3FFFFF00
1FFFFE00
1FFFFE00
0FFFFC00
07FFF800
07FFF800
03FFF000
01FFE000
00FFC000
007F8000
007F8000
003F0000
001E0000
000C0000
ENDCHAR
STARTCHAR 2666
ENCODING 9830
SWIDTH 1000 0
DWIDTH 32 0
BBX 24 30 4 -2
BITMAP
001800
003C00
007C00
007E00
00FF00
01FF80
03FFC0
03FFC0
07FFE0
0FFFF0
1FFFF8
1FFFF8
3FFFFC
7FFFFE
FFFFFF
7FFFFE
3FFFFC
3FFFFC
1FFFF8
0FFFF0
07FFE0
07FFE0
03FFC0
01FF80
00FF00
00FF00
007E00
003C00
001800
001800
ENDCHAR
STARTCHAR 2667
ENCODING 9831
SWIDTH 1000 0
DWIDTH 32 0
BBX 28 30 2 -3
BITMAP
001F8000
0030C000
00402000
00801000
00801000
01801800
01801800
01801800
01801800
00801000
00803000
0FC03F00
306060C0
60108060
40000020
C0000030
80000010
80000010
80000010
C0090030
40198020
6039C060
306960C0
0F891F00
00090000
00198000
00108000
00308000
003FC000
00004000
ENDCHAR
STARTCHAR 2668
ENCODING 9832
SWIDTH 1000 0
DWIDTH 32 0
BBX 26 24 3 2
BITMAP
00080000
02102000
04102000
04302000
04306000
0C306000
04106000
06182000
06183000
030C3000
030C1800
01061800
01060800
21860900
41020880
81060840
83061040
82041040
800800C0
C01001C0
60000380
30000F00
0F007C00
01FFC000
ENDCHAR
STARTCHAR 2669
ENCODING 9833
SWIDTH 1000 0
DWIDTH 32 0
BBX 9 27 9 -1
BITMAP
0080
0080
0080
0080
0080
0080
0080
0080
0080
0080
0080
0080
0080
0080
0080
0080
0080
0080
0080
0080
0080
1E80
7F80
FF80
FF80
FF00
7C00
ENDCHAR
STARTCHAR 266A
ENCODING 9834
SWIDTH 1000 0
DWIDTH 32 0
BBX 21 27 6 -1
BITMAP
008000
00C000
00C000
00E000
00F800
00BC00
009E00
008F00
008380
0081E0
0080F0
008070
008038
008038
008018
008010
008030
008060
0080C0
008100
008000
1F8000
7F8000
FF8000
FF8000
FF0000
7C0000
ENDCHAR
STARTCHAR 266B
ENCODING 9835
SWIDTH 1000 0
DWIDTH 32 0
BBX 24 30 2 -3
BITMAP
000001
00003F
0003FF
007FFF
00FFFD
00FFC1
00F801
008001
008001
008001
008001
008001
008001
008001
008001
008001
008001
008001
008001
008001
00807D
0080FF
0081FE
0081FE
3F81FC
7F80F8
FF8000
FF0000
FF0000
7C0000
ENDCHAR
STARTCHAR 266C
ENCODING 9836
SWIDTH 1000 0
DWIDTH 32 0
BBX 24 30 2 -3
BITMAP
000001
00003F
0003FF
007FFF
00FFF9
00FF81
00F001
00803F
0083FF
00BFFF
00FFF9
00FF81
00F001
008001
008001
008001
008001
008001
008001
008001
00807D
0080FF
0081FE
0081FE
3F81FC
7F80F8
FF8000
FF0000
FF0000
7C0000
ENDCHAR
STARTCHAR 266D
ENCODING 9837
SWIDTH 1000 0
DWIDTH 32 0
BBX 12 27 11 -1
BITMAP
8000
8000
8000
8000
8000
8000
8000
8000
8000
8000
8F80
B0C0
C0E0
8060
8070
8070
8060
8060
80E0
80C0
8180
8380
8700
8C00
9800
B000
C000
ENDCHAR
STARTCHAR 266E
ENCODING 9838
SWIDTH 1000 0
DWIDTH 32 0
BBX 8 27 12 -1
BITMAP
80
80
80
80
80
80
80
83
9F
FF
F9
C1
81
81
81
81
8F
FF
FF
F1
81
01
01
01
01
01
01
ENDCHAR
STARTCHAR 266F
ENCODING 9839
SWIDTH 1000 0
DWIDTH 32 0
BBX 18 27 7 -1
BITMAP
000800
040800
040800
040800
040800
040800
0408C0
041FC0
07FF00
3FF800
FE0800
C40800
040800
040800
040800
040800
040BC0
047FC0
07FE00
FFC800
FC0800
840800
040800
040800
040800
040800
040000
ENDCHAR
STARTCHAR 2713
ENCODING 10003
SWIDTH 1000 0
DWIDTH 32 0
BBX 21 21 7 2
BITMAP
000008
000010
000030
000020
000040
000080
000180
000300
000600
000C00
000C00
001800
403000
E06000
60C000
71C000
738000
3F0000
3E0000
1C0000
080000
ENDCHAR
STARTCHAR 2756
ENCODING 10070
SWIDTH 1000 0
DWIDTH 32 0
BBX 28 28 2 -1
BITMAP
00060000
000F0000
001F8000
003FC000
007FE000
00FFF000
00FFF000
007FE000
063FC600
0F1F8F00
1F8F1F80
3FC63FC0
7FE07FE0
FFF0FFF0
FFF0FFF0
7FE07FE0
3FC63FC0
1F8F1F80
0F1F8F00
063FC600
007FE000
00FFF000
00FFF000
007FE000
003FC000
001F8000
000F0000
00060000
ENDCHAR
STARTCHAR 2776
ENCODING 10102
SWIDTH 1000 0
DWIDTH 32 0
BBX 28 29 2 -2
BITMAP
003FC000
00FFF000
03FFFC00
07FFFE00
0FFFFF00
1FF1FF80
3FC1FFC0
7FF9FFE0
7FF9FFE0
FFF9FFF0
FFF9FFF0
FFF9FFF0
FFF9FFF0
FFF9FFF0
FFF9FFF0
FFF9FFF0
FFF9FFF0
FFF9FFF0
FFF9FFF0
FFF9FFF0
7FF9FFE0
7FF9FFE0
3FF8FFC0
1FC03F80
0FFFFF00
07FFFE00
03FFFC00
00FFF000
003FC000
ENDCHAR
STARTCHAR 2777
ENCODING 10103
SWIDTH 1000 0
DWIDTH 32 0
BBX 28 28 2 -2
BITMAP
003FC000
01FFF800
03FFFC00
0FFFFF00
1FE07F80
3FCF3FC0
3F9F9FC0
7F3FCFE0
7F1FCFE0
FF1FCFF0
FF1FCFF0
FFFF9FF0
FFFF9FF0
FFFF3FF0
FFFE7FF0
FFFCFFF0
FFF9FFF0
FFF3FFF0
FFE7F7F0
7FCFF7E0
7F9FE7E0
3F3FE7C0
1F000780
0FFFFF00
07FFFE00
03FFFC00
00FFF000
003FC000
ENDCHAR
STARTCHAR 2778
ENCODING 10104
SWIDTH 1000 0
DWIDTH 32 0
BBX 28 29 2 -2
BITMAP
003F8000
00FFF000
03FFF800
07FFFE00
0FFFFF00
1FE07F80
3FCF1FC0
7FBF9FC0
7F1FCFE0
FF1FCFE0
FF1FCFF0
FFFFCFF0
FFFF9FF0
FFFE3FF0
FFF0FFF0
FFFF1FF0
FFFFCFF0
FFFFCFF0
FFFFC7F0
FF3FE7F0
7E1FC7E0
7F3FCFE0
3F3F8FC0
1F9F1F80
0FE07F00
07FFFE00
03FFFC00
00FFF000
003FC000
ENDCHAR
STARTCHAR 2779
ENCODING 10105
SWIDTH 1000 0
DWIDTH 32 0
BBX 28 29 2 -2
BITMAP
003FC000
00FFF000
03FFFC00
07FFFE00
1FFE7F00
1FFE7F80
3FFC7FC0
7FFA7FE0
7FF27FE0
FFF67FF0
FFEE7FF0
FFDE7FF0
FF9E7FF0
FFBE7FF0
FF7E7FF0
FEFE7FF0
FCFE7FF0
FC0007F0
FC0007F0
FFFE7FF0
7FFE7FE0
7FFE7FE0
3FFE7FC0
1FF00F80
0FFFFF00
07FFFE00
03FFFC00
00FFF000
003FC000
ENDCHAR
STARTCHAR 277A
ENCODING 10106
SWIDTH 1000 0
DWIDTH 32 0
BBX 28 29 2 -2
BITMAP
003F8000
00FFF000
03FFFC00
07FFFE00
0FFFFF00
1F801F80
3F801FC0
7FBFFFE0
7FBFFFE0
FFBFFFE0
FFBFFFF0
FFBFFFF0
FFB07FF0
FF8F1FF0
FF9F8FF0
FFBFCFF0
FFFFC7F0
FFFFC7F0
FFFFC7F0
FF3FC7F0
7F1FCFE0
7F3F8FE0
3F3F9FC0
1F9F3F80
0FE0FF00
07FFFE00
03FFFC00
00FFF000
003FC000
ENDCHAR
STARTCHAR 277B
ENCODING 10107
SWIDTH 1000 0
DWIDTH 32 0
BBX 28 29 2 -2
BITMAP
003F8000
00FFF000
03FFF800
07FFFE00
0FFFFF00
1FF87F80
3FE79FC0
7FCF8FC0
7F9F8FE0
FF9F9FE0
FF3FFFF0
FF3FFFF0
FF307FF0
FF2F1FF0
FF1F9FF0
FE3FCFF0
FE3FCFF0
FF3FCFF0
FF3FCFF0
FF3FCFF0
7F3FCFE0
7F9F8FE0
3F9F9FC0
1FCF3F80
0FF07F00
07FFFE00
03FFFC00
00FFF000
003FC000
ENDCHAR
STARTCHAR 277C
ENCODING 10108
SWIDTH 1000 0
DWIDTH 32 0
BBX 28 28 2 -2
BITMAP
003FC000
00FFF000
03FFFC00
0FFFFE00
1FFFFF80
3F000780
3F3FEFC0
7F3FCFE0
7F7FDFE0
FF7FBFF0
FF7FBFF0
FFFF3FF0
FFFF7FF0
FFFE7FF0
FFFE7FF0
FFFCFFF0
FFFCFFF0
FFFCFFF0
FFF8FFF0
7FF9FFE0
7FF9FFE0
3FF9FFC0
1FF9FF80
1FF9FF00
07FFFE00
03FFFC00
00FFF000
003FC000
ENDCHAR
STARTCHAR 277D
ENCODING 10109
SWIDTH 1000 0
DWIDTH 32 0
BBX 28 29 2 -2
BITMAP
003F8000
00FFF000
03FFF800
07FFFE00
0FFFFF00
1FE07F80
3FCF3FC0
7F9F9FC0
7F3FCFE0
FF3FCFE0
FF1FCFF0
FF9F9FF0
FFCF3FF0
FFE27FF0
FFF0FFF0
FFCE3FF0
FFBF1FF0
FF3F8FF0
FE7FCFF0
FE7FC7F0
7E7FC7E0
7E7FCFE0
3F3F8FC0
1F8F1F80
0FE07F00
07FFFE00
03FFFC00
00FFF000
003FC000
ENDCHAR
STARTCHAR 277E
ENCODING 10110
SWIDTH 1000 0
DWIDTH 32 0
BBX 28 29 2 -2
BITMAP
003F8000
00FFF000
03FFF800
07FFFE00
0FFFFF00
1FF07F80
3FCF3FC0
7F9F9FC0
7F3F9FE0
FF3FCFE0
FF3FCFF0
FF3FCFF0
FF3FCFF0
FF3FC7F0
FF9F87F0
FF8F47F0
FFE0CFF0
FFFFCFF0
FFFFCFF0
FF1FCFF0
7F1F8FE0
7F1F9FE0
3F9F3FC0
1F9E7F80
0FE0FF00
07FFFE00
03FFFC00
00FFF000
003FC000
ENDCHAR
STARTCHAR 277F
ENCODING 10111
SWIDTH 1000 0
DWIDTH 32 0
BBX 28 29 2 -2
BITMAP
003F8000
00FFF000
03FFFC00
07FFFE00
0FFFFF00
1F7F0F80
387E67C0
7E7EF3C0
7E7CF3E0
FE7CF9E0
FE79F9F0
FE79F9F0
FE79F9F0
FE79F9F0
FE79F9F0
FE79F9F0
FE79F9F0
FE79F9F0
FE78F9F0
FE7CF9F0
7E7CF3E0
7E7CF3E0
3E7E67C0
181F0F80
0FFFFF00
07FFFE00
03FFFC00
00FFF000
003FC000
ENDCHAR
STARTCHAR 2934
ENCODING 10548
SWIDTH 1000 0
DWIDTH 32 0
BBX 26 24 3 0
BITMAP
00000800
00001C00
00003E00
00003E00
00006B00
0000C980
000188C0
00010840
00010840
00000800
00000800
00000800
00000800
00000800
00000800
00000800
00000800
00001800
00001800
00001000
00003000
00006000
0001C000
FFFE0000
ENDCHAR
STARTCHAR 2935
ENCODING 10549
SWIDTH 1000 0
DWIDTH 32 0
BBX 26 24 3 0
BITMAP
FFFE0000
00018000
00006000
00002000
00001000
00001800
00001800
00000800
00000800
00000800
00000800
00000800
00000800
00000800
00000800
00000800
00010840
000188C0
0000C980
0000C980
00006B00
00003E00
00001C00
00000800
ENDCHAR
STARTCHAR 29BF
ENCODING 10687
SWIDTH 1000 0
DWIDTH 32 0
BBX 27 27 3 -1
BITMAP
007F8000
01C0E000
06001800
0C000C00
18000600
30000300
60000100
40000080
C0000080
801E0040
803F0040
807F8040
807F8040
807F8060
807F8060
807F8040
803F0040
801E0040
C00000C0
40000080
60000180
30000300
18000200
0C000C00
06001800
03C0E000
007F8000
ENDCHAR
STARTCHAR 29FA
ENCODING 10746
SWIDTH 1000 0
DWIDTH 32 0
BBX 18 17 7 2
BITMAP
061800
061800
061800
061800
061800
061800
061800
061800
FFFFC0
061800
061800
061800
061800
061800
061800
061800
061800
ENDCHAR
STARTCHAR 29FB
ENCODING 10747
SWIDTH 1000 0
DWIDTH 32 0
BBX 18 17 7 2
BITMAP
08C600
08C600
08C600
08C600
08C600
08C600
08C600
08C600
FFFFC0
08C600
08C600
08C600
08C600
08C600
08C600
08C600
08C600
ENDCHAR
STARTCHAR 2E83
ENCODING 11907
SWIDTH 1000 0
DWIDTH 32 0
BBX 21 24 7 0
BITMAP
F00000
C00000
C00000
C00000
C00000
C00000
C00000
C00000
C00000
C00000
C00000
C00000
C00000
C00000
C00000
C00000
C00010
C00010
C00010
C00010
C00030
C00030
7FFFF8
7FFFF0
ENDCHAR
STARTCHAR 2E85
ENCODING 11909
SWIDTH 1000 0
DWIDTH 32 0
BBX 16 28 6 -2
BITMAP
0004
0007
000F
000C
0018
0018
0030
0060
00E0
00F0
01F0
0360
0660
0C60
1860
3060
6060
8060
0060
0060
0060
0060
0060
0060
0060
0060
0060
0060
ENDCHAR
STARTCHAR 2E87
ENCODING 11911
SWIDTH 1000 0
DWIDTH 32 0
BBX 29 27 2 -2
BITMAP
18000300
1FFFFF00
18000300
18000200
18000200
18000200
18000200
18000200
18000200
18000300
18000300
18000300
18000300
18000300
18000300
18000300
18000300
18000310
18000190
30000190
30000190
30000190
200000D0
600000F0
40000070
C0000078
80000038
ENDCHAR
STARTCHAR 2E89
ENCODING 11913
SWIDTH 1000 0
DWIDTH 32 0
BBX 12 26 11 -1
BITMAP
0070
0060
E060
C060
C060
C060
C060
C060
C060
C060
C060
C060
C060
C060
C060
C060
C060
C060
C060
C060
0060
0060
0060
0060
1FE0
01C0
ENDCHAR
STARTCHAR 2E8E
ENCODING 11918
SWIDTH 1000 0
DWIDTH 32 0
BBX 28 26 2 -2
BITMAP
00000040
000000E0
7FFFFFF0
0060C000
0060C000
0060C000
0060C000
0060C000
0060C000
0060C000
00E0C000
00C0C000
00C0C000
00C0C000
00C0C000
01C0C000
0180C040
0180C040
0300C040
0300C040
0600C040
0C00C060
1800FFF0
30007FE0
C0000000
80000000
ENDCHAR
STARTCHAR 2E8F
ENCODING 11919
SWIDTH 1000 0
DWIDTH 32 0
BBX 27 27 3 -2
BITMAP
00010000
0180C000
01C06000
03803000
03001800
06000C00
0E000600
0C000300
18000380
30E1C180
60C18080
80C18000
00C18000
00C18000
00C18000
00C18000
01818000
01818000
01818000
01818040
03018040
03018040
060180C0
0C0180C0
1801FFE0
6000FFC0
80000000
ENDCHAR
STARTCHAR 2E90
ENCODING 11920
SWIDTH 1000 0
DWIDTH 32 0
BBX 28 28 2 -1
BITMAP
000E0000
000C0000
000C0000
000C0000
000C0000
000C00C0
000C00E0
7FFFFFE0
000D8000
000DC000
000D8000
001D8000
00198000
00198000
00198000
00198000
00318000
00318000
00318000
00618040
00E18040
00C18040
01818040
03018060
0E0180E0
1801FFF0
6000FFE0
80000000
ENDCHAR
STARTCHAR 2E92
ENCODING 11922
SWIDTH 1000 0
DWIDTH 32 0
BBX 23 25 7 0
BITMAP
800060
FFFFF0
800060
800060
800060
800060
800060
800060
800060
800060
FFFFE0
800060
800060
800000
800000
800000
800008
800008
800008
800008
800008
80000C
C0001E
FFFFFE
7FFFFC
ENDCHAR
STARTCHAR 2E93
ENCODING 11923
SWIDTH 1000 0
DWIDTH 32 0
BBX 25 27 4 -1
BITMAP
00080000
001E0000
00180000
00380000
00300000
00600000
00600000
00C07000
61807800
3900E000
0E01C000
07018000
03830000
01870000
01CE0000
00CC0000
00180000
00306000
00603000
00C01800
01800E00
01000700
02003F00
3FFFE380
FFF00180
C0000180
80000000
ENDCHAR
STARTCHAR 2E94
ENCODING 11924
SWIDTH 1000 0
DWIDTH 32 0
BBX 27 25 3 0
BITMAP
00E00000
00C00000
00C00000
01800000
01800000
01801800
01FFFC00
01801800
01803000
03003000
03003000
03003000
03003000
03003000
06003000
06006000
07FFE000
06006000
0C006000
0C006000
00006000
00006000
0000C000
0000C0C0
FFFFFFE0
ENDCHAR
STARTCHAR 2E96
ENCODING 11926
SWIDTH 1000 0
DWIDTH 32 0
BBX 13 27 9 -1
BITMAP
0380
0300
0300
0300
0340
2360
2320
3330
3310
2318
6318
6318
E300
C300
0300
0300
0300
0300
0300
0300
0300
0300
0300
0300
0300
0300
0300
ENDCHAR
STARTCHAR 2E97
ENCODING 11927
SWIDTH 1000 0
DWIDTH 32 0
BBX 28 27 2 -2
BITMAP
00700000
00700000
00600000
00600000
00600000
00600000
00600000
00600000
08620400
08610200
18618300
10608180
1060C0C0
106060C0
30606060
30607060
70603070
E0603030
E0603030
C0603030
00600000
00600000
00600000
10600000
0FE00000
01E00000
00800000
ENDCHAR
STARTCHAR 2E98
ENCODING 11928
SWIDTH 1000 0
DWIDTH 32 0
BBX 19 28 7 -2
BITMAP
007000
006000
006000
006000
006000
006080
0061C0
3FFE00
006000
006000
006000
006000
006000
0061E0
007E00
07F000
FF6000
706000
406000
006000
006000
006000
006000
006000
006000
10E000
0FC000
01C000
ENDCHAR
STARTCHAR 2E99
ENCODING 11929
SWIDTH 1000 0
DWIDTH 32 0
BBX 26 29 3 -3
BITMAP
00800000
01E00000
01800000
01800000
03800000
03000100
03000380
07FFFFC0
06003000
0E003000
0E007000
19006000
19006000
3080C000
60C0C000
40418000
80618000
00330000
001F0000
000E0000
000E0000
001F0000
0031C000
0060E000
01C07C00
07001F00
1C0007C0
70000180
80000000
ENDCHAR
STARTCHAR 2E9B
ENCODING 11931
SWIDTH 1000 0
DWIDTH 32 0
BBX 27 28 2 -3
BITMAP
00000200
00000700
3FFFFF80
00060000
00060000
00060000
0E060000
0C060000
0C060000
0C060000
180C0080
180C01C0
1FFFFFE0
300C0000
300C0000
301DC000
00190000
00190000
00310000
00310040
00610040
00C10040
01C10040
03810040
060180E0
1C01FFE0
7001FFE0
80000000
ENDCHAR
STARTCHAR 2E9E
ENCODING 11934
SWIDTH 1000 0
DWIDTH 32 0
BBX 27 29 3 -2
BITMAP
00038000
00030000
00030000
00030080
000301C0
0003FFE0
00030000
00630000
00F30000
00C30000
01C30600
01FFFF00
03000600
07000E00
0E001C00
0F001800
19C03000
30607000
C038E000
8019C000
000B8000
00070000
000E0000
003C0000
00700000
01C00000
07800000
1C000000
E0000000
ENDCHAR
STARTCHAR 2E9F
ENCODING 11935
SWIDTH 1000 0
DWIDTH 32 0
BBX 29 26 1 -1
BITMAP
02000300
03FFFF80
03000300
03000300
031C0300
03070300
03030300
06010300
06000310
06000338
FFFFFFF8
06000300
06200600
06180600
040E0600
0C070600
0C030600
0C030600
0C000630
0C000630
0FFFFFF8
18000600
18000600
00030C00
0000FC00
00001800
ENDCHAR
STARTCHAR 2EA0
ENCODING 11936
SWIDTH 1000 0
DWIDTH 32 0
BBX 28 28 2 -3
BITMAP
0C000300
0FFFFF80
0C000300
0C000300
0C000300
0C000300
0C000300
0FFFFF00
0C030300
0C030300
0C030000
0C030000
0C030040
0C0100E0
0FFFFF00
0C018000
0C00C000
0C00C000
0C00E000
0C007020
0C003020
0C013820
0C0F1C20
0DF80F60
7F8007E0
FC0001F0
C00000F0
40000000
ENDCHAR
STARTCHAR 2EA1
ENCODING 11937
SWIDTH 1000 0
DWIDTH 32 0
BBX 13 28 10 -2
BITMAP
1000
0E00
0700
0380
0100
0008
0008
C010
7010
3820
1860
1840
00C0
0080
0180
0300
0300
0600
0E00
7C00
3C00
1800
0800
0C00
0C00
0C00
1C00
0C00
ENDCHAR
STARTCHAR 2EA3
ENCODING 11939
SWIDTH 1000 0
DWIDTH 32 0
BBX 27 8 3 8
BITMAP
08820800
08830600
10418300
1061C180
3060C1C0
6060C0C0
E060E0E0
C0604040
ENDCHAR
STARTCHAR 2EA4
ENCODING 11940
SWIDTH 1000 0
DWIDTH 32 0
BBX 24 16 4 6
BITMAP
000008
00007C
000FFE
01FF00
FF8000
000006
00600F
40300C
20381C
381818
181C38
0C0C30
0C0C60
040040
0000C0
000080
ENDCHAR
STARTCHAR 2EA6
ENCODING 11942
SWIDTH 1000 0
DWIDTH 32 0
BBX 14 28 6 -2
BITMAP
0010
001C
0018
0018
0018
3018
1818
0C18
0618
0618
0718
0318
0018
0018
0018
0078
01D8
0718
1E18
F818
6018
4018
0018
0018
0018
0018
0018
0018
ENDCHAR
STARTCHAR 2EA8
ENCODING 11944
SWIDTH 1000 0
DWIDTH 32 0
BBX 15 27 7 -1
BITMAP
040C
021E
0338
0170
00E0
01C0
03C0
0660
0C20
3030
4030
0030
0078
00F8
01D8
0388
0608
0C08
1808
6008
C008
0018
0018
0018
0C30
03F0
00E0
ENDCHAR
STARTCHAR 2EAA
ENCODING 11946
SWIDTH 1000 0
DWIDTH 32 0
BBX 17 27 7 -1
BITMAP
000300
FFFF80
000780
000E00
001800
003000
00E000
00C000
38C000
38C000
30C200
30C700
30FF80
30C000
30C000
30C000
30C000
30C000
30C000
30C000
30C380
30FC00
33E000
FF0000
F80000
C00000
800000
ENDCHAR
STARTCHAR 2EAB
ENCODING 11947
SWIDTH 1000 0
DWIDTH 32 0
BBX 25 15 4 6
BITMAP
C0000300
FFFFFF80
C1830300
C1830300
C1830300
C1830300
C1830300
C1830300
C1830300
C1830300
C1830300
C1830300
FFFFFF00
C0000300
C0000300
ENDCHAR
STARTCHAR 2EAD
ENCODING 11949
SWIDTH 1000 0
DWIDTH 32 0
BBX 20 28 5 -2
BITMAP
003800
003000
002000
002000
002000
0020C0
0FDFC0
000380
000300
000600
000E00
001C00
003800
007000
00FC00
01B300
0331C0
0E30E0
183070
603030
C03000
003000
003000
003000
003000
003000
003000
003000
ENDCHAR
STARTCHAR 2EB2
ENCODING 11954
SWIDTH 1000 0
DWIDTH 32 0
BBX 25 15 4 6
BITMAP
C0000300
FFFFFF80
C1830300
C1830300
C1830300
C1830300
C1830300
C1830300
C1830300
C1830300
C1830300
C1830300
FFFFFF00
C0000300
C0000300
ENDCHAR
ENDFONT
